<ttFont>
    <TTGlyph name=".notdef" xMin="80" yMin="-10" xMax="474" yMax="703">
      <contour>
        <pt x="85" y="597" on="1"/>
        <pt x="87" y="637" on="0"/>
        <pt x="110" y="662" on="0"/>
        <pt x="128" y="663" on="1"/>
        <pt x="151" y="676" on="0"/>
        <pt x="224" y="692" on="0"/>
        <pt x="298" y="700" on="0"/>
        <pt x="361" y="703" on="0"/>
        <pt x="373" y="703" on="1"/>
        <pt x="409" y="703" on="0"/>
        <pt x="449" y="694" on="0"/>
        <pt x="469" y="649" on="0"/>
        <pt x="474" y="557" on="0"/>
        <pt x="474" y="473" on="1"/>
        <pt x="474" y="392" on="0"/>
        <pt x="474" y="279" on="0"/>
        <pt x="472" y="194" on="0"/>
        <pt x="470" y="128" on="0"/>
        <pt x="469" y="96" on="1"/>
        <pt x="467" y="55" on="0"/>
        <pt x="443" y="30" on="0"/>
        <pt x="426" y="30" on="1"/>
        <pt x="402" y="17" on="0"/>
        <pt x="329" y="1" on="0"/>
        <pt x="255" y="-7" on="0"/>
        <pt x="193" y="-10" on="0"/>
        <pt x="181" y="-10" on="1"/>
        <pt x="145" y="-10" on="0"/>
        <pt x="105" y="-1" on="0"/>
        <pt x="85" y="44" on="0"/>
        <pt x="80" y="136" on="0"/>
        <pt x="80" y="220" on="1"/>
        <pt x="80" y="301" on="0"/>
        <pt x="80" y="414" on="0"/>
        <pt x="82" y="499" on="0"/>
        <pt x="83" y="565" on="0"/>
      </contour>
      <contour>
        <pt x="374" y="414" on="1"/>
        <pt x="374" y="446" on="0"/>
        <pt x="374" y="495" on="0"/>
        <pt x="375" y="539" on="0"/>
        <pt x="377" y="583" on="0"/>
        <pt x="378" y="610" on="1"/>
        <pt x="327" y="604" on="0"/>
        <pt x="258" y="595" on="0"/>
        <pt x="213" y="589" on="0"/>
        <pt x="185" y="586" on="0"/>
        <pt x="174" y="585" on="1"/>
        <pt x="176" y="543" on="0"/>
        <pt x="178" y="472" on="0"/>
        <pt x="180" y="401" on="0"/>
        <pt x="180" y="325" on="0"/>
        <pt x="180" y="279" on="1"/>
        <pt x="180" y="247" on="0"/>
        <pt x="180" y="198" on="0"/>
        <pt x="179" y="154" on="0"/>
        <pt x="177" y="110" on="0"/>
        <pt x="176" y="83" on="1"/>
        <pt x="227" y="89" on="0"/>
        <pt x="295" y="97" on="0"/>
        <pt x="340" y="103" on="0"/>
        <pt x="368" y="107" on="0"/>
        <pt x="379" y="108" on="1"/>
        <pt x="377" y="150" on="0"/>
        <pt x="376" y="221" on="0"/>
        <pt x="374" y="292" on="0"/>
        <pt x="374" y="367" on="0"/>
      </contour>
    </TTGlyph>
    <TTGlyph name="A" xMin="32" yMin="-3" xMax="715" yMax="722">
      <contour>
        <pt x="622" y="9" on="1"/>
        <pt x="598" y="1" on="0"/>
        <pt x="572" y="-1" on="1"/>
        <pt x="550" y="-3" on="0"/>
        <pt x="497" y="5" on="0"/>
        <pt x="471" y="20" on="1"/>
        <pt x="442" y="37" on="0"/>
        <pt x="405" y="83" on="0"/>
        <pt x="383" y="127" on="0"/>
        <pt x="374" y="163" on="0"/>
        <pt x="373" y="171" on="1"/>
        <pt x="372" y="163" on="0"/>
        <pt x="363" y="127" on="0"/>
        <pt x="341" y="83" on="0"/>
        <pt x="304" y="37" on="0"/>
        <pt x="275" y="20" on="1"/>
        <pt x="249" y="5" on="0"/>
        <pt x="196" y="-3" on="0"/>
        <pt x="174" y="-1" on="1"/>
        <pt x="148" y="1" on="0"/>
        <pt x="124" y="9" on="1"/>
        <pt x="104" y="16" on="0"/>
        <pt x="75" y="39" on="0"/>
        <pt x="56" y="68" on="0"/>
        <pt x="43" y="101" on="0"/>
        <pt x="40" y="117" on="1"/>
        <pt x="32" y="155" on="0"/>
        <pt x="34" y="198" on="1"/>
        <pt x="37" y="269" on="0"/>
        <pt x="63" y="388" on="0"/>
        <pt x="102" y="487" on="0"/>
        <pt x="148" y="566" on="0"/>
        <pt x="170" y="598" on="1"/>
        <pt x="203" y="646" on="0"/>
        <pt x="272" y="696" on="0"/>
        <pt x="331" y="719" on="0"/>
        <pt x="370" y="722" on="0"/>
        <pt x="373" y="722" on="1"/>
        <pt x="376" y="722" on="0"/>
        <pt x="415" y="719" on="0"/>
        <pt x="474" y="696" on="0"/>
        <pt x="544" y="646" on="0"/>
        <pt x="577" y="598" on="1"/>
        <pt x="599" y="566" on="0"/>
        <pt x="644" y="487" on="0"/>
        <pt x="683" y="388" on="0"/>
        <pt x="709" y="269" on="0"/>
        <pt x="712" y="198" on="1"/>
        <pt x="715" y="155" on="0"/>
        <pt x="707" y="117" on="1"/>
        <pt x="704" y="101" on="0"/>
        <pt x="691" y="68" on="0"/>
        <pt x="671" y="39" on="0"/>
        <pt x="642" y="16" on="0"/>
      </contour>
      <contour>
        <pt x="377" y="369" on="1"/>
        <pt x="360" y="369" on="0"/>
        <pt x="335" y="343" on="0"/>
        <pt x="337" y="327" on="1"/>
        <pt x="339" y="306" on="0"/>
        <pt x="360" y="290" on="0"/>
        <pt x="377" y="290" on="1"/>
        <pt x="394" y="290" on="0"/>
        <pt x="416" y="310" on="0"/>
        <pt x="416" y="327" on="1"/>
        <pt x="416" y="343" on="0"/>
        <pt x="396" y="369" on="0"/>
      </contour>
    </TTGlyph>
    <TTGlyph name="AE" xMin="23" yMin="-12" xMax="1114" yMax="725">
      <contour>
        <pt x="1011" y="366" on="1"/>
        <pt x="1011" y="335" on="0"/>
        <pt x="984" y="297" on="0"/>
        <pt x="946" y="275" on="0"/>
        <pt x="906" y="267" on="0"/>
        <pt x="894" y="266" on="1"/>
        <pt x="936" y="266" on="0"/>
        <pt x="1000" y="256" on="0"/>
        <pt x="1046" y="238" on="0"/>
        <pt x="1078" y="214" on="0"/>
        <pt x="1088" y="202" on="1"/>
        <pt x="1112" y="173" on="0"/>
        <pt x="1114" y="135" on="1"/>
        <pt x="1113" y="111" on="0"/>
        <pt x="1091" y="74" on="0"/>
        <pt x="1057" y="46" on="0"/>
        <pt x="1014" y="27" on="0"/>
        <pt x="992" y="21" on="1"/>
        <pt x="940" y="6" on="0"/>
        <pt x="874" y="3" on="1"/>
        <pt x="799" y="-3" on="0"/>
        <pt x="693" y="12" on="0"/>
        <pt x="655" y="26" on="1"/>
        <pt x="638" y="9" on="0"/>
        <pt x="613" y="0" on="1"/>
        <pt x="589" y="-8" on="0"/>
        <pt x="563" y="-10" on="1"/>
        <pt x="541" y="-12" on="0"/>
        <pt x="488" y="-4" on="0"/>
        <pt x="462" y="11" on="1"/>
        <pt x="433" y="28" on="0"/>
        <pt x="396" y="74" on="0"/>
        <pt x="374" y="118" on="0"/>
        <pt x="365" y="154" on="0"/>
        <pt x="364" y="162" on="1"/>
        <pt x="363" y="154" on="0"/>
        <pt x="354" y="118" on="0"/>
        <pt x="332" y="74" on="0"/>
        <pt x="295" y="28" on="0"/>
        <pt x="266" y="11" on="1"/>
        <pt x="240" y="-4" on="0"/>
        <pt x="187" y="-12" on="0"/>
        <pt x="165" y="-10" on="1"/>
        <pt x="139" y="-8" on="0"/>
        <pt x="115" y="0" on="1"/>
        <pt x="95" y="7" on="0"/>
        <pt x="66" y="30" on="0"/>
        <pt x="47" y="59" on="0"/>
        <pt x="34" y="92" on="0"/>
        <pt x="31" y="108" on="1"/>
        <pt x="23" y="146" on="0"/>
        <pt x="25" y="189" on="1"/>
        <pt x="28" y="260" on="0"/>
        <pt x="54" y="379" on="0"/>
        <pt x="93" y="478" on="0"/>
        <pt x="139" y="557" on="0"/>
        <pt x="161" y="589" on="1"/>
        <pt x="194" y="637" on="0"/>
        <pt x="263" y="687" on="0"/>
        <pt x="322" y="710" on="0"/>
        <pt x="361" y="713" on="0"/>
        <pt x="364" y="713" on="1"/>
        <pt x="367" y="713" on="0"/>
        <pt x="403" y="710" on="0"/>
        <pt x="458" y="691" on="0"/>
        <pt x="524" y="647" on="0"/>
        <pt x="556" y="605" on="1"/>
        <pt x="568" y="630" on="0"/>
        <pt x="608" y="666" on="0"/>
        <pt x="656" y="692" on="0"/>
        <pt x="710" y="709" on="0"/>
        <pt x="736" y="714" on="1"/>
        <pt x="798" y="725" on="0"/>
        <pt x="867" y="724" on="1"/>
        <pt x="915" y="725" on="0"/>
        <pt x="987" y="716" on="0"/>
        <pt x="1039" y="699" on="0"/>
        <pt x="1074" y="678" on="0"/>
        <pt x="1085" y="667" on="1"/>
        <pt x="1111" y="641" on="0"/>
        <pt x="1112" y="606" on="1"/>
        <pt x="1112" y="576" on="0"/>
        <pt x="1093" y="532" on="0"/>
        <pt x="1060" y="500" on="0"/>
        <pt x="1017" y="480" on="0"/>
        <pt x="995" y="474" on="1"/>
        <pt x="942" y="460" on="0"/>
        <pt x="875" y="462" on="1"/>
        <pt x="931" y="457" on="0"/>
        <pt x="986" y="426" on="0"/>
        <pt x="998" y="409" on="1"/>
        <pt x="1011" y="389" on="0"/>
      </contour>
      <contour>
        <pt x="367" y="354" on="1"/>
        <pt x="350" y="354" on="0"/>
        <pt x="325" y="328" on="0"/>
        <pt x="327" y="312" on="1"/>
        <pt x="329" y="291" on="0"/>
        <pt x="350" y="275" on="0"/>
        <pt x="367" y="275" on="1"/>
        <pt x="384" y="275" on="0"/>
        <pt x="406" y="295" on="0"/>
        <pt x="406" y="312" on="1"/>
        <pt x="406" y="328" on="0"/>
        <pt x="386" y="354" on="0"/>
      </contour>
    </TTGlyph>
    <TTGlyph name="Aacute" xMin="32" yMin="-3" xMax="715" yMax="949">
      <contour>
        <pt x="622" y="9" on="1"/>
        <pt x="598" y="1" on="0"/>
        <pt x="572" y="-1" on="1"/>
        <pt x="550" y="-3" on="0"/>
        <pt x="497" y="5" on="0"/>
        <pt x="471" y="20" on="1"/>
        <pt x="442" y="37" on="0"/>
        <pt x="405" y="83" on="0"/>
        <pt x="383" y="127" on="0"/>
        <pt x="374" y="163" on="0"/>
        <pt x="373" y="171" on="1"/>
        <pt x="372" y="163" on="0"/>
        <pt x="363" y="127" on="0"/>
        <pt x="341" y="83" on="0"/>
        <pt x="304" y="37" on="0"/>
        <pt x="275" y="20" on="1"/>
        <pt x="249" y="5" on="0"/>
        <pt x="196" y="-3" on="0"/>
        <pt x="174" y="-1" on="1"/>
        <pt x="148" y="1" on="0"/>
        <pt x="124" y="9" on="1"/>
        <pt x="104" y="16" on="0"/>
        <pt x="75" y="39" on="0"/>
        <pt x="56" y="68" on="0"/>
        <pt x="43" y="101" on="0"/>
        <pt x="40" y="117" on="1"/>
        <pt x="32" y="155" on="0"/>
        <pt x="34" y="198" on="1"/>
        <pt x="37" y="269" on="0"/>
        <pt x="63" y="388" on="0"/>
        <pt x="102" y="487" on="0"/>
        <pt x="148" y="566" on="0"/>
        <pt x="170" y="598" on="1"/>
        <pt x="203" y="646" on="0"/>
        <pt x="272" y="696" on="0"/>
        <pt x="331" y="719" on="0"/>
        <pt x="370" y="722" on="0"/>
        <pt x="373" y="722" on="1"/>
        <pt x="376" y="722" on="0"/>
        <pt x="415" y="719" on="0"/>
        <pt x="474" y="696" on="0"/>
        <pt x="544" y="646" on="0"/>
        <pt x="577" y="598" on="1"/>
        <pt x="599" y="566" on="0"/>
        <pt x="644" y="487" on="0"/>
        <pt x="683" y="388" on="0"/>
        <pt x="709" y="269" on="0"/>
        <pt x="712" y="198" on="1"/>
        <pt x="715" y="155" on="0"/>
        <pt x="707" y="117" on="1"/>
        <pt x="704" y="101" on="0"/>
        <pt x="691" y="68" on="0"/>
        <pt x="671" y="39" on="0"/>
        <pt x="642" y="16" on="0"/>
      </contour>
      <contour>
        <pt x="242" y="852" on="1"/>
        <pt x="250" y="862" on="0"/>
        <pt x="281" y="889" on="0"/>
        <pt x="317" y="914" on="0"/>
        <pt x="356" y="935" on="0"/>
        <pt x="372" y="940" on="1"/>
        <pt x="394" y="947" on="0"/>
        <pt x="427" y="949" on="0"/>
        <pt x="450" y="942" on="0"/>
        <pt x="467" y="929" on="0"/>
        <pt x="475" y="922" on="1"/>
        <pt x="483" y="914" on="0"/>
        <pt x="497" y="888" on="0"/>
        <pt x="500" y="858" on="0"/>
        <pt x="488" y="825" on="0"/>
        <pt x="469" y="809" on="1"/>
        <pt x="448" y="790" on="0"/>
        <pt x="392" y="767" on="0"/>
        <pt x="366" y="759" on="1"/>
        <pt x="336" y="750" on="0"/>
        <pt x="306" y="745" on="1"/>
        <pt x="290" y="741" on="0"/>
        <pt x="275" y="743" on="1"/>
        <pt x="262" y="745" on="0"/>
        <pt x="236" y="757" on="0"/>
        <pt x="228" y="774" on="1"/>
        <pt x="220" y="789" on="0"/>
        <pt x="222" y="817" on="0"/>
        <pt x="227" y="828" on="1"/>
        <pt x="232" y="840" on="0"/>
      </contour>
      <contour>
        <pt x="377" y="369" on="1"/>
        <pt x="360" y="369" on="0"/>
        <pt x="335" y="343" on="0"/>
        <pt x="337" y="327" on="1"/>
        <pt x="339" y="306" on="0"/>
        <pt x="360" y="290" on="0"/>
        <pt x="377" y="290" on="1"/>
        <pt x="394" y="290" on="0"/>
        <pt x="416" y="310" on="0"/>
        <pt x="416" y="327" on="1"/>
        <pt x="416" y="343" on="0"/>
        <pt x="396" y="369" on="0"/>
      </contour>
    </TTGlyph>
    <TTGlyph name="Acircumflex" xMin="32" yMin="-3" xMax="715" yMax="936">
      <contour>
        <pt x="622" y="9" on="1"/>
        <pt x="598" y="1" on="0"/>
        <pt x="572" y="-1" on="1"/>
        <pt x="550" y="-3" on="0"/>
        <pt x="497" y="5" on="0"/>
        <pt x="471" y="20" on="1"/>
        <pt x="442" y="37" on="0"/>
        <pt x="405" y="83" on="0"/>
        <pt x="383" y="127" on="0"/>
        <pt x="374" y="163" on="0"/>
        <pt x="373" y="171" on="1"/>
        <pt x="372" y="163" on="0"/>
        <pt x="363" y="127" on="0"/>
        <pt x="341" y="83" on="0"/>
        <pt x="304" y="37" on="0"/>
        <pt x="275" y="20" on="1"/>
        <pt x="249" y="5" on="0"/>
        <pt x="196" y="-3" on="0"/>
        <pt x="174" y="-1" on="1"/>
        <pt x="148" y="1" on="0"/>
        <pt x="124" y="9" on="1"/>
        <pt x="104" y="16" on="0"/>
        <pt x="75" y="39" on="0"/>
        <pt x="56" y="68" on="0"/>
        <pt x="43" y="101" on="0"/>
        <pt x="40" y="117" on="1"/>
        <pt x="32" y="155" on="0"/>
        <pt x="34" y="198" on="1"/>
        <pt x="37" y="269" on="0"/>
        <pt x="63" y="388" on="0"/>
        <pt x="102" y="487" on="0"/>
        <pt x="148" y="566" on="0"/>
        <pt x="170" y="598" on="1"/>
        <pt x="203" y="646" on="0"/>
        <pt x="272" y="696" on="0"/>
        <pt x="331" y="719" on="0"/>
        <pt x="370" y="722" on="0"/>
        <pt x="373" y="722" on="1"/>
        <pt x="376" y="722" on="0"/>
        <pt x="415" y="719" on="0"/>
        <pt x="474" y="696" on="0"/>
        <pt x="544" y="646" on="0"/>
        <pt x="577" y="598" on="1"/>
        <pt x="599" y="566" on="0"/>
        <pt x="644" y="487" on="0"/>
        <pt x="683" y="388" on="0"/>
        <pt x="709" y="269" on="0"/>
        <pt x="712" y="198" on="1"/>
        <pt x="715" y="155" on="0"/>
        <pt x="707" y="117" on="1"/>
        <pt x="704" y="101" on="0"/>
        <pt x="691" y="68" on="0"/>
        <pt x="671" y="39" on="0"/>
        <pt x="642" y="16" on="0"/>
      </contour>
      <contour>
        <pt x="222" y="842" on="1"/>
        <pt x="223" y="843" on="0"/>
        <pt x="249" y="873" on="0"/>
        <pt x="291" y="907" on="0"/>
        <pt x="345" y="936" on="0"/>
        <pt x="374" y="936" on="1"/>
        <pt x="402" y="936" on="0"/>
        <pt x="454" y="907" on="0"/>
        <pt x="496" y="871" on="0"/>
        <pt x="521" y="840" on="0"/>
        <pt x="522" y="839" on="1"/>
        <pt x="536" y="820" on="0"/>
        <pt x="528" y="774" on="0"/>
        <pt x="508" y="760" on="1"/>
        <pt x="488" y="746" on="0"/>
        <pt x="442" y="754" on="0"/>
        <pt x="428" y="774" on="1"/>
        <pt x="426" y="775" on="0"/>
        <pt x="397" y="809" on="0"/>
        <pt x="374" y="822" on="1"/>
        <pt x="360" y="813" on="0"/>
        <pt x="336" y="795" on="0"/>
        <pt x="328" y="787" on="1"/>
        <pt x="318" y="778" on="0"/>
        <pt x="311" y="771" on="1"/>
        <pt x="300" y="759" on="0"/>
        <pt x="288" y="753" on="1"/>
        <pt x="277" y="748" on="0"/>
        <pt x="248" y="748" on="0"/>
        <pt x="231" y="762" on="1"/>
        <pt x="212" y="777" on="0"/>
        <pt x="207" y="824" on="0"/>
      </contour>
      <contour>
        <pt x="377" y="369" on="1"/>
        <pt x="360" y="369" on="0"/>
        <pt x="335" y="343" on="0"/>
        <pt x="337" y="327" on="1"/>
        <pt x="339" y="306" on="0"/>
        <pt x="360" y="290" on="0"/>
        <pt x="377" y="290" on="1"/>
        <pt x="394" y="290" on="0"/>
        <pt x="416" y="310" on="0"/>
        <pt x="416" y="327" on="1"/>
        <pt x="416" y="343" on="0"/>
        <pt x="396" y="369" on="0"/>
      </contour>
    </TTGlyph>
    <TTGlyph name="Adieresis" xMin="32" yMin="-3" xMax="715" yMax="920">
      <contour>
        <pt x="622" y="9" on="1"/>
        <pt x="598" y="1" on="0"/>
        <pt x="572" y="-1" on="1"/>
        <pt x="550" y="-3" on="0"/>
        <pt x="497" y="5" on="0"/>
        <pt x="471" y="20" on="1"/>
        <pt x="442" y="37" on="0"/>
        <pt x="405" y="83" on="0"/>
        <pt x="383" y="127" on="0"/>
        <pt x="374" y="163" on="0"/>
        <pt x="373" y="171" on="1"/>
        <pt x="372" y="163" on="0"/>
        <pt x="363" y="127" on="0"/>
        <pt x="341" y="83" on="0"/>
        <pt x="304" y="37" on="0"/>
        <pt x="275" y="20" on="1"/>
        <pt x="249" y="5" on="0"/>
        <pt x="196" y="-3" on="0"/>
        <pt x="174" y="-1" on="1"/>
        <pt x="148" y="1" on="0"/>
        <pt x="124" y="9" on="1"/>
        <pt x="104" y="16" on="0"/>
        <pt x="75" y="39" on="0"/>
        <pt x="56" y="68" on="0"/>
        <pt x="43" y="101" on="0"/>
        <pt x="40" y="117" on="1"/>
        <pt x="32" y="155" on="0"/>
        <pt x="34" y="198" on="1"/>
        <pt x="37" y="269" on="0"/>
        <pt x="63" y="388" on="0"/>
        <pt x="102" y="487" on="0"/>
        <pt x="148" y="566" on="0"/>
        <pt x="170" y="598" on="1"/>
        <pt x="203" y="646" on="0"/>
        <pt x="272" y="696" on="0"/>
        <pt x="331" y="719" on="0"/>
        <pt x="370" y="722" on="0"/>
        <pt x="373" y="722" on="1"/>
        <pt x="376" y="722" on="0"/>
        <pt x="415" y="719" on="0"/>
        <pt x="474" y="696" on="0"/>
        <pt x="544" y="646" on="0"/>
        <pt x="577" y="598" on="1"/>
        <pt x="599" y="566" on="0"/>
        <pt x="644" y="487" on="0"/>
        <pt x="683" y="388" on="0"/>
        <pt x="709" y="269" on="0"/>
        <pt x="712" y="198" on="1"/>
        <pt x="715" y="155" on="0"/>
        <pt x="707" y="117" on="1"/>
        <pt x="704" y="101" on="0"/>
        <pt x="691" y="68" on="0"/>
        <pt x="671" y="39" on="0"/>
        <pt x="642" y="16" on="0"/>
      </contour>
      <contour>
        <pt x="543" y="843" on="1"/>
        <pt x="543" y="811" on="0"/>
        <pt x="504" y="765" on="0"/>
        <pt x="466" y="765" on="1"/>
        <pt x="428" y="765" on="0"/>
        <pt x="389" y="811" on="0"/>
        <pt x="389" y="843" on="1"/>
        <pt x="389" y="875" on="0"/>
        <pt x="428" y="920" on="0"/>
        <pt x="466" y="920" on="1"/>
        <pt x="504" y="920" on="0"/>
        <pt x="543" y="875" on="0"/>
      </contour>
      <contour>
        <pt x="360" y="843" on="1"/>
        <pt x="360" y="811" on="0"/>
        <pt x="321" y="765" on="0"/>
        <pt x="283" y="765" on="1"/>
        <pt x="245" y="765" on="0"/>
        <pt x="206" y="811" on="0"/>
        <pt x="206" y="843" on="1"/>
        <pt x="206" y="875" on="0"/>
        <pt x="245" y="920" on="0"/>
        <pt x="283" y="920" on="1"/>
        <pt x="321" y="920" on="0"/>
        <pt x="360" y="875" on="0"/>
      </contour>
      <contour>
        <pt x="377" y="369" on="1"/>
        <pt x="360" y="369" on="0"/>
        <pt x="335" y="343" on="0"/>
        <pt x="337" y="327" on="1"/>
        <pt x="339" y="306" on="0"/>
        <pt x="360" y="290" on="0"/>
        <pt x="377" y="290" on="1"/>
        <pt x="394" y="290" on="0"/>
        <pt x="416" y="310" on="0"/>
        <pt x="416" y="327" on="1"/>
        <pt x="416" y="343" on="0"/>
        <pt x="396" y="369" on="0"/>
      </contour>
    </TTGlyph>
    <TTGlyph name="Agrave" xMin="32" yMin="-3" xMax="715" yMax="954">
      <contour>
        <pt x="622" y="9" on="1"/>
        <pt x="598" y="1" on="0"/>
        <pt x="572" y="-1" on="1"/>
        <pt x="550" y="-3" on="0"/>
        <pt x="497" y="5" on="0"/>
        <pt x="471" y="20" on="1"/>
        <pt x="442" y="37" on="0"/>
        <pt x="405" y="83" on="0"/>
        <pt x="383" y="127" on="0"/>
        <pt x="374" y="163" on="0"/>
        <pt x="373" y="171" on="1"/>
        <pt x="372" y="163" on="0"/>
        <pt x="363" y="127" on="0"/>
        <pt x="341" y="83" on="0"/>
        <pt x="304" y="37" on="0"/>
        <pt x="275" y="20" on="1"/>
        <pt x="249" y="5" on="0"/>
        <pt x="196" y="-3" on="0"/>
        <pt x="174" y="-1" on="1"/>
        <pt x="148" y="1" on="0"/>
        <pt x="124" y="9" on="1"/>
        <pt x="104" y="16" on="0"/>
        <pt x="75" y="39" on="0"/>
        <pt x="56" y="68" on="0"/>
        <pt x="43" y="101" on="0"/>
        <pt x="40" y="117" on="1"/>
        <pt x="32" y="155" on="0"/>
        <pt x="34" y="198" on="1"/>
        <pt x="37" y="269" on="0"/>
        <pt x="63" y="388" on="0"/>
        <pt x="102" y="487" on="0"/>
        <pt x="148" y="566" on="0"/>
        <pt x="170" y="598" on="1"/>
        <pt x="203" y="646" on="0"/>
        <pt x="272" y="696" on="0"/>
        <pt x="331" y="719" on="0"/>
        <pt x="370" y="722" on="0"/>
        <pt x="373" y="722" on="1"/>
        <pt x="376" y="722" on="0"/>
        <pt x="415" y="719" on="0"/>
        <pt x="474" y="696" on="0"/>
        <pt x="544" y="646" on="0"/>
        <pt x="577" y="598" on="1"/>
        <pt x="599" y="566" on="0"/>
        <pt x="644" y="487" on="0"/>
        <pt x="683" y="388" on="0"/>
        <pt x="709" y="269" on="0"/>
        <pt x="712" y="198" on="1"/>
        <pt x="715" y="155" on="0"/>
        <pt x="707" y="117" on="1"/>
        <pt x="704" y="101" on="0"/>
        <pt x="691" y="68" on="0"/>
        <pt x="671" y="39" on="0"/>
        <pt x="642" y="16" on="0"/>
      </contour>
      <contour>
        <pt x="356" y="945" on="1"/>
        <pt x="372" y="940" on="0"/>
        <pt x="411" y="919" on="0"/>
        <pt x="447" y="894" on="0"/>
        <pt x="478" y="867" on="0"/>
        <pt x="486" y="857" on="1"/>
        <pt x="495" y="845" on="0"/>
        <pt x="500" y="833" on="1"/>
        <pt x="505" y="822" on="0"/>
        <pt x="508" y="794" on="0"/>
        <pt x="500" y="779" on="1"/>
        <pt x="492" y="762" on="0"/>
        <pt x="466" y="750" on="0"/>
        <pt x="453" y="748" on="1"/>
        <pt x="438" y="746" on="0"/>
        <pt x="422" y="750" on="1"/>
        <pt x="391" y="755" on="0"/>
        <pt x="361" y="764" on="1"/>
        <pt x="335" y="772" on="0"/>
        <pt x="280" y="795" on="0"/>
        <pt x="259" y="814" on="1"/>
        <pt x="240" y="830" on="0"/>
        <pt x="228" y="863" on="0"/>
        <pt x="231" y="893" on="0"/>
        <pt x="245" y="919" on="0"/>
        <pt x="253" y="927" on="1"/>
        <pt x="260" y="934" on="0"/>
        <pt x="278" y="947" on="0"/>
        <pt x="301" y="954" on="0"/>
        <pt x="333" y="952" on="0"/>
      </contour>
      <contour>
        <pt x="377" y="369" on="1"/>
        <pt x="360" y="369" on="0"/>
        <pt x="335" y="343" on="0"/>
        <pt x="337" y="327" on="1"/>
        <pt x="339" y="306" on="0"/>
        <pt x="360" y="290" on="0"/>
        <pt x="377" y="290" on="1"/>
        <pt x="394" y="290" on="0"/>
        <pt x="416" y="310" on="0"/>
        <pt x="416" y="327" on="1"/>
        <pt x="416" y="343" on="0"/>
        <pt x="396" y="369" on="0"/>
      </contour>
    </TTGlyph>
    <TTGlyph name="Aring" xMin="32" yMin="-3" xMax="715" yMax="916">
      <contour>
        <pt x="493" y="801" on="1"/>
        <pt x="493" y="772" on="0"/>
        <pt x="466" y="724" on="0"/>
        <pt x="443" y="708" on="1"/>
        <pt x="472" y="697" on="0"/>
        <pt x="543" y="646" on="0"/>
        <pt x="577" y="598" on="1"/>
        <pt x="599" y="566" on="0"/>
        <pt x="644" y="487" on="0"/>
        <pt x="683" y="388" on="0"/>
        <pt x="709" y="269" on="0"/>
        <pt x="712" y="198" on="1"/>
        <pt x="715" y="155" on="0"/>
        <pt x="707" y="117" on="1"/>
        <pt x="704" y="101" on="0"/>
        <pt x="691" y="68" on="0"/>
        <pt x="671" y="39" on="0"/>
        <pt x="642" y="16" on="0"/>
        <pt x="622" y="9" on="1"/>
        <pt x="598" y="1" on="0"/>
        <pt x="572" y="-1" on="1"/>
        <pt x="550" y="-3" on="0"/>
        <pt x="497" y="5" on="0"/>
        <pt x="471" y="20" on="1"/>
        <pt x="442" y="37" on="0"/>
        <pt x="405" y="83" on="0"/>
        <pt x="383" y="127" on="0"/>
        <pt x="374" y="163" on="0"/>
        <pt x="373" y="171" on="1"/>
        <pt x="372" y="163" on="0"/>
        <pt x="363" y="127" on="0"/>
        <pt x="341" y="83" on="0"/>
        <pt x="304" y="37" on="0"/>
        <pt x="275" y="20" on="1"/>
        <pt x="249" y="5" on="0"/>
        <pt x="196" y="-3" on="0"/>
        <pt x="174" y="-1" on="1"/>
        <pt x="148" y="1" on="0"/>
        <pt x="124" y="9" on="1"/>
        <pt x="104" y="16" on="0"/>
        <pt x="75" y="39" on="0"/>
        <pt x="56" y="68" on="0"/>
        <pt x="43" y="101" on="0"/>
        <pt x="40" y="117" on="1"/>
        <pt x="32" y="155" on="0"/>
        <pt x="34" y="198" on="1"/>
        <pt x="37" y="269" on="0"/>
        <pt x="63" y="388" on="0"/>
        <pt x="102" y="487" on="0"/>
        <pt x="148" y="566" on="0"/>
        <pt x="170" y="598" on="1"/>
        <pt x="202" y="645" on="0"/>
        <pt x="271" y="695" on="0"/>
        <pt x="300" y="707" on="1"/>
        <pt x="276" y="722" on="0"/>
        <pt x="248" y="772" on="0"/>
        <pt x="248" y="801" on="1"/>
        <pt x="248" y="825" on="0"/>
        <pt x="267" y="866" on="0"/>
        <pt x="301" y="898" on="0"/>
        <pt x="345" y="916" on="0"/>
        <pt x="371" y="916" on="1"/>
        <pt x="396" y="916" on="0"/>
        <pt x="441" y="898" on="0"/>
        <pt x="474" y="866" on="0"/>
        <pt x="493" y="825" on="0"/>
      </contour>
      <contour>
        <pt x="370" y="855" on="1"/>
        <pt x="342" y="855" on="0"/>
        <pt x="316" y="825" on="0"/>
        <pt x="316" y="802" on="1"/>
        <pt x="316" y="780" on="0"/>
        <pt x="342" y="751" on="0"/>
        <pt x="371" y="751" on="1"/>
        <pt x="400" y="751" on="0"/>
        <pt x="423" y="779" on="0"/>
        <pt x="423" y="801" on="1"/>
        <pt x="423" y="827" on="0"/>
        <pt x="395" y="855" on="0"/>
      </contour>
      <contour>
        <pt x="377" y="369" on="1"/>
        <pt x="360" y="369" on="0"/>
        <pt x="335" y="343" on="0"/>
        <pt x="337" y="327" on="1"/>
        <pt x="339" y="306" on="0"/>
        <pt x="360" y="290" on="0"/>
        <pt x="377" y="290" on="1"/>
        <pt x="394" y="290" on="0"/>
        <pt x="416" y="310" on="0"/>
        <pt x="416" y="327" on="1"/>
        <pt x="416" y="343" on="0"/>
        <pt x="396" y="369" on="0"/>
      </contour>
    </TTGlyph>
    <TTGlyph name="Atilde" xMin="32" yMin="-3" xMax="715" yMax="953">
      <contour>
        <pt x="622" y="9" on="1"/>
        <pt x="598" y="1" on="0"/>
        <pt x="572" y="-1" on="1"/>
        <pt x="550" y="-3" on="0"/>
        <pt x="497" y="5" on="0"/>
        <pt x="471" y="20" on="1"/>
        <pt x="442" y="37" on="0"/>
        <pt x="405" y="83" on="0"/>
        <pt x="383" y="127" on="0"/>
        <pt x="374" y="163" on="0"/>
        <pt x="373" y="171" on="1"/>
        <pt x="372" y="163" on="0"/>
        <pt x="363" y="127" on="0"/>
        <pt x="341" y="83" on="0"/>
        <pt x="304" y="37" on="0"/>
        <pt x="275" y="20" on="1"/>
        <pt x="249" y="5" on="0"/>
        <pt x="196" y="-3" on="0"/>
        <pt x="174" y="-1" on="1"/>
        <pt x="148" y="1" on="0"/>
        <pt x="124" y="9" on="1"/>
        <pt x="104" y="16" on="0"/>
        <pt x="75" y="39" on="0"/>
        <pt x="56" y="68" on="0"/>
        <pt x="43" y="101" on="0"/>
        <pt x="40" y="117" on="1"/>
        <pt x="32" y="155" on="0"/>
        <pt x="34" y="198" on="1"/>
        <pt x="37" y="269" on="0"/>
        <pt x="63" y="388" on="0"/>
        <pt x="102" y="487" on="0"/>
        <pt x="148" y="566" on="0"/>
        <pt x="170" y="598" on="1"/>
        <pt x="203" y="646" on="0"/>
        <pt x="272" y="696" on="0"/>
        <pt x="331" y="719" on="0"/>
        <pt x="370" y="722" on="0"/>
        <pt x="373" y="722" on="1"/>
        <pt x="376" y="722" on="0"/>
        <pt x="415" y="719" on="0"/>
        <pt x="474" y="696" on="0"/>
        <pt x="544" y="646" on="0"/>
        <pt x="577" y="598" on="1"/>
        <pt x="599" y="566" on="0"/>
        <pt x="644" y="487" on="0"/>
        <pt x="683" y="388" on="0"/>
        <pt x="709" y="269" on="0"/>
        <pt x="712" y="198" on="1"/>
        <pt x="715" y="155" on="0"/>
        <pt x="707" y="117" on="1"/>
        <pt x="704" y="101" on="0"/>
        <pt x="691" y="68" on="0"/>
        <pt x="671" y="39" on="0"/>
        <pt x="642" y="16" on="0"/>
      </contour>
      <contour>
        <pt x="551" y="815" on="1"/>
        <pt x="536" y="788" on="0"/>
        <pt x="498" y="760" on="0"/>
        <pt x="458" y="750" on="0"/>
        <pt x="417" y="756" on="0"/>
        <pt x="398" y="763" on="1"/>
        <pt x="353" y="780" on="0"/>
        <pt x="306" y="819" on="1"/>
        <pt x="297" y="785" on="0"/>
        <pt x="264" y="758" on="0"/>
        <pt x="247" y="755" on="1"/>
        <pt x="228" y="751" on="0"/>
        <pt x="206" y="758" on="1"/>
        <pt x="193" y="762" on="0"/>
        <pt x="172" y="782" on="0"/>
        <pt x="160" y="808" on="0"/>
        <pt x="157" y="836" on="0"/>
        <pt x="162" y="849" on="1"/>
        <pt x="180" y="903" on="0"/>
        <pt x="214" y="929" on="1"/>
        <pt x="229" y="940" on="0"/>
        <pt x="268" y="953" on="0"/>
        <pt x="319" y="947" on="0"/>
        <pt x="383" y="918" on="0"/>
        <pt x="422" y="888" on="1"/>
        <pt x="424" y="884" on="1"/>
        <pt x="434" y="913" on="0"/>
        <pt x="480" y="946" on="0"/>
        <pt x="511" y="936" on="1"/>
        <pt x="536" y="927" on="0"/>
        <pt x="551" y="911" on="1"/>
        <pt x="564" y="897" on="0"/>
        <pt x="571" y="850" on="0"/>
      </contour>
      <contour>
        <pt x="377" y="369" on="1"/>
        <pt x="360" y="369" on="0"/>
        <pt x="335" y="343" on="0"/>
        <pt x="337" y="327" on="1"/>
        <pt x="339" y="306" on="0"/>
        <pt x="360" y="290" on="0"/>
        <pt x="377" y="290" on="1"/>
        <pt x="394" y="290" on="0"/>
        <pt x="416" y="310" on="0"/>
        <pt x="416" y="327" on="1"/>
        <pt x="416" y="343" on="0"/>
        <pt x="396" y="369" on="0"/>
      </contour>
    </TTGlyph>
    <TTGlyph name="B" xMin="37" yMin="-3" xMax="638" yMax="720">
      <contour>
        <pt x="373" y="714" on="1"/>
        <pt x="444" y="711" on="0"/>
        <pt x="531" y="668" on="0"/>
        <pt x="556" y="643" on="1"/>
        <pt x="585" y="614" on="0"/>
        <pt x="598" y="577" on="1"/>
        <pt x="613" y="522" on="0"/>
        <pt x="591" y="447" on="0"/>
        <pt x="571" y="423" on="1"/>
        <pt x="548" y="395" on="0"/>
        <pt x="514" y="377" on="1"/>
        <pt x="560" y="363" on="0"/>
        <pt x="610" y="313" on="0"/>
        <pt x="621" y="289" on="1"/>
        <pt x="634" y="261" on="0"/>
        <pt x="636" y="229" on="1"/>
        <pt x="638" y="188" on="0"/>
        <pt x="618" y="124" on="0"/>
        <pt x="582" y="77" on="0"/>
        <pt x="534" y="43" on="0"/>
        <pt x="509" y="32" on="1"/>
        <pt x="449" y="6" on="0"/>
        <pt x="372" y="0" on="1"/>
        <pt x="330" y="-3" on="0"/>
        <pt x="260" y="5" on="0"/>
        <pt x="204" y="21" on="0"/>
        <pt x="160" y="42" on="0"/>
        <pt x="144" y="54" on="1"/>
        <pt x="105" y="81" on="0"/>
        <pt x="85" y="117" on="1"/>
        <pt x="55" y="168" on="0"/>
        <pt x="37" y="286" on="0"/>
        <pt x="37" y="337" on="1"/>
        <pt x="37" y="389" on="0"/>
        <pt x="49" y="473" on="0"/>
        <pt x="57" y="502" on="1"/>
        <pt x="66" y="536" on="0"/>
        <pt x="77" y="563" on="1"/>
        <pt x="90" y="597" on="0"/>
        <pt x="130" y="646" on="0"/>
        <pt x="177" y="681" on="0"/>
        <pt x="228" y="701" on="0"/>
        <pt x="252" y="707" on="1"/>
        <pt x="309" y="720" on="0"/>
      </contour>
      <contour>
        <pt x="338" y="514" on="1"/>
        <pt x="321" y="514" on="0"/>
        <pt x="298" y="493" on="0"/>
        <pt x="298" y="476" on="1"/>
        <pt x="298" y="460" on="0"/>
        <pt x="315" y="433" on="0"/>
        <pt x="338" y="433" on="1"/>
        <pt x="358" y="433" on="0"/>
        <pt x="378" y="460" on="0"/>
        <pt x="378" y="476" on="1"/>
        <pt x="378" y="491" on="0"/>
        <pt x="358" y="514" on="0"/>
      </contour>
      <contour>
        <pt x="347" y="274" on="1"/>
        <pt x="330" y="274" on="0"/>
        <pt x="305" y="248" on="0"/>
        <pt x="307" y="232" on="1"/>
        <pt x="309" y="211" on="0"/>
        <pt x="330" y="195" on="0"/>
        <pt x="347" y="195" on="1"/>
        <pt x="364" y="195" on="0"/>
        <pt x="386" y="215" on="0"/>
        <pt x="386" y="232" on="1"/>
        <pt x="386" y="248" on="0"/>
        <pt x="366" y="274" on="0"/>
      </contour>
    </TTGlyph>
    <TTGlyph name="C" xMin="26" yMin="-9" xMax="676" yMax="718">
      <contour>
        <pt x="497" y="426" on="1"/>
        <pt x="466" y="431" on="0"/>
        <pt x="441" y="427" on="1"/>
        <pt x="420" y="423" on="0"/>
        <pt x="384" y="397" on="0"/>
        <pt x="382" y="365" on="1"/>
        <pt x="381" y="341" on="0"/>
        <pt x="393" y="323" on="1"/>
        <pt x="404" y="308" on="0"/>
        <pt x="452" y="287" on="0"/>
        <pt x="500" y="292" on="1"/>
        <pt x="545" y="297" on="0"/>
        <pt x="581" y="288" on="1"/>
        <pt x="596" y="284" on="0"/>
        <pt x="627" y="270" on="0"/>
        <pt x="652" y="245" on="0"/>
        <pt x="671" y="208" on="0"/>
        <pt x="674" y="183" on="1"/>
        <pt x="676" y="153" on="0"/>
        <pt x="669" y="125" on="1"/>
        <pt x="663" y="101" on="0"/>
        <pt x="630" y="47" on="0"/>
        <pt x="595" y="28" on="1"/>
        <pt x="558" y="8" on="0"/>
        <pt x="506" y="-1" on="1"/>
        <pt x="461" y="-9" on="0"/>
        <pt x="331" y="-5" on="0"/>
        <pt x="243" y="19" on="1"/>
        <pt x="181" y="39" on="0"/>
        <pt x="133" y="83" on="1"/>
        <pt x="112" y="102" on="0"/>
        <pt x="73" y="153" on="0"/>
        <pt x="43" y="222" on="0"/>
        <pt x="26" y="310" on="0"/>
        <pt x="28" y="364" on="1"/>
        <pt x="29" y="442" on="0"/>
        <pt x="56" y="510" on="1"/>
        <pt x="68" y="539" on="0"/>
        <pt x="105" y="598" on="0"/>
        <pt x="162" y="650" on="0"/>
        <pt x="239" y="692" on="0"/>
        <pt x="291" y="704" on="1"/>
        <pt x="342" y="716" on="0"/>
        <pt x="397" y="717" on="1"/>
        <pt x="443" y="718" on="0"/>
        <pt x="554" y="699" on="0"/>
        <pt x="606" y="668" on="1"/>
        <pt x="633" y="649" on="0"/>
        <pt x="649" y="622" on="1"/>
        <pt x="656" y="610" on="0"/>
        <pt x="666" y="581" on="0"/>
        <pt x="669" y="547" on="0"/>
        <pt x="663" y="507" on="0"/>
        <pt x="653" y="484" on="1"/>
        <pt x="642" y="461" on="0"/>
        <pt x="622" y="446" on="1"/>
        <pt x="605" y="433" on="0"/>
        <pt x="544" y="417" on="0"/>
      </contour>
    </TTGlyph>
    <TTGlyph name="Ccedilla" xMin="26" yMin="-245" xMax="676" yMax="718">
      <contour>
        <pt x="497" y="426" on="1"/>
        <pt x="466" y="431" on="0"/>
        <pt x="441" y="427" on="1"/>
        <pt x="420" y="423" on="0"/>
        <pt x="384" y="397" on="0"/>
        <pt x="382" y="365" on="1"/>
        <pt x="381" y="341" on="0"/>
        <pt x="393" y="323" on="1"/>
        <pt x="404" y="308" on="0"/>
        <pt x="452" y="287" on="0"/>
        <pt x="500" y="292" on="1"/>
        <pt x="545" y="297" on="0"/>
        <pt x="581" y="288" on="1"/>
        <pt x="596" y="284" on="0"/>
        <pt x="627" y="270" on="0"/>
        <pt x="652" y="245" on="0"/>
        <pt x="671" y="208" on="0"/>
        <pt x="674" y="183" on="1"/>
        <pt x="676" y="153" on="0"/>
        <pt x="669" y="125" on="1"/>
        <pt x="663" y="101" on="0"/>
        <pt x="630" y="47" on="0"/>
        <pt x="595" y="28" on="1"/>
        <pt x="578" y="18" on="0"/>
        <pt x="553" y="11" on="1"/>
        <pt x="532" y="4" on="0"/>
        <pt x="471" y="-6" on="0"/>
        <pt x="432" y="-7" on="1"/>
        <pt x="432" y="-41" on="1"/>
        <pt x="456" y="-41" on="0"/>
        <pt x="499" y="-55" on="0"/>
        <pt x="532" y="-80" on="0"/>
        <pt x="552" y="-117" on="0"/>
        <pt x="552" y="-141" on="1"/>
        <pt x="552" y="-167" on="0"/>
        <pt x="531" y="-206" on="0"/>
        <pt x="496" y="-232" on="0"/>
        <pt x="452" y="-245" on="0"/>
        <pt x="430" y="-245" on="1"/>
        <pt x="421" y="-245" on="0"/>
        <pt x="403" y="-244" on="0"/>
        <pt x="394" y="-244" on="1"/>
        <pt x="375" y="-244" on="0"/>
        <pt x="349" y="-218" on="0"/>
        <pt x="349" y="-199" on="1"/>
        <pt x="349" y="-176" on="0"/>
        <pt x="377" y="-163" on="0"/>
        <pt x="394" y="-163" on="1"/>
        <pt x="399" y="-163" on="0"/>
        <pt x="412" y="-164" on="0"/>
        <pt x="419" y="-164" on="1"/>
        <pt x="434" y="-164" on="0"/>
        <pt x="459" y="-155" on="0"/>
        <pt x="459" y="-138" on="1"/>
        <pt x="459" y="-122" on="0"/>
        <pt x="445" y="-116" on="1"/>
        <pt x="430" y="-111" on="0"/>
        <pt x="407" y="-111" on="1"/>
        <pt x="384" y="-111" on="0"/>
        <pt x="367" y="-107" on="0"/>
        <pt x="360" y="-103" on="1"/>
        <pt x="342" y="-94" on="0"/>
        <pt x="342" y="-72" on="1"/>
        <pt x="342" y="-1" on="1"/>
        <pt x="319" y="1" on="0"/>
        <pt x="270" y="11" on="0"/>
        <pt x="243" y="19" on="1"/>
        <pt x="181" y="39" on="0"/>
        <pt x="133" y="83" on="1"/>
        <pt x="112" y="102" on="0"/>
        <pt x="73" y="153" on="0"/>
        <pt x="43" y="222" on="0"/>
        <pt x="26" y="310" on="0"/>
        <pt x="28" y="364" on="1"/>
        <pt x="29" y="442" on="0"/>
        <pt x="56" y="510" on="1"/>
        <pt x="68" y="539" on="0"/>
        <pt x="105" y="598" on="0"/>
        <pt x="162" y="650" on="0"/>
        <pt x="239" y="692" on="0"/>
        <pt x="291" y="704" on="1"/>
        <pt x="342" y="716" on="0"/>
        <pt x="397" y="717" on="1"/>
        <pt x="443" y="718" on="0"/>
        <pt x="554" y="699" on="0"/>
        <pt x="606" y="668" on="1"/>
        <pt x="633" y="649" on="0"/>
        <pt x="649" y="622" on="1"/>
        <pt x="656" y="610" on="0"/>
        <pt x="666" y="581" on="0"/>
        <pt x="669" y="547" on="0"/>
        <pt x="663" y="507" on="0"/>
        <pt x="653" y="484" on="1"/>
        <pt x="642" y="461" on="0"/>
        <pt x="622" y="446" on="1"/>
        <pt x="605" y="433" on="0"/>
        <pt x="544" y="417" on="0"/>
      </contour>
    </TTGlyph>
    <TTGlyph name="D" xMin="40" yMin="-13" xMax="650" yMax="710">
      <contour>
        <pt x="624" y="180" on="1"/>
        <pt x="612" y="140" on="0"/>
        <pt x="570" y="81" on="0"/>
        <pt x="518" y="39" on="0"/>
        <pt x="459" y="13" on="0"/>
        <pt x="430" y="5" on="1"/>
        <pt x="361" y="-13" on="0"/>
        <pt x="283" y="-11" on="1"/>
        <pt x="223" y="-12" on="0"/>
        <pt x="145" y="15" on="0"/>
        <pt x="121" y="32" on="1"/>
        <pt x="93" y="51" on="0"/>
        <pt x="76" y="75" on="1"/>
        <pt x="61" y="100" on="0"/>
        <pt x="46" y="162" on="0"/>
        <pt x="40" y="225" on="0"/>
        <pt x="40" y="286" on="0"/>
        <pt x="40" y="312" on="1"/>
        <pt x="40" y="365" on="0"/>
        <pt x="46" y="454" on="0"/>
        <pt x="51" y="487" on="1"/>
        <pt x="55" y="526" on="0"/>
        <pt x="62" y="557" on="1"/>
        <pt x="67" y="588" on="0"/>
        <pt x="91" y="634" on="0"/>
        <pt x="122" y="667" on="0"/>
        <pt x="157" y="689" on="0"/>
        <pt x="175" y="695" on="1"/>
        <pt x="216" y="710" on="0"/>
        <pt x="266" y="708" on="1"/>
        <pt x="314" y="708" on="0"/>
        <pt x="394" y="695" on="0"/>
        <pt x="458" y="674" on="0"/>
        <pt x="509" y="646" on="0"/>
        <pt x="529" y="632" on="1"/>
        <pt x="575" y="598" on="0"/>
        <pt x="601" y="555" on="1"/>
        <pt x="626" y="512" on="0"/>
        <pt x="638" y="456" on="1"/>
        <pt x="643" y="432" on="0"/>
        <pt x="650" y="373" on="0"/>
        <pt x="648" y="303" on="0"/>
        <pt x="637" y="224" on="0"/>
      </contour>
      <contour>
        <pt x="347" y="384" on="1"/>
        <pt x="330" y="384" on="0"/>
        <pt x="307" y="367" on="0"/>
        <pt x="307" y="342" on="1"/>
        <pt x="307" y="318" on="0"/>
        <pt x="330" y="305" on="0"/>
        <pt x="347" y="305" on="1"/>
        <pt x="364" y="305" on="0"/>
        <pt x="386" y="325" on="0"/>
        <pt x="386" y="342" on="1"/>
        <pt x="386" y="358" on="0"/>
        <pt x="366" y="384" on="0"/>
      </contour>
    </TTGlyph>
    <TTGlyph name="E" xMin="35" yMin="-10" xMax="625" yMax="714">
      <contour>
        <pt x="343" y="711" on="1"/>
        <pt x="399" y="709" on="0"/>
        <pt x="482" y="697" on="0"/>
        <pt x="543" y="678" on="0"/>
        <pt x="583" y="656" on="0"/>
        <pt x="595" y="644" on="1"/>
        <pt x="624" y="617" on="0"/>
        <pt x="623" y="584" on="1"/>
        <pt x="623" y="554" on="0"/>
        <pt x="601" y="511" on="0"/>
        <pt x="565" y="481" on="0"/>
        <pt x="517" y="463" on="0"/>
        <pt x="492" y="458" on="1"/>
        <pt x="433" y="447" on="0"/>
        <pt x="358" y="451" on="1"/>
        <pt x="415" y="441" on="0"/>
        <pt x="473" y="406" on="0"/>
        <pt x="484" y="389" on="1"/>
        <pt x="497" y="369" on="0"/>
        <pt x="495" y="345" on="1"/>
        <pt x="495" y="316" on="0"/>
        <pt x="466" y="277" on="0"/>
        <pt x="428" y="253" on="0"/>
        <pt x="394" y="242" on="0"/>
        <pt x="389" y="241" on="1"/>
        <pt x="435" y="241" on="0"/>
        <pt x="505" y="231" on="0"/>
        <pt x="556" y="213" on="0"/>
        <pt x="589" y="190" on="0"/>
        <pt x="600" y="178" on="1"/>
        <pt x="625" y="150" on="0"/>
        <pt x="625" y="114" on="1"/>
        <pt x="623" y="90" on="0"/>
        <pt x="599" y="55" on="0"/>
        <pt x="562" y="29" on="0"/>
        <pt x="514" y="12" on="0"/>
        <pt x="490" y="6" on="1"/>
        <pt x="433" y="-7" on="0"/>
        <pt x="360" y="-8" on="1"/>
        <pt x="305" y="-10" on="0"/>
        <pt x="221" y="2" on="0"/>
        <pt x="157" y="22" on="0"/>
        <pt x="111" y="48" on="0"/>
        <pt x="96" y="62" on="1"/>
        <pt x="60" y="95" on="0"/>
        <pt x="51" y="137" on="1"/>
        <pt x="38" y="203" on="0"/>
        <pt x="35" y="348" on="0"/>
        <pt x="39" y="409" on="1"/>
        <pt x="43" y="480" on="0"/>
        <pt x="53" y="549" on="1"/>
        <pt x="59" y="583" on="0"/>
        <pt x="90" y="634" on="0"/>
        <pt x="133" y="670" on="0"/>
        <pt x="184" y="693" on="0"/>
        <pt x="210" y="699" on="1"/>
        <pt x="270" y="714" on="0"/>
      </contour>
    </TTGlyph>
    <TTGlyph name="Eacute" xMin="35" yMin="-10" xMax="625" yMax="949">
      <contour>
        <pt x="343" y="711" on="1"/>
        <pt x="399" y="709" on="0"/>
        <pt x="482" y="697" on="0"/>
        <pt x="543" y="678" on="0"/>
        <pt x="583" y="656" on="0"/>
        <pt x="595" y="644" on="1"/>
        <pt x="624" y="617" on="0"/>
        <pt x="623" y="584" on="1"/>
        <pt x="623" y="554" on="0"/>
        <pt x="601" y="511" on="0"/>
        <pt x="565" y="481" on="0"/>
        <pt x="517" y="463" on="0"/>
        <pt x="492" y="458" on="1"/>
        <pt x="433" y="447" on="0"/>
        <pt x="358" y="451" on="1"/>
        <pt x="415" y="441" on="0"/>
        <pt x="473" y="406" on="0"/>
        <pt x="484" y="389" on="1"/>
        <pt x="497" y="369" on="0"/>
        <pt x="495" y="345" on="1"/>
        <pt x="495" y="316" on="0"/>
        <pt x="466" y="277" on="0"/>
        <pt x="428" y="253" on="0"/>
        <pt x="394" y="242" on="0"/>
        <pt x="389" y="241" on="1"/>
        <pt x="435" y="241" on="0"/>
        <pt x="505" y="231" on="0"/>
        <pt x="556" y="213" on="0"/>
        <pt x="589" y="190" on="0"/>
        <pt x="600" y="178" on="1"/>
        <pt x="625" y="150" on="0"/>
        <pt x="625" y="114" on="1"/>
        <pt x="623" y="90" on="0"/>
        <pt x="599" y="55" on="0"/>
        <pt x="562" y="29" on="0"/>
        <pt x="514" y="12" on="0"/>
        <pt x="490" y="6" on="1"/>
        <pt x="433" y="-7" on="0"/>
        <pt x="360" y="-8" on="1"/>
        <pt x="305" y="-10" on="0"/>
        <pt x="221" y="2" on="0"/>
        <pt x="157" y="22" on="0"/>
        <pt x="111" y="48" on="0"/>
        <pt x="96" y="62" on="1"/>
        <pt x="60" y="95" on="0"/>
        <pt x="51" y="137" on="1"/>
        <pt x="38" y="203" on="0"/>
        <pt x="35" y="348" on="0"/>
        <pt x="39" y="409" on="1"/>
        <pt x="43" y="480" on="0"/>
        <pt x="53" y="549" on="1"/>
        <pt x="59" y="583" on="0"/>
        <pt x="90" y="634" on="0"/>
        <pt x="133" y="670" on="0"/>
        <pt x="184" y="693" on="0"/>
        <pt x="210" y="699" on="1"/>
        <pt x="270" y="714" on="0"/>
      </contour>
      <contour>
        <pt x="232" y="852" on="1"/>
        <pt x="240" y="862" on="0"/>
        <pt x="271" y="889" on="0"/>
        <pt x="307" y="914" on="0"/>
        <pt x="346" y="935" on="0"/>
        <pt x="362" y="940" on="1"/>
        <pt x="384" y="947" on="0"/>
        <pt x="417" y="949" on="0"/>
        <pt x="440" y="942" on="0"/>
        <pt x="457" y="929" on="0"/>
        <pt x="465" y="922" on="1"/>
        <pt x="473" y="914" on="0"/>
        <pt x="487" y="888" on="0"/>
        <pt x="490" y="858" on="0"/>
        <pt x="478" y="825" on="0"/>
        <pt x="459" y="809" on="1"/>
        <pt x="438" y="790" on="0"/>
        <pt x="382" y="767" on="0"/>
        <pt x="356" y="759" on="1"/>
        <pt x="326" y="750" on="0"/>
        <pt x="296" y="745" on="1"/>
        <pt x="280" y="741" on="0"/>
        <pt x="265" y="743" on="1"/>
        <pt x="252" y="745" on="0"/>
        <pt x="226" y="757" on="0"/>
        <pt x="218" y="774" on="1"/>
        <pt x="210" y="789" on="0"/>
        <pt x="212" y="817" on="0"/>
        <pt x="217" y="828" on="1"/>
        <pt x="222" y="840" on="0"/>
      </contour>
    </TTGlyph>
    <TTGlyph name="Ecircumflex" xMin="35" yMin="-10" xMax="625" yMax="928">
      <contour>
        <pt x="343" y="711" on="1"/>
        <pt x="399" y="709" on="0"/>
        <pt x="482" y="697" on="0"/>
        <pt x="543" y="678" on="0"/>
        <pt x="583" y="656" on="0"/>
        <pt x="595" y="644" on="1"/>
        <pt x="624" y="617" on="0"/>
        <pt x="623" y="584" on="1"/>
        <pt x="623" y="554" on="0"/>
        <pt x="601" y="511" on="0"/>
        <pt x="565" y="481" on="0"/>
        <pt x="517" y="463" on="0"/>
        <pt x="492" y="458" on="1"/>
        <pt x="433" y="447" on="0"/>
        <pt x="358" y="451" on="1"/>
        <pt x="415" y="441" on="0"/>
        <pt x="473" y="406" on="0"/>
        <pt x="484" y="389" on="1"/>
        <pt x="497" y="369" on="0"/>
        <pt x="495" y="345" on="1"/>
        <pt x="495" y="316" on="0"/>
        <pt x="466" y="277" on="0"/>
        <pt x="428" y="253" on="0"/>
        <pt x="394" y="242" on="0"/>
        <pt x="389" y="241" on="1"/>
        <pt x="435" y="241" on="0"/>
        <pt x="505" y="231" on="0"/>
        <pt x="556" y="213" on="0"/>
        <pt x="589" y="190" on="0"/>
        <pt x="600" y="178" on="1"/>
        <pt x="625" y="150" on="0"/>
        <pt x="625" y="114" on="1"/>
        <pt x="623" y="90" on="0"/>
        <pt x="599" y="55" on="0"/>
        <pt x="562" y="29" on="0"/>
        <pt x="514" y="12" on="0"/>
        <pt x="490" y="6" on="1"/>
        <pt x="433" y="-7" on="0"/>
        <pt x="360" y="-8" on="1"/>
        <pt x="305" y="-10" on="0"/>
        <pt x="221" y="2" on="0"/>
        <pt x="157" y="22" on="0"/>
        <pt x="111" y="48" on="0"/>
        <pt x="96" y="62" on="1"/>
        <pt x="60" y="95" on="0"/>
        <pt x="51" y="137" on="1"/>
        <pt x="38" y="203" on="0"/>
        <pt x="35" y="348" on="0"/>
        <pt x="39" y="409" on="1"/>
        <pt x="43" y="480" on="0"/>
        <pt x="53" y="549" on="1"/>
        <pt x="59" y="583" on="0"/>
        <pt x="90" y="634" on="0"/>
        <pt x="133" y="670" on="0"/>
        <pt x="184" y="693" on="0"/>
        <pt x="210" y="699" on="1"/>
        <pt x="270" y="714" on="0"/>
      </contour>
      <contour>
        <pt x="191" y="834" on="1"/>
        <pt x="192" y="835" on="0"/>
        <pt x="218" y="865" on="0"/>
        <pt x="260" y="899" on="0"/>
        <pt x="314" y="928" on="0"/>
        <pt x="343" y="928" on="1"/>
        <pt x="371" y="928" on="0"/>
        <pt x="423" y="899" on="0"/>
        <pt x="465" y="863" on="0"/>
        <pt x="490" y="832" on="0"/>
        <pt x="491" y="831" on="1"/>
        <pt x="505" y="812" on="0"/>
        <pt x="497" y="766" on="0"/>
        <pt x="477" y="752" on="1"/>
        <pt x="457" y="738" on="0"/>
        <pt x="411" y="746" on="0"/>
        <pt x="397" y="766" on="1"/>
        <pt x="395" y="767" on="0"/>
        <pt x="366" y="801" on="0"/>
        <pt x="343" y="814" on="1"/>
        <pt x="329" y="805" on="0"/>
        <pt x="305" y="787" on="0"/>
        <pt x="297" y="779" on="1"/>
        <pt x="287" y="770" on="0"/>
        <pt x="280" y="763" on="1"/>
        <pt x="269" y="751" on="0"/>
        <pt x="257" y="745" on="1"/>
        <pt x="246" y="740" on="0"/>
        <pt x="217" y="740" on="0"/>
        <pt x="200" y="754" on="1"/>
        <pt x="181" y="769" on="0"/>
        <pt x="176" y="816" on="0"/>
      </contour>
    </TTGlyph>
    <TTGlyph name="Edieresis" xMin="35" yMin="-10" xMax="625" yMax="921">
      <contour>
        <pt x="343" y="711" on="1"/>
        <pt x="399" y="709" on="0"/>
        <pt x="482" y="697" on="0"/>
        <pt x="543" y="678" on="0"/>
        <pt x="583" y="656" on="0"/>
        <pt x="595" y="644" on="1"/>
        <pt x="624" y="617" on="0"/>
        <pt x="623" y="584" on="1"/>
        <pt x="623" y="554" on="0"/>
        <pt x="601" y="511" on="0"/>
        <pt x="565" y="481" on="0"/>
        <pt x="517" y="463" on="0"/>
        <pt x="492" y="458" on="1"/>
        <pt x="433" y="447" on="0"/>
        <pt x="358" y="451" on="1"/>
        <pt x="415" y="441" on="0"/>
        <pt x="473" y="406" on="0"/>
        <pt x="484" y="389" on="1"/>
        <pt x="497" y="369" on="0"/>
        <pt x="495" y="345" on="1"/>
        <pt x="495" y="316" on="0"/>
        <pt x="466" y="277" on="0"/>
        <pt x="428" y="253" on="0"/>
        <pt x="394" y="242" on="0"/>
        <pt x="389" y="241" on="1"/>
        <pt x="435" y="241" on="0"/>
        <pt x="505" y="231" on="0"/>
        <pt x="556" y="213" on="0"/>
        <pt x="589" y="190" on="0"/>
        <pt x="600" y="178" on="1"/>
        <pt x="625" y="150" on="0"/>
        <pt x="625" y="114" on="1"/>
        <pt x="623" y="90" on="0"/>
        <pt x="599" y="55" on="0"/>
        <pt x="562" y="29" on="0"/>
        <pt x="514" y="12" on="0"/>
        <pt x="490" y="6" on="1"/>
        <pt x="433" y="-7" on="0"/>
        <pt x="360" y="-8" on="1"/>
        <pt x="305" y="-10" on="0"/>
        <pt x="221" y="2" on="0"/>
        <pt x="157" y="22" on="0"/>
        <pt x="111" y="48" on="0"/>
        <pt x="96" y="62" on="1"/>
        <pt x="60" y="95" on="0"/>
        <pt x="51" y="137" on="1"/>
        <pt x="38" y="203" on="0"/>
        <pt x="35" y="348" on="0"/>
        <pt x="39" y="409" on="1"/>
        <pt x="43" y="480" on="0"/>
        <pt x="53" y="549" on="1"/>
        <pt x="59" y="583" on="0"/>
        <pt x="90" y="634" on="0"/>
        <pt x="133" y="670" on="0"/>
        <pt x="184" y="693" on="0"/>
        <pt x="210" y="699" on="1"/>
        <pt x="270" y="714" on="0"/>
      </contour>
      <contour>
        <pt x="307" y="844" on="1"/>
        <pt x="307" y="812" on="0"/>
        <pt x="268" y="766" on="0"/>
        <pt x="230" y="766" on="1"/>
        <pt x="192" y="766" on="0"/>
        <pt x="153" y="812" on="0"/>
        <pt x="153" y="844" on="1"/>
        <pt x="153" y="876" on="0"/>
        <pt x="192" y="921" on="0"/>
        <pt x="230" y="921" on="1"/>
        <pt x="268" y="921" on="0"/>
        <pt x="307" y="876" on="0"/>
      </contour>
      <contour>
        <pt x="490" y="844" on="1"/>
        <pt x="490" y="812" on="0"/>
        <pt x="451" y="766" on="0"/>
        <pt x="413" y="766" on="1"/>
        <pt x="375" y="766" on="0"/>
        <pt x="336" y="812" on="0"/>
        <pt x="336" y="844" on="1"/>
        <pt x="336" y="876" on="0"/>
        <pt x="375" y="921" on="0"/>
        <pt x="413" y="921" on="1"/>
        <pt x="451" y="921" on="0"/>
        <pt x="490" y="876" on="0"/>
      </contour>
    </TTGlyph>
    <TTGlyph name="Egrave" xMin="35" yMin="-10" xMax="625" yMax="956">
      <contour>
        <pt x="343" y="711" on="1"/>
        <pt x="399" y="709" on="0"/>
        <pt x="482" y="697" on="0"/>
        <pt x="543" y="678" on="0"/>
        <pt x="583" y="656" on="0"/>
        <pt x="595" y="644" on="1"/>
        <pt x="624" y="617" on="0"/>
        <pt x="623" y="584" on="1"/>
        <pt x="623" y="554" on="0"/>
        <pt x="601" y="511" on="0"/>
        <pt x="565" y="481" on="0"/>
        <pt x="517" y="463" on="0"/>
        <pt x="492" y="458" on="1"/>
        <pt x="433" y="447" on="0"/>
        <pt x="358" y="451" on="1"/>
        <pt x="415" y="441" on="0"/>
        <pt x="473" y="406" on="0"/>
        <pt x="484" y="389" on="1"/>
        <pt x="497" y="369" on="0"/>
        <pt x="495" y="345" on="1"/>
        <pt x="495" y="316" on="0"/>
        <pt x="466" y="277" on="0"/>
        <pt x="428" y="253" on="0"/>
        <pt x="394" y="242" on="0"/>
        <pt x="389" y="241" on="1"/>
        <pt x="435" y="241" on="0"/>
        <pt x="505" y="231" on="0"/>
        <pt x="556" y="213" on="0"/>
        <pt x="589" y="190" on="0"/>
        <pt x="600" y="178" on="1"/>
        <pt x="625" y="150" on="0"/>
        <pt x="625" y="114" on="1"/>
        <pt x="623" y="90" on="0"/>
        <pt x="599" y="55" on="0"/>
        <pt x="562" y="29" on="0"/>
        <pt x="514" y="12" on="0"/>
        <pt x="490" y="6" on="1"/>
        <pt x="433" y="-7" on="0"/>
        <pt x="360" y="-8" on="1"/>
        <pt x="305" y="-10" on="0"/>
        <pt x="221" y="2" on="0"/>
        <pt x="157" y="22" on="0"/>
        <pt x="111" y="48" on="0"/>
        <pt x="96" y="62" on="1"/>
        <pt x="60" y="95" on="0"/>
        <pt x="51" y="137" on="1"/>
        <pt x="38" y="203" on="0"/>
        <pt x="35" y="348" on="0"/>
        <pt x="39" y="409" on="1"/>
        <pt x="43" y="480" on="0"/>
        <pt x="53" y="549" on="1"/>
        <pt x="59" y="583" on="0"/>
        <pt x="90" y="634" on="0"/>
        <pt x="133" y="670" on="0"/>
        <pt x="184" y="693" on="0"/>
        <pt x="210" y="699" on="1"/>
        <pt x="270" y="714" on="0"/>
      </contour>
      <contour>
        <pt x="302" y="947" on="1"/>
        <pt x="318" y="942" on="0"/>
        <pt x="357" y="921" on="0"/>
        <pt x="393" y="896" on="0"/>
        <pt x="424" y="869" on="0"/>
        <pt x="432" y="859" on="1"/>
        <pt x="441" y="847" on="0"/>
        <pt x="446" y="835" on="1"/>
        <pt x="451" y="824" on="0"/>
        <pt x="454" y="796" on="0"/>
        <pt x="446" y="781" on="1"/>
        <pt x="438" y="764" on="0"/>
        <pt x="412" y="752" on="0"/>
        <pt x="399" y="750" on="1"/>
        <pt x="384" y="748" on="0"/>
        <pt x="368" y="752" on="1"/>
        <pt x="337" y="757" on="0"/>
        <pt x="307" y="766" on="1"/>
        <pt x="281" y="774" on="0"/>
        <pt x="226" y="797" on="0"/>
        <pt x="205" y="816" on="1"/>
        <pt x="186" y="832" on="0"/>
        <pt x="174" y="865" on="0"/>
        <pt x="177" y="895" on="0"/>
        <pt x="191" y="921" on="0"/>
        <pt x="199" y="929" on="1"/>
        <pt x="206" y="936" on="0"/>
        <pt x="224" y="949" on="0"/>
        <pt x="247" y="956" on="0"/>
        <pt x="279" y="954" on="0"/>
      </contour>
    </TTGlyph>
    <TTGlyph name="Eth" xMin="10" yMin="-13" xMax="779" yMax="710">
      <contour>
        <pt x="753" y="180" on="1"/>
        <pt x="741" y="140" on="0"/>
        <pt x="699" y="81" on="0"/>
        <pt x="647" y="39" on="0"/>
        <pt x="588" y="13" on="0"/>
        <pt x="559" y="5" on="1"/>
        <pt x="490" y="-13" on="0"/>
        <pt x="412" y="-11" on="1"/>
        <pt x="352" y="-12" on="0"/>
        <pt x="274" y="15" on="0"/>
        <pt x="250" y="32" on="1"/>
        <pt x="222" y="51" on="0"/>
        <pt x="205" y="75" on="1"/>
        <pt x="186" y="107" on="0"/>
        <pt x="172" y="186" on="0"/>
        <pt x="170" y="226" on="1"/>
        <pt x="141" y="228" on="0"/>
        <pt x="84" y="240" on="0"/>
        <pt x="38" y="267" on="0"/>
        <pt x="10" y="312" on="0"/>
        <pt x="10" y="347" on="1"/>
        <pt x="10" y="380" on="0"/>
        <pt x="40" y="424" on="0"/>
        <pt x="87" y="450" on="0"/>
        <pt x="147" y="463" on="0"/>
        <pt x="177" y="465" on="1"/>
        <pt x="182" y="509" on="0"/>
        <pt x="186" y="532" on="1"/>
        <pt x="189" y="546" on="0"/>
        <pt x="191" y="557" on="1"/>
        <pt x="196" y="588" on="0"/>
        <pt x="220" y="634" on="0"/>
        <pt x="251" y="667" on="0"/>
        <pt x="286" y="689" on="0"/>
        <pt x="304" y="695" on="1"/>
        <pt x="345" y="710" on="0"/>
        <pt x="395" y="708" on="1"/>
        <pt x="443" y="708" on="0"/>
        <pt x="523" y="695" on="0"/>
        <pt x="587" y="674" on="0"/>
        <pt x="638" y="646" on="0"/>
        <pt x="658" y="632" on="1"/>
        <pt x="704" y="598" on="0"/>
        <pt x="730" y="555" on="1"/>
        <pt x="755" y="512" on="0"/>
        <pt x="767" y="456" on="1"/>
        <pt x="772" y="432" on="0"/>
        <pt x="779" y="373" on="0"/>
        <pt x="777" y="303" on="0"/>
        <pt x="766" y="224" on="0"/>
      </contour>
      <contour>
        <pt x="476" y="384" on="1"/>
        <pt x="459" y="384" on="0"/>
        <pt x="436" y="367" on="0"/>
        <pt x="436" y="342" on="1"/>
        <pt x="436" y="318" on="0"/>
        <pt x="459" y="305" on="0"/>
        <pt x="476" y="305" on="1"/>
        <pt x="493" y="305" on="0"/>
        <pt x="515" y="325" on="0"/>
        <pt x="515" y="342" on="1"/>
        <pt x="515" y="358" on="0"/>
        <pt x="495" y="384" on="0"/>
      </contour>
    </TTGlyph>
    <TTGlyph name="Euro" xMin="22" yMin="-11" xMax="683" yMax="712">
      <contour>
        <pt x="138" y="504" on="1"/>
        <pt x="153" y="562" on="0"/>
        <pt x="190" y="608" on="1"/>
        <pt x="206" y="627" on="0"/>
        <pt x="250" y="665" on="0"/>
        <pt x="309" y="694" on="0"/>
        <pt x="385" y="712" on="0"/>
        <pt x="432" y="712" on="1"/>
        <pt x="508" y="708" on="0"/>
        <pt x="565" y="690" on="1"/>
        <pt x="589" y="682" on="0"/>
        <pt x="634" y="659" on="0"/>
        <pt x="667" y="626" on="0"/>
        <pt x="683" y="581" on="0"/>
        <pt x="678" y="553" on="1"/>
        <pt x="674" y="524" on="0"/>
        <pt x="658" y="505" on="1"/>
        <pt x="644" y="488" on="0"/>
        <pt x="592" y="468" on="0"/>
        <pt x="547" y="481" on="1"/>
        <pt x="505" y="492" on="0"/>
        <pt x="462" y="489" on="0"/>
        <pt x="452" y="482" on="1"/>
        <pt x="441" y="474" on="0"/>
        <pt x="439" y="460" on="1"/>
        <pt x="471" y="459" on="0"/>
        <pt x="496" y="453" on="1"/>
        <pt x="517" y="448" on="0"/>
        <pt x="550" y="424" on="0"/>
        <pt x="547" y="402" on="1"/>
        <pt x="544" y="380" on="0"/>
        <pt x="503" y="364" on="0"/>
        <pt x="480" y="362" on="1"/>
        <pt x="453" y="360" on="0"/>
        <pt x="418" y="366" on="1"/>
        <pt x="416" y="361" on="0"/>
        <pt x="415" y="357" on="1"/>
        <pt x="414" y="353" on="0"/>
        <pt x="415" y="342" on="0"/>
        <pt x="418" y="337" on="1"/>
        <pt x="453" y="341" on="0"/>
        <pt x="480" y="338" on="1"/>
        <pt x="503" y="336" on="0"/>
        <pt x="544" y="320" on="0"/>
        <pt x="547" y="301" on="1"/>
        <pt x="551" y="277" on="0"/>
        <pt x="518" y="251" on="0"/>
        <pt x="497" y="245" on="1"/>
        <pt x="472" y="238" on="0"/>
        <pt x="439" y="237" on="1"/>
        <pt x="442" y="223" on="0"/>
        <pt x="452" y="215" on="1"/>
        <pt x="460" y="208" on="0"/>
        <pt x="492" y="204" on="0"/>
        <pt x="519" y="215" on="1"/>
        <pt x="532" y="220" on="0"/>
        <pt x="572" y="231" on="0"/>
        <pt x="614" y="231" on="0"/>
        <pt x="652" y="214" on="0"/>
        <pt x="663" y="193" on="1"/>
        <pt x="679" y="160" on="0"/>
        <pt x="667" y="90" on="0"/>
        <pt x="615" y="32" on="0"/>
        <pt x="526" y="-7" on="0"/>
        <pt x="467" y="-9" on="1"/>
        <pt x="404" y="-11" on="0"/>
        <pt x="296" y="7" on="0"/>
        <pt x="211" y="56" on="0"/>
        <pt x="152" y="139" on="0"/>
        <pt x="137" y="201" on="1"/>
        <pt x="105" y="194" on="0"/>
        <pt x="79" y="198" on="1"/>
        <pt x="57" y="201" on="0"/>
        <pt x="22" y="230" on="0"/>
        <pt x="22" y="265" on="1"/>
        <pt x="22" y="297" on="0"/>
        <pt x="56" y="326" on="0"/>
        <pt x="76" y="330" on="1"/>
        <pt x="100" y="334" on="0"/>
        <pt x="130" y="330" on="1"/>
        <pt x="128" y="338" on="0"/>
        <pt x="127" y="347" on="1"/>
        <pt x="126" y="355" on="0"/>
        <pt x="127" y="373" on="0"/>
        <pt x="130" y="381" on="1"/>
        <pt x="100" y="377" on="0"/>
        <pt x="76" y="381" on="1"/>
        <pt x="56" y="385" on="0"/>
        <pt x="22" y="413" on="0"/>
        <pt x="22" y="445" on="1"/>
        <pt x="22" y="477" on="0"/>
        <pt x="58" y="504" on="0"/>
        <pt x="80" y="507" on="1"/>
        <pt x="106" y="511" on="0"/>
      </contour>
    </TTGlyph>
    <TTGlyph name="F" xMin="25" yMin="-6" xMax="609" yMax="734">
      <contour>
        <pt x="354" y="257" on="1"/>
        <pt x="365" y="202" on="0"/>
        <pt x="364" y="122" on="0"/>
        <pt x="347" y="65" on="0"/>
        <pt x="318" y="29" on="0"/>
        <pt x="302" y="19" on="1"/>
        <pt x="263" y="-6" on="0"/>
        <pt x="207" y="0" on="1"/>
        <pt x="179" y="0" on="0"/>
        <pt x="135" y="15" on="0"/>
        <pt x="101" y="41" on="0"/>
        <pt x="77" y="74" on="0"/>
        <pt x="68" y="91" on="1"/>
        <pt x="48" y="131" on="0"/>
        <pt x="40" y="183" on="1"/>
        <pt x="27" y="249" on="0"/>
        <pt x="25" y="385" on="0"/>
        <pt x="28" y="440" on="1"/>
        <pt x="32" y="504" on="0"/>
        <pt x="40" y="565" on="1"/>
        <pt x="46" y="601" on="0"/>
        <pt x="81" y="653" on="0"/>
        <pt x="129" y="690" on="0"/>
        <pt x="185" y="713" on="0"/>
        <pt x="214" y="719" on="1"/>
        <pt x="281" y="734" on="0"/>
        <pt x="361" y="730" on="1"/>
        <pt x="409" y="727" on="0"/>
        <pt x="482" y="713" on="0"/>
        <pt x="534" y="694" on="0"/>
        <pt x="570" y="671" on="0"/>
        <pt x="581" y="659" on="1"/>
        <pt x="607" y="632" on="0"/>
        <pt x="608" y="598" on="1"/>
        <pt x="609" y="571" on="0"/>
        <pt x="590" y="530" on="0"/>
        <pt x="558" y="502" on="0"/>
        <pt x="516" y="483" on="0"/>
        <pt x="494" y="478" on="1"/>
        <pt x="442" y="466" on="0"/>
        <pt x="374" y="468" on="1"/>
        <pt x="424" y="460" on="0"/>
        <pt x="475" y="429" on="0"/>
        <pt x="486" y="412" on="1"/>
        <pt x="499" y="393" on="0"/>
        <pt x="499" y="371" on="1"/>
        <pt x="499" y="329" on="0"/>
        <pt x="453" y="283" on="0"/>
        <pt x="426" y="272" on="1"/>
        <pt x="394" y="259" on="0"/>
      </contour>
    </TTGlyph>
    <TTGlyph name="G" xMin="20" yMin="-43" xMax="734" yMax="723">
      <contour>
        <pt x="457" y="279" on="1"/>
        <pt x="434" y="289" on="0"/>
        <pt x="417" y="315" on="0"/>
        <pt x="415" y="326" on="1"/>
        <pt x="413" y="339" on="0"/>
        <pt x="418" y="353" on="1"/>
        <pt x="425" y="371" on="0"/>
        <pt x="476" y="388" on="0"/>
        <pt x="542" y="394" on="0"/>
        <pt x="613" y="390" on="0"/>
        <pt x="639" y="386" on="1"/>
        <pt x="656" y="383" on="0"/>
        <pt x="680" y="372" on="0"/>
        <pt x="688" y="367" on="1"/>
        <pt x="697" y="361" on="0"/>
        <pt x="703" y="353" on="1"/>
        <pt x="712" y="341" on="0"/>
        <pt x="724" y="303" on="0"/>
        <pt x="731" y="258" on="0"/>
        <pt x="734" y="209" on="0"/>
        <pt x="734" y="185" on="1"/>
        <pt x="734" y="129" on="0"/>
        <pt x="728" y="65" on="1"/>
        <pt x="725" y="24" on="0"/>
        <pt x="692" y="-20" on="0"/>
        <pt x="673" y="-30" on="1"/>
        <pt x="651" y="-42" on="0"/>
        <pt x="624" y="-43" on="1"/>
        <pt x="602" y="-43" on="0"/>
        <pt x="560" y="-34" on="0"/>
        <pt x="526" y="-11" on="0"/>
        <pt x="506" y="28" on="0"/>
        <pt x="506" y="57" on="1"/>
        <pt x="495" y="43" on="0"/>
        <pt x="454" y="15" on="0"/>
        <pt x="396" y="-4" on="0"/>
        <pt x="320" y="-9" on="0"/>
        <pt x="273" y="-1" on="1"/>
        <pt x="201" y="13" on="0"/>
        <pt x="146" y="56" on="1"/>
        <pt x="122" y="74" on="0"/>
        <pt x="77" y="126" on="0"/>
        <pt x="42" y="199" on="0"/>
        <pt x="20" y="293" on="0"/>
        <pt x="20" y="353" on="1"/>
        <pt x="21" y="429" on="0"/>
        <pt x="47" y="498" on="1"/>
        <pt x="58" y="527" on="0"/>
        <pt x="94" y="588" on="0"/>
        <pt x="148" y="644" on="0"/>
        <pt x="223" y="691" on="0"/>
        <pt x="273" y="708" on="1"/>
        <pt x="333" y="723" on="0"/>
        <pt x="393" y="721" on="1"/>
        <pt x="418" y="720" on="0"/>
        <pt x="475" y="711" on="0"/>
        <pt x="532" y="690" on="0"/>
        <pt x="588" y="655" on="0"/>
        <pt x="613" y="629" on="1"/>
        <pt x="629" y="610" on="0"/>
        <pt x="638" y="586" on="1"/>
        <pt x="646" y="566" on="0"/>
        <pt x="647" y="510" on="0"/>
        <pt x="632" y="477" on="1"/>
        <pt x="620" y="454" on="0"/>
        <pt x="597" y="442" on="1"/>
        <pt x="577" y="431" on="0"/>
        <pt x="510" y="427" on="0"/>
        <pt x="457" y="447" on="1"/>
        <pt x="420" y="457" on="0"/>
        <pt x="392" y="453" on="1"/>
        <pt x="367" y="449" on="0"/>
        <pt x="327" y="412" on="0"/>
        <pt x="326" y="364" on="1"/>
        <pt x="328" y="328" on="0"/>
        <pt x="342" y="304" on="1"/>
        <pt x="348" y="294" on="0"/>
        <pt x="367" y="277" on="0"/>
        <pt x="395" y="268" on="0"/>
        <pt x="432" y="270" on="0"/>
      </contour>
    </TTGlyph>
    <TTGlyph name="H" xMin="33" yMin="-4" xMax="740" yMax="718">
      <contour>
        <pt x="404" y="489" on="1"/>
        <pt x="405" y="553" on="0"/>
        <pt x="423" y="603" on="1"/>
        <pt x="430" y="624" on="0"/>
        <pt x="454" y="666" on="0"/>
        <pt x="490" y="698" on="0"/>
        <pt x="538" y="718" on="0"/>
        <pt x="571" y="718" on="1"/>
        <pt x="609" y="715" on="0"/>
        <pt x="642" y="693" on="1"/>
        <pt x="670" y="674" on="0"/>
        <pt x="721" y="593" on="0"/>
        <pt x="730" y="520" on="1"/>
        <pt x="738" y="449" on="0"/>
        <pt x="740" y="323" on="0"/>
        <pt x="738" y="275" on="1"/>
        <pt x="735" y="219" on="0"/>
        <pt x="730" y="171" on="1"/>
        <pt x="724" y="122" on="0"/>
        <pt x="705" y="83" on="1"/>
        <pt x="697" y="66" on="0"/>
        <pt x="673" y="35" on="0"/>
        <pt x="640" y="10" on="0"/>
        <pt x="598" y="-4" on="0"/>
        <pt x="571" y="-4" on="1"/>
        <pt x="541" y="-4" on="0"/>
        <pt x="495" y="16" on="0"/>
        <pt x="461" y="49" on="0"/>
        <pt x="438" y="90" on="0"/>
        <pt x="430" y="111" on="1"/>
        <pt x="412" y="161" on="0"/>
        <pt x="408" y="224" on="1"/>
        <pt x="371" y="224" on="1"/>
        <pt x="365" y="160" on="0"/>
        <pt x="345" y="111" on="1"/>
        <pt x="336" y="90" on="0"/>
        <pt x="311" y="49" on="0"/>
        <pt x="277" y="18" on="0"/>
        <pt x="231" y="-2" on="0"/>
        <pt x="202" y="-2" on="1"/>
        <pt x="161" y="-1" on="0"/>
        <pt x="128" y="19" on="1"/>
        <pt x="114" y="28" on="0"/>
        <pt x="85" y="54" on="0"/>
        <pt x="61" y="95" on="0"/>
        <pt x="44" y="150" on="0"/>
        <pt x="41" y="187" on="1"/>
        <pt x="33" y="274" on="0"/>
        <pt x="34" y="407" on="0"/>
        <pt x="37" y="454" on="1"/>
        <pt x="41" y="509" on="0"/>
        <pt x="48" y="549" on="1"/>
        <pt x="56" y="596" on="0"/>
        <pt x="75" y="633" on="1"/>
        <pt x="83" y="649" on="0"/>
        <pt x="106" y="679" on="0"/>
        <pt x="137" y="703" on="0"/>
        <pt x="176" y="717" on="0"/>
        <pt x="200" y="717" on="1"/>
        <pt x="233" y="717" on="0"/>
        <pt x="281" y="697" on="0"/>
        <pt x="317" y="665" on="0"/>
        <pt x="340" y="624" on="0"/>
        <pt x="348" y="603" on="1"/>
        <pt x="366" y="553" on="0"/>
        <pt x="366" y="489" on="1"/>
      </contour>
    </TTGlyph>
    <TTGlyph name="I" xMin="30" yMin="-9" xMax="390" yMax="705">
      <contour>
        <pt x="39" y="203" on="1"/>
        <pt x="33" y="244" on="0"/>
        <pt x="30" y="341" on="0"/>
        <pt x="31" y="383" on="1"/>
        <pt x="32" y="432" on="0"/>
        <pt x="35" y="482" on="1"/>
        <pt x="40" y="544" on="0"/>
        <pt x="60" y="593" on="1"/>
        <pt x="69" y="614" on="0"/>
        <pt x="95" y="654" on="0"/>
        <pt x="132" y="685" on="0"/>
        <pt x="182" y="705" on="0"/>
        <pt x="215" y="705" on="1"/>
        <pt x="255" y="702" on="0"/>
        <pt x="288" y="681" on="1"/>
        <pt x="302" y="672" on="0"/>
        <pt x="331" y="644" on="0"/>
        <pt x="356" y="602" on="0"/>
        <pt x="375" y="546" on="0"/>
        <pt x="380" y="510" on="1"/>
        <pt x="388" y="440" on="0"/>
        <pt x="390" y="315" on="0"/>
        <pt x="388" y="267" on="1"/>
        <pt x="385" y="212" on="0"/>
        <pt x="380" y="164" on="1"/>
        <pt x="373" y="115" on="0"/>
        <pt x="354" y="77" on="1"/>
        <pt x="345" y="61" on="0"/>
        <pt x="321" y="30" on="0"/>
        <pt x="287" y="5" on="0"/>
        <pt x="243" y="-9" on="0"/>
        <pt x="215" y="-9" on="1"/>
        <pt x="184" y="-9" on="0"/>
        <pt x="136" y="10" on="0"/>
        <pt x="99" y="40" on="0"/>
        <pt x="74" y="78" on="0"/>
        <pt x="65" y="98" on="1"/>
        <pt x="45" y="145" on="0"/>
      </contour>
    </TTGlyph>
    <TTGlyph name="Iacute" xMin="30" yMin="-9" xMax="390" yMax="949">
      <contour>
        <pt x="39" y="203" on="1"/>
        <pt x="33" y="244" on="0"/>
        <pt x="30" y="341" on="0"/>
        <pt x="31" y="383" on="1"/>
        <pt x="32" y="432" on="0"/>
        <pt x="35" y="482" on="1"/>
        <pt x="40" y="544" on="0"/>
        <pt x="60" y="593" on="1"/>
        <pt x="69" y="614" on="0"/>
        <pt x="95" y="654" on="0"/>
        <pt x="132" y="685" on="0"/>
        <pt x="182" y="705" on="0"/>
        <pt x="215" y="705" on="1"/>
        <pt x="255" y="702" on="0"/>
        <pt x="288" y="681" on="1"/>
        <pt x="302" y="672" on="0"/>
        <pt x="331" y="644" on="0"/>
        <pt x="356" y="602" on="0"/>
        <pt x="375" y="546" on="0"/>
        <pt x="380" y="510" on="1"/>
        <pt x="388" y="440" on="0"/>
        <pt x="390" y="315" on="0"/>
        <pt x="388" y="267" on="1"/>
        <pt x="385" y="212" on="0"/>
        <pt x="380" y="164" on="1"/>
        <pt x="373" y="115" on="0"/>
        <pt x="354" y="77" on="1"/>
        <pt x="345" y="61" on="0"/>
        <pt x="321" y="30" on="0"/>
        <pt x="287" y="5" on="0"/>
        <pt x="243" y="-9" on="0"/>
        <pt x="215" y="-9" on="1"/>
        <pt x="184" y="-9" on="0"/>
        <pt x="136" y="10" on="0"/>
        <pt x="99" y="40" on="0"/>
        <pt x="74" y="78" on="0"/>
        <pt x="65" y="98" on="1"/>
        <pt x="45" y="145" on="0"/>
      </contour>
      <contour>
        <pt x="97" y="852" on="1"/>
        <pt x="105" y="862" on="0"/>
        <pt x="136" y="889" on="0"/>
        <pt x="172" y="914" on="0"/>
        <pt x="211" y="935" on="0"/>
        <pt x="227" y="940" on="1"/>
        <pt x="249" y="947" on="0"/>
        <pt x="282" y="949" on="0"/>
        <pt x="305" y="942" on="0"/>
        <pt x="322" y="929" on="0"/>
        <pt x="330" y="922" on="1"/>
        <pt x="338" y="914" on="0"/>
        <pt x="352" y="888" on="0"/>
        <pt x="355" y="858" on="0"/>
        <pt x="343" y="825" on="0"/>
        <pt x="324" y="809" on="1"/>
        <pt x="303" y="790" on="0"/>
        <pt x="247" y="767" on="0"/>
        <pt x="221" y="759" on="1"/>
        <pt x="191" y="750" on="0"/>
        <pt x="161" y="745" on="1"/>
        <pt x="145" y="741" on="0"/>
        <pt x="130" y="743" on="1"/>
        <pt x="117" y="745" on="0"/>
        <pt x="91" y="757" on="0"/>
        <pt x="83" y="774" on="1"/>
        <pt x="75" y="789" on="0"/>
        <pt x="77" y="817" on="0"/>
        <pt x="82" y="828" on="1"/>
        <pt x="87" y="840" on="0"/>
      </contour>
    </TTGlyph>
    <TTGlyph name="Icircumflex" xMin="30" yMin="-9" xMax="390" yMax="928">
      <contour>
        <pt x="39" y="203" on="1"/>
        <pt x="33" y="244" on="0"/>
        <pt x="30" y="341" on="0"/>
        <pt x="31" y="383" on="1"/>
        <pt x="32" y="432" on="0"/>
        <pt x="35" y="482" on="1"/>
        <pt x="40" y="544" on="0"/>
        <pt x="60" y="593" on="1"/>
        <pt x="69" y="614" on="0"/>
        <pt x="95" y="654" on="0"/>
        <pt x="132" y="685" on="0"/>
        <pt x="182" y="705" on="0"/>
        <pt x="215" y="705" on="1"/>
        <pt x="255" y="702" on="0"/>
        <pt x="288" y="681" on="1"/>
        <pt x="302" y="672" on="0"/>
        <pt x="331" y="644" on="0"/>
        <pt x="356" y="602" on="0"/>
        <pt x="375" y="546" on="0"/>
        <pt x="380" y="510" on="1"/>
        <pt x="388" y="440" on="0"/>
        <pt x="390" y="315" on="0"/>
        <pt x="388" y="267" on="1"/>
        <pt x="385" y="212" on="0"/>
        <pt x="380" y="164" on="1"/>
        <pt x="373" y="115" on="0"/>
        <pt x="354" y="77" on="1"/>
        <pt x="345" y="61" on="0"/>
        <pt x="321" y="30" on="0"/>
        <pt x="287" y="5" on="0"/>
        <pt x="243" y="-9" on="0"/>
        <pt x="215" y="-9" on="1"/>
        <pt x="184" y="-9" on="0"/>
        <pt x="136" y="10" on="0"/>
        <pt x="99" y="40" on="0"/>
        <pt x="74" y="78" on="0"/>
        <pt x="65" y="98" on="1"/>
        <pt x="45" y="145" on="0"/>
      </contour>
      <contour>
        <pt x="59" y="834" on="1"/>
        <pt x="60" y="835" on="0"/>
        <pt x="86" y="865" on="0"/>
        <pt x="128" y="899" on="0"/>
        <pt x="182" y="928" on="0"/>
        <pt x="211" y="928" on="1"/>
        <pt x="239" y="928" on="0"/>
        <pt x="291" y="899" on="0"/>
        <pt x="333" y="863" on="0"/>
        <pt x="358" y="832" on="0"/>
        <pt x="359" y="831" on="1"/>
        <pt x="373" y="812" on="0"/>
        <pt x="365" y="766" on="0"/>
        <pt x="345" y="752" on="1"/>
        <pt x="325" y="738" on="0"/>
        <pt x="279" y="746" on="0"/>
        <pt x="265" y="766" on="1"/>
        <pt x="263" y="767" on="0"/>
        <pt x="234" y="801" on="0"/>
        <pt x="211" y="814" on="1"/>
        <pt x="197" y="805" on="0"/>
        <pt x="173" y="787" on="0"/>
        <pt x="165" y="779" on="1"/>
        <pt x="155" y="770" on="0"/>
        <pt x="148" y="763" on="1"/>
        <pt x="137" y="751" on="0"/>
        <pt x="125" y="745" on="1"/>
        <pt x="114" y="740" on="0"/>
        <pt x="85" y="740" on="0"/>
        <pt x="68" y="754" on="1"/>
        <pt x="49" y="769" on="0"/>
        <pt x="44" y="816" on="0"/>
      </contour>
    </TTGlyph>
    <TTGlyph name="Idieresis" xMin="30" yMin="-9" xMax="390" yMax="900">
      <contour>
        <pt x="39" y="203" on="1"/>
        <pt x="33" y="244" on="0"/>
        <pt x="30" y="341" on="0"/>
        <pt x="31" y="383" on="1"/>
        <pt x="32" y="432" on="0"/>
        <pt x="35" y="482" on="1"/>
        <pt x="40" y="544" on="0"/>
        <pt x="60" y="593" on="1"/>
        <pt x="69" y="614" on="0"/>
        <pt x="95" y="654" on="0"/>
        <pt x="132" y="685" on="0"/>
        <pt x="182" y="705" on="0"/>
        <pt x="215" y="705" on="1"/>
        <pt x="255" y="702" on="0"/>
        <pt x="288" y="681" on="1"/>
        <pt x="302" y="672" on="0"/>
        <pt x="331" y="644" on="0"/>
        <pt x="356" y="602" on="0"/>
        <pt x="375" y="546" on="0"/>
        <pt x="380" y="510" on="1"/>
        <pt x="388" y="440" on="0"/>
        <pt x="390" y="315" on="0"/>
        <pt x="388" y="267" on="1"/>
        <pt x="385" y="212" on="0"/>
        <pt x="380" y="164" on="1"/>
        <pt x="373" y="115" on="0"/>
        <pt x="354" y="77" on="1"/>
        <pt x="345" y="61" on="0"/>
        <pt x="321" y="30" on="0"/>
        <pt x="287" y="5" on="0"/>
        <pt x="243" y="-9" on="0"/>
        <pt x="215" y="-9" on="1"/>
        <pt x="184" y="-9" on="0"/>
        <pt x="136" y="10" on="0"/>
        <pt x="99" y="40" on="0"/>
        <pt x="74" y="78" on="0"/>
        <pt x="65" y="98" on="1"/>
        <pt x="45" y="145" on="0"/>
      </contour>
      <contour>
        <pt x="190" y="823" on="1"/>
        <pt x="190" y="791" on="0"/>
        <pt x="151" y="745" on="0"/>
        <pt x="113" y="745" on="1"/>
        <pt x="75" y="745" on="0"/>
        <pt x="36" y="791" on="0"/>
        <pt x="36" y="823" on="1"/>
        <pt x="36" y="855" on="0"/>
        <pt x="75" y="900" on="0"/>
        <pt x="113" y="900" on="1"/>
        <pt x="151" y="900" on="0"/>
        <pt x="190" y="855" on="0"/>
      </contour>
      <contour>
        <pt x="373" y="823" on="1"/>
        <pt x="373" y="791" on="0"/>
        <pt x="334" y="745" on="0"/>
        <pt x="296" y="745" on="1"/>
        <pt x="258" y="745" on="0"/>
        <pt x="219" y="791" on="0"/>
        <pt x="219" y="823" on="1"/>
        <pt x="219" y="855" on="0"/>
        <pt x="258" y="900" on="0"/>
        <pt x="296" y="900" on="1"/>
        <pt x="334" y="900" on="0"/>
        <pt x="373" y="855" on="0"/>
      </contour>
    </TTGlyph>
    <TTGlyph name="Igrave" xMin="30" yMin="-9" xMax="390" yMax="951">
      <contour>
        <pt x="39" y="203" on="1"/>
        <pt x="33" y="244" on="0"/>
        <pt x="30" y="341" on="0"/>
        <pt x="31" y="383" on="1"/>
        <pt x="32" y="432" on="0"/>
        <pt x="35" y="482" on="1"/>
        <pt x="40" y="544" on="0"/>
        <pt x="60" y="593" on="1"/>
        <pt x="69" y="614" on="0"/>
        <pt x="95" y="654" on="0"/>
        <pt x="132" y="685" on="0"/>
        <pt x="182" y="705" on="0"/>
        <pt x="215" y="705" on="1"/>
        <pt x="255" y="702" on="0"/>
        <pt x="288" y="681" on="1"/>
        <pt x="302" y="672" on="0"/>
        <pt x="331" y="644" on="0"/>
        <pt x="356" y="602" on="0"/>
        <pt x="375" y="546" on="0"/>
        <pt x="380" y="510" on="1"/>
        <pt x="388" y="440" on="0"/>
        <pt x="390" y="315" on="0"/>
        <pt x="388" y="267" on="1"/>
        <pt x="385" y="212" on="0"/>
        <pt x="380" y="164" on="1"/>
        <pt x="373" y="115" on="0"/>
        <pt x="354" y="77" on="1"/>
        <pt x="345" y="61" on="0"/>
        <pt x="321" y="30" on="0"/>
        <pt x="287" y="5" on="0"/>
        <pt x="243" y="-9" on="0"/>
        <pt x="215" y="-9" on="1"/>
        <pt x="184" y="-9" on="0"/>
        <pt x="136" y="10" on="0"/>
        <pt x="99" y="40" on="0"/>
        <pt x="74" y="78" on="0"/>
        <pt x="65" y="98" on="1"/>
        <pt x="45" y="145" on="0"/>
      </contour>
      <contour>
        <pt x="199" y="942" on="1"/>
        <pt x="215" y="937" on="0"/>
        <pt x="254" y="916" on="0"/>
        <pt x="290" y="891" on="0"/>
        <pt x="321" y="864" on="0"/>
        <pt x="329" y="854" on="1"/>
        <pt x="338" y="842" on="0"/>
        <pt x="343" y="830" on="1"/>
        <pt x="348" y="819" on="0"/>
        <pt x="351" y="791" on="0"/>
        <pt x="343" y="776" on="1"/>
        <pt x="335" y="759" on="0"/>
        <pt x="309" y="747" on="0"/>
        <pt x="296" y="745" on="1"/>
        <pt x="281" y="743" on="0"/>
        <pt x="265" y="747" on="1"/>
        <pt x="234" y="752" on="0"/>
        <pt x="204" y="761" on="1"/>
        <pt x="178" y="769" on="0"/>
        <pt x="123" y="792" on="0"/>
        <pt x="102" y="811" on="1"/>
        <pt x="83" y="827" on="0"/>
        <pt x="71" y="860" on="0"/>
        <pt x="74" y="890" on="0"/>
        <pt x="88" y="916" on="0"/>
        <pt x="96" y="924" on="1"/>
        <pt x="103" y="931" on="0"/>
        <pt x="121" y="944" on="0"/>
        <pt x="144" y="951" on="0"/>
        <pt x="176" y="949" on="0"/>
      </contour>
    </TTGlyph>
    <TTGlyph name="J" xMin="27" yMin="-9" xMax="505" yMax="712">
      <contour>
        <pt x="175" y="255" on="1"/>
        <pt x="172" y="295" on="0"/>
        <pt x="169" y="382" on="0"/>
        <pt x="169" y="418" on="1"/>
        <pt x="169" y="460" on="0"/>
        <pt x="170" y="501" on="1"/>
        <pt x="171" y="559" on="0"/>
        <pt x="188" y="606" on="1"/>
        <pt x="195" y="625" on="0"/>
        <pt x="218" y="663" on="0"/>
        <pt x="251" y="693" on="0"/>
        <pt x="296" y="712" on="0"/>
        <pt x="326" y="712" on="1"/>
        <pt x="369" y="712" on="0"/>
        <pt x="405" y="694" on="1"/>
        <pt x="420" y="686" on="0"/>
        <pt x="450" y="660" on="0"/>
        <pt x="475" y="621" on="0"/>
        <pt x="493" y="566" on="0"/>
        <pt x="496" y="529" on="1"/>
        <pt x="501" y="460" on="0"/>
        <pt x="505" y="352" on="0"/>
        <pt x="504" y="314" on="1"/>
        <pt x="503" y="269" on="0"/>
        <pt x="501" y="235" on="1"/>
        <pt x="499" y="200" on="0"/>
        <pt x="490" y="166" on="1"/>
        <pt x="482" y="137" on="0"/>
        <pt x="451" y="70" on="0"/>
        <pt x="422" y="42" on="1"/>
        <pt x="406" y="27" on="0"/>
        <pt x="347" y="3" on="0"/>
        <pt x="275" y="-9" on="0"/>
        <pt x="195" y="-8" on="0"/>
        <pt x="121" y="9" on="0"/>
        <pt x="59" y="44" on="0"/>
        <pt x="41" y="73" on="1"/>
        <pt x="29" y="91" on="0"/>
        <pt x="27" y="134" on="0"/>
        <pt x="42" y="171" on="0"/>
        <pt x="71" y="197" on="0"/>
        <pt x="91" y="199" on="1"/>
        <pt x="126" y="202" on="0"/>
        <pt x="161" y="220" on="0"/>
        <pt x="168" y="230" on="1"/>
        <pt x="176" y="241" on="0"/>
      </contour>
    </TTGlyph>
    <TTGlyph name="K" xMin="37" yMin="-9" xMax="699" yMax="714">
      <contour>
        <pt x="213" y="713" on="1"/>
        <pt x="258" y="714" on="0"/>
        <pt x="319" y="696" on="0"/>
        <pt x="357" y="665" on="0"/>
        <pt x="376" y="626" on="0"/>
        <pt x="383" y="589" on="0"/>
        <pt x="382" y="557" on="0"/>
        <pt x="381" y="549" on="1"/>
        <pt x="385" y="562" on="0"/>
        <pt x="413" y="619" on="0"/>
        <pt x="446" y="648" on="1"/>
        <pt x="483" y="680" on="0"/>
        <pt x="550" y="688" on="0"/>
        <pt x="575" y="680" on="1"/>
        <pt x="604" y="670" on="0"/>
        <pt x="629" y="648" on="1"/>
        <pt x="652" y="624" on="0"/>
        <pt x="671" y="576" on="0"/>
        <pt x="669" y="528" on="0"/>
        <pt x="652" y="483" on="0"/>
        <pt x="640" y="463" on="1"/>
        <pt x="611" y="416" on="0"/>
        <pt x="558" y="373" on="1"/>
        <pt x="605" y="322" on="0"/>
        <pt x="662" y="238" on="0"/>
        <pt x="692" y="169" on="0"/>
        <pt x="699" y="115" on="0"/>
        <pt x="696" y="94" on="1"/>
        <pt x="688" y="46" on="0"/>
        <pt x="646" y="19" on="1"/>
        <pt x="602" y="-8" on="0"/>
        <pt x="525" y="-9" on="0"/>
        <pt x="461" y="20" on="0"/>
        <pt x="411" y="71" on="0"/>
        <pt x="376" y="121" on="0"/>
        <pt x="356" y="159" on="0"/>
        <pt x="355" y="163" on="1"/>
        <pt x="355" y="160" on="0"/>
        <pt x="357" y="114" on="0"/>
        <pt x="339" y="58" on="0"/>
        <pt x="290" y="6" on="0"/>
        <pt x="241" y="-3" on="1"/>
        <pt x="213" y="-9" on="0"/>
        <pt x="167" y="-1" on="0"/>
        <pt x="131" y="18" on="0"/>
        <pt x="104" y="47" on="0"/>
        <pt x="94" y="62" on="1"/>
        <pt x="70" y="98" on="0"/>
        <pt x="58" y="148" on="1"/>
        <pt x="47" y="196" on="0"/>
        <pt x="42" y="253" on="1"/>
        <pt x="37" y="302" on="0"/>
        <pt x="39" y="434" on="0"/>
        <pt x="51" y="511" on="1"/>
        <pt x="63" y="588" on="0"/>
        <pt x="116" y="670" on="0"/>
        <pt x="144" y="689" on="1"/>
        <pt x="176" y="711" on="0"/>
      </contour>
    </TTGlyph>
    <TTGlyph name="L" xMin="32" yMin="-13" xMax="626" yMax="710">
      <contour>
        <pt x="355" y="284" on="1"/>
        <pt x="398" y="307" on="0"/>
        <pt x="468" y="325" on="0"/>
        <pt x="522" y="323" on="0"/>
        <pt x="563" y="304" on="0"/>
        <pt x="577" y="291" on="1"/>
        <pt x="610" y="260" on="0"/>
        <pt x="624" y="206" on="1"/>
        <pt x="626" y="197" on="0"/>
        <pt x="625" y="159" on="0"/>
        <pt x="610" y="112" on="0"/>
        <pt x="577" y="62" on="0"/>
        <pt x="516" y="20" on="0"/>
        <pt x="422" y="-9" on="0"/>
        <pt x="355" y="-11" on="1"/>
        <pt x="308" y="-13" on="0"/>
        <pt x="233" y="3" on="0"/>
        <pt x="174" y="30" on="0"/>
        <pt x="129" y="66" on="0"/>
        <pt x="113" y="85" on="1"/>
        <pt x="75" y="129" on="0"/>
        <pt x="58" y="186" on="1"/>
        <pt x="40" y="237" on="0"/>
        <pt x="32" y="362" on="0"/>
        <pt x="35" y="417" on="1"/>
        <pt x="38" y="481" on="0"/>
        <pt x="48" y="546" on="1"/>
        <pt x="59" y="610" on="0"/>
        <pt x="111" y="678" on="0"/>
        <pt x="138" y="692" on="1"/>
        <pt x="169" y="709" on="0"/>
        <pt x="205" y="709" on="1"/>
        <pt x="247" y="710" on="0"/>
        <pt x="305" y="675" on="0"/>
        <pt x="342" y="616" on="0"/>
        <pt x="361" y="539" on="0"/>
        <pt x="364" y="499" on="1"/>
        <pt x="372" y="405" on="0"/>
      </contour>
    </TTGlyph>
    <TTGlyph name="Lslash" xMin="11" yMin="-13" xMax="702" yMax="710">
      <contour>
        <pt x="431" y="284" on="1"/>
        <pt x="474" y="307" on="0"/>
        <pt x="544" y="325" on="0"/>
        <pt x="598" y="323" on="0"/>
        <pt x="639" y="304" on="0"/>
        <pt x="653" y="291" on="1"/>
        <pt x="686" y="260" on="0"/>
        <pt x="700" y="206" on="1"/>
        <pt x="702" y="197" on="0"/>
        <pt x="701" y="159" on="0"/>
        <pt x="686" y="112" on="0"/>
        <pt x="653" y="62" on="0"/>
        <pt x="592" y="20" on="0"/>
        <pt x="498" y="-9" on="0"/>
        <pt x="431" y="-11" on="1"/>
        <pt x="384" y="-13" on="0"/>
        <pt x="309" y="3" on="0"/>
        <pt x="250" y="30" on="0"/>
        <pt x="205" y="66" on="0"/>
        <pt x="189" y="85" on="1"/>
        <pt x="151" y="129" on="0"/>
        <pt x="134" y="186" on="1"/>
        <pt x="129" y="200" on="0"/>
        <pt x="121" y="232" on="0"/>
        <pt x="118" y="249" on="1"/>
        <pt x="103" y="245" on="0"/>
        <pt x="86" y="245" on="1"/>
        <pt x="51" y="245" on="0"/>
        <pt x="11" y="285" on="0"/>
        <pt x="11" y="310" on="1"/>
        <pt x="11" y="345" on="0"/>
        <pt x="70" y="400" on="0"/>
        <pt x="111" y="420" on="1"/>
        <pt x="112" y="447" on="0"/>
        <pt x="117" y="493" on="0"/>
        <pt x="119" y="510" on="1"/>
        <pt x="122" y="529" on="0"/>
        <pt x="124" y="546" on="1"/>
        <pt x="135" y="610" on="0"/>
        <pt x="187" y="678" on="0"/>
        <pt x="214" y="692" on="1"/>
        <pt x="245" y="709" on="0"/>
        <pt x="281" y="709" on="1"/>
        <pt x="314" y="710" on="0"/>
        <pt x="363" y="688" on="0"/>
        <pt x="398" y="650" on="0"/>
        <pt x="422" y="599" on="0"/>
        <pt x="429" y="569" on="1"/>
        <pt x="454" y="574" on="0"/>
        <pt x="469" y="574" on="1"/>
        <pt x="490" y="574" on="0"/>
        <pt x="521" y="562" on="0"/>
        <pt x="540" y="543" on="0"/>
        <pt x="550" y="521" on="0"/>
        <pt x="550" y="511" on="1"/>
        <pt x="550" y="481" on="0"/>
        <pt x="492" y="410" on="0"/>
        <pt x="441" y="379" on="1"/>
        <pt x="439" y="358" on="0"/>
        <pt x="436" y="324" on="0"/>
        <pt x="434" y="311" on="1"/>
        <pt x="432" y="296" on="0"/>
      </contour>
    </TTGlyph>
    <TTGlyph name="M" xMin="30" yMin="-6" xMax="947" yMax="718">
      <contour>
        <pt x="312" y="716" on="1"/>
        <pt x="356" y="716" on="0"/>
        <pt x="417" y="687" on="0"/>
        <pt x="457" y="642" on="0"/>
        <pt x="479" y="589" on="0"/>
        <pt x="490" y="542" on="0"/>
        <pt x="492" y="507" on="0"/>
        <pt x="492" y="503" on="1"/>
        <pt x="493" y="510" on="0"/>
        <pt x="499" y="547" on="0"/>
        <pt x="515" y="595" on="0"/>
        <pt x="541" y="647" on="0"/>
        <pt x="582" y="690" on="0"/>
        <pt x="640" y="718" on="0"/>
        <pt x="680" y="718" on="1"/>
        <pt x="729" y="718" on="0"/>
        <pt x="802" y="670" on="0"/>
        <pt x="826" y="641" on="1"/>
        <pt x="854" y="608" on="0"/>
        <pt x="874" y="565" on="1"/>
        <pt x="901" y="502" on="0"/>
        <pt x="930" y="377" on="0"/>
        <pt x="937" y="326" on="1"/>
        <pt x="945" y="266" on="0"/>
        <pt x="946" y="211" on="1"/>
        <pt x="947" y="169" on="0"/>
        <pt x="936" y="105" on="0"/>
        <pt x="916" y="59" on="0"/>
        <pt x="889" y="28" on="0"/>
        <pt x="874" y="18" on="1"/>
        <pt x="840" y="-5" on="0"/>
        <pt x="796" y="-6" on="1"/>
        <pt x="757" y="-6" on="0"/>
        <pt x="698" y="21" on="0"/>
        <pt x="655" y="66" on="0"/>
        <pt x="626" y="123" on="0"/>
        <pt x="617" y="153" on="1"/>
        <pt x="595" y="223" on="0"/>
        <pt x="594" y="312" on="1"/>
        <pt x="589" y="253" on="0"/>
        <pt x="558" y="193" on="0"/>
        <pt x="541" y="181" on="1"/>
        <pt x="521" y="166" on="0"/>
        <pt x="497" y="168" on="1"/>
        <pt x="458" y="168" on="0"/>
        <pt x="414" y="213" on="0"/>
        <pt x="403" y="241" on="1"/>
        <pt x="390" y="273" on="0"/>
        <pt x="387" y="314" on="1"/>
        <pt x="387" y="253" on="0"/>
        <pt x="372" y="160" on="0"/>
        <pt x="348" y="93" on="0"/>
        <pt x="317" y="47" on="0"/>
        <pt x="301" y="32" on="1"/>
        <pt x="263" y="-2" on="0"/>
        <pt x="215" y="-6" on="1"/>
        <pt x="177" y="-6" on="0"/>
        <pt x="122" y="12" on="0"/>
        <pt x="82" y="41" on="0"/>
        <pt x="56" y="79" on="0"/>
        <pt x="48" y="99" on="1"/>
        <pt x="30" y="146" on="0"/>
        <pt x="30" y="205" on="1"/>
        <pt x="30" y="286" on="0"/>
        <pt x="53" y="421" on="0"/>
        <pt x="67" y="470" on="1"/>
        <pt x="84" y="527" on="0"/>
        <pt x="105" y="573" on="1"/>
        <pt x="131" y="633" on="0"/>
        <pt x="203" y="692" on="0"/>
        <pt x="235" y="704" on="1"/>
        <pt x="273" y="718" on="0"/>
      </contour>
    </TTGlyph>
    <TTGlyph name="N" xMin="31" yMin="-5" xMax="786" yMax="716">
      <contour>
        <pt x="55" y="552" on="1"/>
        <pt x="65" y="595" on="0"/>
        <pt x="89" y="630" on="1"/>
        <pt x="109" y="660" on="0"/>
        <pt x="182" y="711" on="0"/>
        <pt x="241" y="714" on="1"/>
        <pt x="292" y="716" on="0"/>
        <pt x="366" y="684" on="0"/>
        <pt x="416" y="632" on="0"/>
        <pt x="445" y="569" on="0"/>
        <pt x="461" y="509" on="0"/>
        <pt x="466" y="463" on="0"/>
        <pt x="467" y="454" on="1"/>
        <pt x="467" y="504" on="0"/>
        <pt x="480" y="579" on="0"/>
        <pt x="502" y="634" on="0"/>
        <pt x="531" y="670" on="0"/>
        <pt x="546" y="681" on="1"/>
        <pt x="581" y="707" on="0"/>
        <pt x="626" y="707" on="1"/>
        <pt x="673" y="708" on="0"/>
        <pt x="730" y="673" on="0"/>
        <pt x="745" y="651" on="1"/>
        <pt x="763" y="625" on="0"/>
        <pt x="769" y="593" on="1"/>
        <pt x="786" y="505" on="0"/>
        <pt x="786" y="346" on="0"/>
        <pt x="781" y="284" on="1"/>
        <pt x="774" y="212" on="0"/>
        <pt x="761" y="148" on="1"/>
        <pt x="754" y="116" on="0"/>
        <pt x="733" y="69" on="0"/>
        <pt x="708" y="36" on="0"/>
        <pt x="680" y="15" on="0"/>
        <pt x="667" y="9" on="1"/>
        <pt x="635" y="-5" on="0"/>
        <pt x="601" y="-2" on="1"/>
        <pt x="549" y="-3" on="0"/>
        <pt x="473" y="36" on="0"/>
        <pt x="419" y="96" on="0"/>
        <pt x="384" y="169" on="0"/>
        <pt x="363" y="235" on="0"/>
        <pt x="355" y="285" on="0"/>
        <pt x="354" y="293" on="1"/>
        <pt x="357" y="232" on="0"/>
        <pt x="346" y="142" on="0"/>
        <pt x="324" y="78" on="0"/>
        <pt x="295" y="36" on="0"/>
        <pt x="279" y="24" on="1"/>
        <pt x="242" y="-5" on="0"/>
        <pt x="193" y="-2" on="1"/>
        <pt x="150" y="-4" on="0"/>
        <pt x="96" y="31" on="0"/>
        <pt x="81" y="52" on="1"/>
        <pt x="63" y="77" on="0"/>
        <pt x="55" y="109" on="1"/>
        <pt x="36" y="188" on="0"/>
        <pt x="31" y="345" on="0"/>
        <pt x="36" y="409" on="1"/>
        <pt x="41" y="483" on="0"/>
      </contour>
    </TTGlyph>
    <TTGlyph name="Ntilde" xMin="31" yMin="-5" xMax="786" yMax="952">
      <contour>
        <pt x="55" y="552" on="1"/>
        <pt x="65" y="595" on="0"/>
        <pt x="89" y="630" on="1"/>
        <pt x="109" y="660" on="0"/>
        <pt x="182" y="711" on="0"/>
        <pt x="241" y="714" on="1"/>
        <pt x="292" y="716" on="0"/>
        <pt x="366" y="684" on="0"/>
        <pt x="416" y="632" on="0"/>
        <pt x="445" y="569" on="0"/>
        <pt x="461" y="509" on="0"/>
        <pt x="466" y="463" on="0"/>
        <pt x="467" y="454" on="1"/>
        <pt x="467" y="504" on="0"/>
        <pt x="480" y="579" on="0"/>
        <pt x="502" y="634" on="0"/>
        <pt x="531" y="670" on="0"/>
        <pt x="546" y="681" on="1"/>
        <pt x="581" y="707" on="0"/>
        <pt x="626" y="707" on="1"/>
        <pt x="673" y="708" on="0"/>
        <pt x="730" y="673" on="0"/>
        <pt x="745" y="651" on="1"/>
        <pt x="763" y="625" on="0"/>
        <pt x="769" y="593" on="1"/>
        <pt x="786" y="505" on="0"/>
        <pt x="786" y="346" on="0"/>
        <pt x="781" y="284" on="1"/>
        <pt x="774" y="212" on="0"/>
        <pt x="761" y="148" on="1"/>
        <pt x="754" y="116" on="0"/>
        <pt x="733" y="69" on="0"/>
        <pt x="708" y="36" on="0"/>
        <pt x="680" y="15" on="0"/>
        <pt x="667" y="9" on="1"/>
        <pt x="635" y="-5" on="0"/>
        <pt x="601" y="-2" on="1"/>
        <pt x="549" y="-3" on="0"/>
        <pt x="473" y="36" on="0"/>
        <pt x="419" y="96" on="0"/>
        <pt x="384" y="169" on="0"/>
        <pt x="363" y="235" on="0"/>
        <pt x="355" y="285" on="0"/>
        <pt x="354" y="293" on="1"/>
        <pt x="357" y="232" on="0"/>
        <pt x="346" y="142" on="0"/>
        <pt x="324" y="78" on="0"/>
        <pt x="295" y="36" on="0"/>
        <pt x="279" y="24" on="1"/>
        <pt x="242" y="-5" on="0"/>
        <pt x="193" y="-2" on="1"/>
        <pt x="150" y="-4" on="0"/>
        <pt x="96" y="31" on="0"/>
        <pt x="81" y="52" on="1"/>
        <pt x="63" y="77" on="0"/>
        <pt x="55" y="109" on="1"/>
        <pt x="36" y="188" on="0"/>
        <pt x="31" y="345" on="0"/>
        <pt x="36" y="409" on="1"/>
        <pt x="41" y="483" on="0"/>
      </contour>
      <contour>
        <pt x="598" y="814" on="1"/>
        <pt x="583" y="787" on="0"/>
        <pt x="545" y="759" on="0"/>
        <pt x="505" y="749" on="0"/>
        <pt x="464" y="755" on="0"/>
        <pt x="445" y="762" on="1"/>
        <pt x="400" y="779" on="0"/>
        <pt x="353" y="818" on="1"/>
        <pt x="344" y="784" on="0"/>
        <pt x="311" y="757" on="0"/>
        <pt x="294" y="754" on="1"/>
        <pt x="275" y="750" on="0"/>
        <pt x="253" y="757" on="1"/>
        <pt x="240" y="761" on="0"/>
        <pt x="219" y="781" on="0"/>
        <pt x="207" y="807" on="0"/>
        <pt x="204" y="835" on="0"/>
        <pt x="209" y="848" on="1"/>
        <pt x="227" y="902" on="0"/>
        <pt x="261" y="928" on="1"/>
        <pt x="276" y="939" on="0"/>
        <pt x="315" y="952" on="0"/>
        <pt x="366" y="946" on="0"/>
        <pt x="430" y="917" on="0"/>
        <pt x="469" y="887" on="1"/>
        <pt x="471" y="883" on="1"/>
        <pt x="481" y="912" on="0"/>
        <pt x="527" y="945" on="0"/>
        <pt x="558" y="935" on="1"/>
        <pt x="583" y="926" on="0"/>
        <pt x="598" y="910" on="1"/>
        <pt x="611" y="896" on="0"/>
        <pt x="618" y="849" on="0"/>
      </contour>
    </TTGlyph>
    <TTGlyph name="O" xMin="33" yMin="-11" xMax="713" yMax="708">
      <contour>
        <pt x="393" y="704" on="1"/>
        <pt x="453" y="704" on="0"/>
        <pt x="544" y="675" on="0"/>
        <pt x="612" y="627" on="0"/>
        <pt x="658" y="566" on="0"/>
        <pt x="673" y="534" on="1"/>
        <pt x="708" y="459" on="0"/>
        <pt x="713" y="365" on="1"/>
        <pt x="713" y="294" on="0"/>
        <pt x="685" y="187" on="0"/>
        <pt x="640" y="108" on="0"/>
        <pt x="583" y="54" on="0"/>
        <pt x="553" y="36" on="1"/>
        <pt x="483" y="-5" on="0"/>
        <pt x="393" y="-11" on="1"/>
        <pt x="325" y="-11" on="0"/>
        <pt x="223" y="18" on="0"/>
        <pt x="147" y="65" on="0"/>
        <pt x="95" y="126" on="0"/>
        <pt x="78" y="158" on="1"/>
        <pt x="38" y="232" on="0"/>
        <pt x="33" y="327" on="1"/>
        <pt x="33" y="405" on="0"/>
        <pt x="64" y="519" on="0"/>
        <pt x="115" y="602" on="0"/>
        <pt x="179" y="655" on="0"/>
        <pt x="213" y="671" on="1"/>
        <pt x="292" y="708" on="0"/>
      </contour>
      <contour>
        <pt x="378" y="383" on="1"/>
        <pt x="361" y="383" on="0"/>
        <pt x="336" y="357" on="0"/>
        <pt x="338" y="341" on="1"/>
        <pt x="340" y="320" on="0"/>
        <pt x="361" y="304" on="0"/>
        <pt x="378" y="304" on="1"/>
        <pt x="395" y="304" on="0"/>
        <pt x="417" y="324" on="0"/>
        <pt x="417" y="341" on="1"/>
        <pt x="417" y="357" on="0"/>
        <pt x="397" y="383" on="0"/>
      </contour>
    </TTGlyph>
    <TTGlyph name="OE" xMin="28" yMin="-7" xMax="1092" yMax="725">
      <contour>
        <pt x="989" y="366" on="1"/>
        <pt x="989" y="335" on="0"/>
        <pt x="962" y="297" on="0"/>
        <pt x="924" y="275" on="0"/>
        <pt x="884" y="267" on="0"/>
        <pt x="872" y="266" on="1"/>
        <pt x="914" y="266" on="0"/>
        <pt x="978" y="256" on="0"/>
        <pt x="1024" y="238" on="0"/>
        <pt x="1056" y="214" on="0"/>
        <pt x="1066" y="202" on="1"/>
        <pt x="1090" y="173" on="0"/>
        <pt x="1092" y="135" on="1"/>
        <pt x="1091" y="111" on="0"/>
        <pt x="1069" y="74" on="0"/>
        <pt x="1035" y="46" on="0"/>
        <pt x="992" y="27" on="0"/>
        <pt x="970" y="21" on="1"/>
        <pt x="918" y="6" on="0"/>
        <pt x="852" y="3" on="1"/>
        <pt x="796" y="-1" on="0"/>
        <pt x="709" y="5" on="0"/>
        <pt x="641" y="21" on="0"/>
        <pt x="592" y="44" on="0"/>
        <pt x="575" y="58" on="1"/>
        <pt x="542" y="33" on="0"/>
        <pt x="475" y="7" on="0"/>
        <pt x="448" y="1" on="1"/>
        <pt x="416" y="-6" on="0"/>
        <pt x="388" y="-7" on="1"/>
        <pt x="320" y="-7" on="0"/>
        <pt x="218" y="22" on="0"/>
        <pt x="142" y="69" on="0"/>
        <pt x="90" y="130" on="0"/>
        <pt x="73" y="162" on="1"/>
        <pt x="33" y="236" on="0"/>
        <pt x="28" y="331" on="1"/>
        <pt x="28" y="409" on="0"/>
        <pt x="59" y="523" on="0"/>
        <pt x="110" y="606" on="0"/>
        <pt x="174" y="659" on="0"/>
        <pt x="208" y="675" on="1"/>
        <pt x="287" y="712" on="0"/>
        <pt x="388" y="708" on="1"/>
        <pt x="448" y="708" on="0"/>
        <pt x="539" y="679" on="0"/>
        <pt x="573" y="655" on="1"/>
        <pt x="608" y="684" on="0"/>
        <pt x="702" y="714" on="0"/>
        <pt x="744" y="719" on="1"/>
        <pt x="793" y="725" on="0"/>
        <pt x="845" y="724" on="1"/>
        <pt x="893" y="725" on="0"/>
        <pt x="965" y="716" on="0"/>
        <pt x="1017" y="699" on="0"/>
        <pt x="1052" y="678" on="0"/>
        <pt x="1063" y="667" on="1"/>
        <pt x="1089" y="641" on="0"/>
        <pt x="1090" y="606" on="1"/>
        <pt x="1090" y="576" on="0"/>
        <pt x="1071" y="532" on="0"/>
        <pt x="1038" y="500" on="0"/>
        <pt x="995" y="480" on="0"/>
        <pt x="973" y="474" on="1"/>
        <pt x="920" y="460" on="0"/>
        <pt x="853" y="462" on="1"/>
        <pt x="909" y="457" on="0"/>
        <pt x="964" y="426" on="0"/>
        <pt x="976" y="409" on="1"/>
        <pt x="989" y="389" on="0"/>
      </contour>
      <contour>
        <pt x="377" y="382" on="1"/>
        <pt x="360" y="382" on="0"/>
        <pt x="335" y="356" on="0"/>
        <pt x="337" y="340" on="1"/>
        <pt x="339" y="319" on="0"/>
        <pt x="360" y="303" on="0"/>
        <pt x="377" y="303" on="1"/>
        <pt x="394" y="303" on="0"/>
        <pt x="416" y="323" on="0"/>
        <pt x="416" y="340" on="1"/>
        <pt x="416" y="356" on="0"/>
        <pt x="396" y="382" on="0"/>
      </contour>
    </TTGlyph>
    <TTGlyph name="Oacute" xMin="33" yMin="-11" xMax="713" yMax="949">
      <contour>
        <pt x="393" y="704" on="1"/>
        <pt x="453" y="704" on="0"/>
        <pt x="544" y="675" on="0"/>
        <pt x="612" y="627" on="0"/>
        <pt x="658" y="566" on="0"/>
        <pt x="673" y="534" on="1"/>
        <pt x="708" y="459" on="0"/>
        <pt x="713" y="365" on="1"/>
        <pt x="713" y="294" on="0"/>
        <pt x="685" y="187" on="0"/>
        <pt x="640" y="108" on="0"/>
        <pt x="583" y="54" on="0"/>
        <pt x="553" y="36" on="1"/>
        <pt x="483" y="-5" on="0"/>
        <pt x="393" y="-11" on="1"/>
        <pt x="325" y="-11" on="0"/>
        <pt x="223" y="18" on="0"/>
        <pt x="147" y="65" on="0"/>
        <pt x="95" y="126" on="0"/>
        <pt x="78" y="158" on="1"/>
        <pt x="38" y="232" on="0"/>
        <pt x="33" y="327" on="1"/>
        <pt x="33" y="405" on="0"/>
        <pt x="64" y="519" on="0"/>
        <pt x="115" y="602" on="0"/>
        <pt x="179" y="655" on="0"/>
        <pt x="213" y="671" on="1"/>
        <pt x="292" y="708" on="0"/>
      </contour>
      <contour>
        <pt x="378" y="383" on="1"/>
        <pt x="361" y="383" on="0"/>
        <pt x="336" y="357" on="0"/>
        <pt x="338" y="341" on="1"/>
        <pt x="340" y="320" on="0"/>
        <pt x="361" y="304" on="0"/>
        <pt x="378" y="304" on="1"/>
        <pt x="395" y="304" on="0"/>
        <pt x="417" y="324" on="0"/>
        <pt x="417" y="341" on="1"/>
        <pt x="417" y="357" on="0"/>
        <pt x="397" y="383" on="0"/>
      </contour>
      <contour>
        <pt x="250" y="852" on="1"/>
        <pt x="258" y="862" on="0"/>
        <pt x="289" y="889" on="0"/>
        <pt x="325" y="914" on="0"/>
        <pt x="364" y="935" on="0"/>
        <pt x="380" y="940" on="1"/>
        <pt x="402" y="947" on="0"/>
        <pt x="435" y="949" on="0"/>
        <pt x="458" y="942" on="0"/>
        <pt x="475" y="929" on="0"/>
        <pt x="483" y="922" on="1"/>
        <pt x="491" y="914" on="0"/>
        <pt x="505" y="888" on="0"/>
        <pt x="508" y="858" on="0"/>
        <pt x="496" y="825" on="0"/>
        <pt x="477" y="809" on="1"/>
        <pt x="456" y="790" on="0"/>
        <pt x="400" y="767" on="0"/>
        <pt x="374" y="759" on="1"/>
        <pt x="344" y="750" on="0"/>
        <pt x="314" y="745" on="1"/>
        <pt x="298" y="741" on="0"/>
        <pt x="283" y="743" on="1"/>
        <pt x="270" y="745" on="0"/>
        <pt x="244" y="757" on="0"/>
        <pt x="236" y="774" on="1"/>
        <pt x="228" y="789" on="0"/>
        <pt x="230" y="817" on="0"/>
        <pt x="235" y="828" on="1"/>
        <pt x="240" y="840" on="0"/>
      </contour>
    </TTGlyph>
    <TTGlyph name="Ocircumflex" xMin="33" yMin="-11" xMax="713" yMax="927">
      <contour>
        <pt x="393" y="704" on="1"/>
        <pt x="453" y="704" on="0"/>
        <pt x="544" y="675" on="0"/>
        <pt x="612" y="627" on="0"/>
        <pt x="658" y="566" on="0"/>
        <pt x="673" y="534" on="1"/>
        <pt x="708" y="459" on="0"/>
        <pt x="713" y="365" on="1"/>
        <pt x="713" y="294" on="0"/>
        <pt x="685" y="187" on="0"/>
        <pt x="640" y="108" on="0"/>
        <pt x="583" y="54" on="0"/>
        <pt x="553" y="36" on="1"/>
        <pt x="483" y="-5" on="0"/>
        <pt x="393" y="-11" on="1"/>
        <pt x="325" y="-11" on="0"/>
        <pt x="223" y="18" on="0"/>
        <pt x="147" y="65" on="0"/>
        <pt x="95" y="126" on="0"/>
        <pt x="78" y="158" on="1"/>
        <pt x="38" y="232" on="0"/>
        <pt x="33" y="327" on="1"/>
        <pt x="33" y="405" on="0"/>
        <pt x="64" y="519" on="0"/>
        <pt x="115" y="602" on="0"/>
        <pt x="179" y="655" on="0"/>
        <pt x="213" y="671" on="1"/>
        <pt x="292" y="708" on="0"/>
      </contour>
      <contour>
        <pt x="227" y="833" on="1"/>
        <pt x="228" y="834" on="0"/>
        <pt x="254" y="864" on="0"/>
        <pt x="296" y="898" on="0"/>
        <pt x="350" y="927" on="0"/>
        <pt x="379" y="927" on="1"/>
        <pt x="407" y="927" on="0"/>
        <pt x="459" y="898" on="0"/>
        <pt x="501" y="862" on="0"/>
        <pt x="526" y="831" on="0"/>
        <pt x="527" y="830" on="1"/>
        <pt x="541" y="811" on="0"/>
        <pt x="533" y="765" on="0"/>
        <pt x="513" y="751" on="1"/>
        <pt x="493" y="737" on="0"/>
        <pt x="447" y="745" on="0"/>
        <pt x="433" y="765" on="1"/>
        <pt x="431" y="766" on="0"/>
        <pt x="402" y="800" on="0"/>
        <pt x="379" y="813" on="1"/>
        <pt x="365" y="804" on="0"/>
        <pt x="341" y="786" on="0"/>
        <pt x="333" y="778" on="1"/>
        <pt x="323" y="769" on="0"/>
        <pt x="316" y="762" on="1"/>
        <pt x="305" y="750" on="0"/>
        <pt x="293" y="744" on="1"/>
        <pt x="282" y="739" on="0"/>
        <pt x="253" y="739" on="0"/>
        <pt x="236" y="753" on="1"/>
        <pt x="217" y="768" on="0"/>
        <pt x="212" y="815" on="0"/>
      </contour>
      <contour>
        <pt x="378" y="383" on="1"/>
        <pt x="361" y="383" on="0"/>
        <pt x="336" y="357" on="0"/>
        <pt x="338" y="341" on="1"/>
        <pt x="340" y="320" on="0"/>
        <pt x="361" y="304" on="0"/>
        <pt x="378" y="304" on="1"/>
        <pt x="395" y="304" on="0"/>
        <pt x="417" y="324" on="0"/>
        <pt x="417" y="341" on="1"/>
        <pt x="417" y="357" on="0"/>
        <pt x="397" y="383" on="0"/>
      </contour>
    </TTGlyph>
    <TTGlyph name="Odieresis" xMin="33" yMin="-11" xMax="713" yMax="917">
      <contour>
        <pt x="393" y="704" on="1"/>
        <pt x="453" y="704" on="0"/>
        <pt x="544" y="675" on="0"/>
        <pt x="612" y="627" on="0"/>
        <pt x="658" y="566" on="0"/>
        <pt x="673" y="534" on="1"/>
        <pt x="708" y="459" on="0"/>
        <pt x="713" y="365" on="1"/>
        <pt x="713" y="294" on="0"/>
        <pt x="685" y="187" on="0"/>
        <pt x="640" y="108" on="0"/>
        <pt x="583" y="54" on="0"/>
        <pt x="553" y="36" on="1"/>
        <pt x="483" y="-5" on="0"/>
        <pt x="393" y="-11" on="1"/>
        <pt x="325" y="-11" on="0"/>
        <pt x="223" y="18" on="0"/>
        <pt x="147" y="65" on="0"/>
        <pt x="95" y="126" on="0"/>
        <pt x="78" y="158" on="1"/>
        <pt x="38" y="232" on="0"/>
        <pt x="33" y="327" on="1"/>
        <pt x="33" y="405" on="0"/>
        <pt x="64" y="519" on="0"/>
        <pt x="115" y="602" on="0"/>
        <pt x="179" y="655" on="0"/>
        <pt x="213" y="671" on="1"/>
        <pt x="292" y="708" on="0"/>
      </contour>
      <contour>
        <pt x="378" y="383" on="1"/>
        <pt x="361" y="383" on="0"/>
        <pt x="336" y="357" on="0"/>
        <pt x="338" y="341" on="1"/>
        <pt x="340" y="320" on="0"/>
        <pt x="361" y="304" on="0"/>
        <pt x="378" y="304" on="1"/>
        <pt x="395" y="304" on="0"/>
        <pt x="417" y="324" on="0"/>
        <pt x="417" y="341" on="1"/>
        <pt x="417" y="357" on="0"/>
        <pt x="397" y="383" on="0"/>
      </contour>
      <contour>
        <pt x="365" y="840" on="1"/>
        <pt x="365" y="808" on="0"/>
        <pt x="326" y="762" on="0"/>
        <pt x="288" y="762" on="1"/>
        <pt x="250" y="762" on="0"/>
        <pt x="211" y="808" on="0"/>
        <pt x="211" y="840" on="1"/>
        <pt x="211" y="872" on="0"/>
        <pt x="250" y="917" on="0"/>
        <pt x="288" y="917" on="1"/>
        <pt x="326" y="917" on="0"/>
        <pt x="365" y="872" on="0"/>
      </contour>
      <contour>
        <pt x="548" y="840" on="1"/>
        <pt x="548" y="808" on="0"/>
        <pt x="509" y="762" on="0"/>
        <pt x="471" y="762" on="1"/>
        <pt x="433" y="762" on="0"/>
        <pt x="394" y="808" on="0"/>
        <pt x="394" y="840" on="1"/>
        <pt x="394" y="872" on="0"/>
        <pt x="433" y="917" on="0"/>
        <pt x="471" y="917" on="1"/>
        <pt x="509" y="917" on="0"/>
        <pt x="548" y="872" on="0"/>
      </contour>
    </TTGlyph>
    <TTGlyph name="Ograve" xMin="33" yMin="-11" xMax="713" yMax="954">
      <contour>
        <pt x="393" y="704" on="1"/>
        <pt x="453" y="704" on="0"/>
        <pt x="544" y="675" on="0"/>
        <pt x="612" y="627" on="0"/>
        <pt x="658" y="566" on="0"/>
        <pt x="673" y="534" on="1"/>
        <pt x="708" y="459" on="0"/>
        <pt x="713" y="365" on="1"/>
        <pt x="713" y="294" on="0"/>
        <pt x="685" y="187" on="0"/>
        <pt x="640" y="108" on="0"/>
        <pt x="583" y="54" on="0"/>
        <pt x="553" y="36" on="1"/>
        <pt x="483" y="-5" on="0"/>
        <pt x="393" y="-11" on="1"/>
        <pt x="325" y="-11" on="0"/>
        <pt x="223" y="18" on="0"/>
        <pt x="147" y="65" on="0"/>
        <pt x="95" y="126" on="0"/>
        <pt x="78" y="158" on="1"/>
        <pt x="38" y="232" on="0"/>
        <pt x="33" y="327" on="1"/>
        <pt x="33" y="405" on="0"/>
        <pt x="64" y="519" on="0"/>
        <pt x="115" y="602" on="0"/>
        <pt x="179" y="655" on="0"/>
        <pt x="213" y="671" on="1"/>
        <pt x="292" y="708" on="0"/>
      </contour>
      <contour>
        <pt x="378" y="383" on="1"/>
        <pt x="361" y="383" on="0"/>
        <pt x="336" y="357" on="0"/>
        <pt x="338" y="341" on="1"/>
        <pt x="340" y="320" on="0"/>
        <pt x="361" y="304" on="0"/>
        <pt x="378" y="304" on="1"/>
        <pt x="395" y="304" on="0"/>
        <pt x="417" y="324" on="0"/>
        <pt x="417" y="341" on="1"/>
        <pt x="417" y="357" on="0"/>
        <pt x="397" y="383" on="0"/>
      </contour>
      <contour>
        <pt x="365" y="945" on="1"/>
        <pt x="381" y="940" on="0"/>
        <pt x="420" y="919" on="0"/>
        <pt x="456" y="894" on="0"/>
        <pt x="487" y="867" on="0"/>
        <pt x="495" y="857" on="1"/>
        <pt x="504" y="845" on="0"/>
        <pt x="509" y="833" on="1"/>
        <pt x="514" y="822" on="0"/>
        <pt x="517" y="794" on="0"/>
        <pt x="509" y="779" on="1"/>
        <pt x="501" y="762" on="0"/>
        <pt x="475" y="750" on="0"/>
        <pt x="462" y="748" on="1"/>
        <pt x="447" y="746" on="0"/>
        <pt x="431" y="750" on="1"/>
        <pt x="400" y="755" on="0"/>
        <pt x="370" y="764" on="1"/>
        <pt x="344" y="772" on="0"/>
        <pt x="289" y="795" on="0"/>
        <pt x="268" y="814" on="1"/>
        <pt x="249" y="830" on="0"/>
        <pt x="237" y="863" on="0"/>
        <pt x="240" y="893" on="0"/>
        <pt x="254" y="919" on="0"/>
        <pt x="262" y="927" on="1"/>
        <pt x="269" y="934" on="0"/>
        <pt x="287" y="947" on="0"/>
        <pt x="310" y="954" on="0"/>
        <pt x="342" y="952" on="0"/>
      </contour>
    </TTGlyph>
    <TTGlyph name="Oslash" xMin="22" yMin="-53" xMax="734" yMax="759">
      <contour>
        <pt x="393" y="704" on="1"/>
        <pt x="432" y="704" on="0"/>
        <pt x="498" y="690" on="0"/>
        <pt x="525" y="679" on="1"/>
        <pt x="570" y="724" on="0"/>
        <pt x="628" y="759" on="0"/>
        <pt x="651" y="759" on="1"/>
        <pt x="666" y="759" on="0"/>
        <pt x="696" y="748" on="0"/>
        <pt x="719" y="728" on="0"/>
        <pt x="734" y="701" on="0"/>
        <pt x="734" y="685" on="1"/>
        <pt x="734" y="670" on="0"/>
        <pt x="720" y="636" on="0"/>
        <pt x="698" y="602" on="0"/>
        <pt x="673" y="569" on="0"/>
        <pt x="662" y="555" on="1"/>
        <pt x="681" y="520" on="0"/>
        <pt x="702" y="453" on="0"/>
        <pt x="707" y="426" on="1"/>
        <pt x="712" y="394" on="0"/>
        <pt x="713" y="365" on="1"/>
        <pt x="713" y="294" on="0"/>
        <pt x="685" y="187" on="0"/>
        <pt x="640" y="108" on="0"/>
        <pt x="583" y="54" on="0"/>
        <pt x="553" y="36" on="1"/>
        <pt x="483" y="-5" on="0"/>
        <pt x="393" y="-11" on="1"/>
        <pt x="336" y="-11" on="0"/>
        <pt x="246" y="9" on="0"/>
        <pt x="211" y="27" on="1"/>
        <pt x="199" y="14" on="0"/>
        <pt x="173" y="-14" on="0"/>
        <pt x="144" y="-38" on="0"/>
        <pt x="113" y="-53" on="0"/>
        <pt x="96" y="-53" on="1"/>
        <pt x="66" y="-53" on="0"/>
        <pt x="22" y="-8" on="0"/>
        <pt x="22" y="22" on="1"/>
        <pt x="22" y="36" on="0"/>
        <pt x="49" y="97" on="0"/>
        <pt x="82" y="151" on="1"/>
        <pt x="63" y="183" on="0"/>
        <pt x="44" y="247" on="0"/>
        <pt x="39" y="272" on="1"/>
        <pt x="34" y="301" on="0"/>
        <pt x="33" y="327" on="1"/>
        <pt x="33" y="405" on="0"/>
        <pt x="64" y="519" on="0"/>
        <pt x="115" y="602" on="0"/>
        <pt x="179" y="655" on="0"/>
        <pt x="213" y="671" on="1"/>
        <pt x="292" y="708" on="0"/>
      </contour>
      <contour>
        <pt x="378" y="383" on="1"/>
        <pt x="361" y="383" on="0"/>
        <pt x="336" y="357" on="0"/>
        <pt x="338" y="341" on="1"/>
        <pt x="340" y="320" on="0"/>
        <pt x="361" y="304" on="0"/>
        <pt x="378" y="304" on="1"/>
        <pt x="395" y="304" on="0"/>
        <pt x="417" y="324" on="0"/>
        <pt x="417" y="341" on="1"/>
        <pt x="417" y="357" on="0"/>
        <pt x="397" y="383" on="0"/>
      </contour>
    </TTGlyph>
    <TTGlyph name="Otilde" xMin="33" yMin="-11" xMax="713" yMax="946">
      <contour>
        <pt x="393" y="704" on="1"/>
        <pt x="453" y="704" on="0"/>
        <pt x="544" y="675" on="0"/>
        <pt x="612" y="627" on="0"/>
        <pt x="658" y="566" on="0"/>
        <pt x="673" y="534" on="1"/>
        <pt x="708" y="459" on="0"/>
        <pt x="713" y="365" on="1"/>
        <pt x="713" y="294" on="0"/>
        <pt x="685" y="187" on="0"/>
        <pt x="640" y="108" on="0"/>
        <pt x="583" y="54" on="0"/>
        <pt x="553" y="36" on="1"/>
        <pt x="483" y="-5" on="0"/>
        <pt x="393" y="-11" on="1"/>
        <pt x="325" y="-11" on="0"/>
        <pt x="223" y="18" on="0"/>
        <pt x="147" y="65" on="0"/>
        <pt x="95" y="126" on="0"/>
        <pt x="78" y="158" on="1"/>
        <pt x="38" y="232" on="0"/>
        <pt x="33" y="327" on="1"/>
        <pt x="33" y="405" on="0"/>
        <pt x="64" y="519" on="0"/>
        <pt x="115" y="602" on="0"/>
        <pt x="179" y="655" on="0"/>
        <pt x="213" y="671" on="1"/>
        <pt x="292" y="708" on="0"/>
      </contour>
      <contour>
        <pt x="560" y="808" on="1"/>
        <pt x="545" y="781" on="0"/>
        <pt x="507" y="753" on="0"/>
        <pt x="467" y="743" on="0"/>
        <pt x="426" y="749" on="0"/>
        <pt x="407" y="756" on="1"/>
        <pt x="362" y="773" on="0"/>
        <pt x="315" y="812" on="1"/>
        <pt x="306" y="778" on="0"/>
        <pt x="273" y="751" on="0"/>
        <pt x="256" y="748" on="1"/>
        <pt x="237" y="744" on="0"/>
        <pt x="215" y="751" on="1"/>
        <pt x="202" y="755" on="0"/>
        <pt x="181" y="775" on="0"/>
        <pt x="169" y="801" on="0"/>
        <pt x="166" y="829" on="0"/>
        <pt x="171" y="842" on="1"/>
        <pt x="189" y="896" on="0"/>
        <pt x="223" y="922" on="1"/>
        <pt x="238" y="933" on="0"/>
        <pt x="277" y="946" on="0"/>
        <pt x="328" y="940" on="0"/>
        <pt x="392" y="911" on="0"/>
        <pt x="431" y="881" on="1"/>
        <pt x="433" y="877" on="1"/>
        <pt x="443" y="906" on="0"/>
        <pt x="489" y="939" on="0"/>
        <pt x="520" y="929" on="1"/>
        <pt x="545" y="920" on="0"/>
        <pt x="560" y="904" on="1"/>
        <pt x="573" y="890" on="0"/>
        <pt x="580" y="843" on="0"/>
      </contour>
      <contour>
        <pt x="378" y="383" on="1"/>
        <pt x="361" y="383" on="0"/>
        <pt x="336" y="357" on="0"/>
        <pt x="338" y="341" on="1"/>
        <pt x="340" y="320" on="0"/>
        <pt x="361" y="304" on="0"/>
        <pt x="378" y="304" on="1"/>
        <pt x="395" y="304" on="0"/>
        <pt x="417" y="324" on="0"/>
        <pt x="417" y="341" on="1"/>
        <pt x="417" y="357" on="0"/>
        <pt x="397" y="383" on="0"/>
      </contour>
    </TTGlyph>
    <TTGlyph name="P" xMin="55" yMin="-3" xMax="695" yMax="725">
      <contour>
        <pt x="693" y="463" on="1"/>
        <pt x="695" y="408" on="0"/>
        <pt x="671" y="327" on="0"/>
        <pt x="629" y="270" on="0"/>
        <pt x="574" y="234" on="0"/>
        <pt x="545" y="224" on="1"/>
        <pt x="477" y="199" on="0"/>
        <pt x="390" y="205" on="1"/>
        <pt x="398" y="168" on="0"/>
        <pt x="398" y="112" on="0"/>
        <pt x="386" y="70" on="0"/>
        <pt x="366" y="41" on="0"/>
        <pt x="354" y="31" on="1"/>
        <pt x="326" y="8" on="0"/>
        <pt x="285" y="3" on="1"/>
        <pt x="226" y="-3" on="0"/>
        <pt x="148" y="39" on="0"/>
        <pt x="125" y="67" on="1"/>
        <pt x="98" y="100" on="0"/>
        <pt x="83" y="143" on="1"/>
        <pt x="60" y="221" on="0"/>
        <pt x="55" y="363" on="0"/>
        <pt x="62" y="418" on="1"/>
        <pt x="70" y="481" on="0"/>
        <pt x="87" y="537" on="1"/>
        <pt x="100" y="576" on="0"/>
        <pt x="141" y="633" on="0"/>
        <pt x="188" y="674" on="0"/>
        <pt x="240" y="699" on="0"/>
        <pt x="265" y="707" on="1"/>
        <pt x="324" y="725" on="0"/>
        <pt x="390" y="721" on="1"/>
        <pt x="446" y="719" on="0"/>
        <pt x="531" y="695" on="0"/>
        <pt x="594" y="658" on="0"/>
        <pt x="638" y="612" on="0"/>
        <pt x="653" y="588" on="1"/>
        <pt x="686" y="533" on="0"/>
      </contour>
      <contour>
        <pt x="388" y="483" on="1"/>
        <pt x="371" y="483" on="0"/>
        <pt x="346" y="457" on="0"/>
        <pt x="348" y="441" on="1"/>
        <pt x="350" y="420" on="0"/>
        <pt x="371" y="404" on="0"/>
        <pt x="388" y="404" on="1"/>
        <pt x="405" y="404" on="0"/>
        <pt x="427" y="424" on="0"/>
        <pt x="427" y="441" on="1"/>
        <pt x="427" y="457" on="0"/>
        <pt x="407" y="483" on="0"/>
      </contour>
    </TTGlyph>
    <TTGlyph name="Q" xMin="57" yMin="-52" xMax="800" yMax="705">
      <contour>
        <pt x="722" y="206" on="1"/>
        <pt x="742" y="191" on="0"/>
        <pt x="780" y="154" on="0"/>
        <pt x="800" y="108" on="0"/>
        <pt x="795" y="51" on="0"/>
        <pt x="771" y="15" on="1"/>
        <pt x="743" y="-27" on="0"/>
        <pt x="676" y="-52" on="0"/>
        <pt x="614" y="-41" on="0"/>
        <pt x="564" y="-7" on="0"/>
        <pt x="554" y="11" on="1"/>
        <pt x="528" y="0" on="0"/>
        <pt x="481" y="-11" on="0"/>
        <pt x="464" y="-14" on="1"/>
        <pt x="443" y="-18" on="0"/>
        <pt x="426" y="-18" on="1"/>
        <pt x="357" y="-18" on="0"/>
        <pt x="251" y="11" on="0"/>
        <pt x="173" y="59" on="0"/>
        <pt x="120" y="120" on="0"/>
        <pt x="103" y="152" on="1"/>
        <pt x="63" y="227" on="0"/>
        <pt x="57" y="323" on="1"/>
        <pt x="57" y="401" on="0"/>
        <pt x="89" y="516" on="0"/>
        <pt x="140" y="599" on="0"/>
        <pt x="206" y="652" on="0"/>
        <pt x="241" y="668" on="1"/>
        <pt x="322" y="705" on="0"/>
        <pt x="426" y="701" on="1"/>
        <pt x="487" y="701" on="0"/>
        <pt x="581" y="671" on="0"/>
        <pt x="650" y="623" on="0"/>
        <pt x="698" y="562" on="0"/>
        <pt x="713" y="530" on="1"/>
        <pt x="749" y="455" on="0"/>
        <pt x="754" y="360" on="1"/>
        <pt x="754" y="305" on="0"/>
        <pt x="736" y="235" on="0"/>
      </contour>
      <contour>
        <pt x="426" y="370" on="1"/>
        <pt x="409" y="370" on="0"/>
        <pt x="384" y="344" on="0"/>
        <pt x="386" y="328" on="1"/>
        <pt x="388" y="307" on="0"/>
        <pt x="409" y="291" on="0"/>
        <pt x="426" y="291" on="1"/>
        <pt x="443" y="291" on="0"/>
        <pt x="465" y="311" on="0"/>
        <pt x="465" y="328" on="1"/>
        <pt x="465" y="344" on="0"/>
        <pt x="445" y="370" on="0"/>
      </contour>
    </TTGlyph>
    <TTGlyph name="R" xMin="36" yMin="-15" xMax="672" yMax="712">
      <contour>
        <pt x="621" y="519" on="1"/>
        <pt x="631" y="465" on="0"/>
        <pt x="617" y="381" on="0"/>
        <pt x="606" y="352" on="1"/>
        <pt x="592" y="318" on="0"/>
        <pt x="572" y="293" on="1"/>
        <pt x="608" y="262" on="0"/>
        <pt x="651" y="205" on="0"/>
        <pt x="671" y="155" on="0"/>
        <pt x="672" y="112" on="0"/>
        <pt x="668" y="94" on="1"/>
        <pt x="657" y="52" on="0"/>
        <pt x="619" y="18" on="1"/>
        <pt x="582" y="-12" on="0"/>
        <pt x="513" y="-14" on="0"/>
        <pt x="454" y="19" on="0"/>
        <pt x="406" y="75" on="0"/>
        <pt x="371" y="130" on="0"/>
        <pt x="351" y="173" on="0"/>
        <pt x="350" y="176" on="1"/>
        <pt x="355" y="144" on="0"/>
        <pt x="350" y="93" on="0"/>
        <pt x="337" y="55" on="0"/>
        <pt x="316" y="28" on="0"/>
        <pt x="304" y="19" on="1"/>
        <pt x="277" y="-3" on="0"/>
        <pt x="239" y="-8" on="1"/>
        <pt x="189" y="-15" on="0"/>
        <pt x="123" y="22" on="0"/>
        <pt x="104" y="46" on="1"/>
        <pt x="81" y="74" on="0"/>
        <pt x="70" y="112" on="1"/>
        <pt x="44" y="200" on="0"/>
        <pt x="36" y="345" on="0"/>
        <pt x="41" y="399" on="1"/>
        <pt x="47" y="461" on="0"/>
        <pt x="63" y="512" on="1"/>
        <pt x="73" y="553" on="0"/>
        <pt x="109" y="613" on="0"/>
        <pt x="154" y="657" on="0"/>
        <pt x="204" y="685" on="0"/>
        <pt x="228" y="693" on="1"/>
        <pt x="285" y="712" on="0"/>
        <pt x="350" y="709" on="1"/>
        <pt x="394" y="709" on="0"/>
        <pt x="464" y="692" on="0"/>
        <pt x="519" y="665" on="0"/>
        <pt x="560" y="632" on="0"/>
        <pt x="574" y="614" on="1"/>
        <pt x="607" y="573" on="0"/>
      </contour>
      <contour>
        <pt x="350" y="450" on="1"/>
        <pt x="333" y="450" on="0"/>
        <pt x="308" y="424" on="0"/>
        <pt x="310" y="408" on="1"/>
        <pt x="312" y="387" on="0"/>
        <pt x="333" y="371" on="0"/>
        <pt x="350" y="371" on="1"/>
        <pt x="367" y="371" on="0"/>
        <pt x="389" y="391" on="0"/>
        <pt x="389" y="408" on="1"/>
        <pt x="389" y="424" on="0"/>
        <pt x="369" y="450" on="0"/>
      </contour>
    </TTGlyph>
    <TTGlyph name="S" xMin="35" yMin="-10" xMax="591" yMax="710">
      <contour>
        <pt x="306" y="460" on="1"/>
        <pt x="362" y="452" on="0"/>
        <pt x="446" y="426" on="0"/>
        <pt x="507" y="392" on="0"/>
        <pt x="547" y="354" on="0"/>
        <pt x="560" y="335" on="1"/>
        <pt x="590" y="291" on="0"/>
        <pt x="591" y="239" on="1"/>
        <pt x="591" y="194" on="0"/>
        <pt x="569" y="124" on="0"/>
        <pt x="532" y="73" on="0"/>
        <pt x="485" y="38" on="0"/>
        <pt x="461" y="26" on="1"/>
        <pt x="404" y="-1" on="0"/>
        <pt x="331" y="-6" on="1"/>
        <pt x="275" y="-10" on="0"/>
        <pt x="189" y="-2" on="0"/>
        <pt x="126" y="17" on="0"/>
        <pt x="83" y="43" on="0"/>
        <pt x="70" y="58" on="1"/>
        <pt x="37" y="92" on="0"/>
        <pt x="35" y="138" on="1"/>
        <pt x="35" y="171" on="0"/>
        <pt x="53" y="217" on="0"/>
        <pt x="85" y="248" on="0"/>
        <pt x="126" y="267" on="0"/>
        <pt x="147" y="272" on="1"/>
        <pt x="197" y="283" on="0"/>
        <pt x="261" y="275" on="1"/>
        <pt x="217" y="285" on="0"/>
        <pt x="154" y="316" on="0"/>
        <pt x="110" y="355" on="0"/>
        <pt x="83" y="397" on="0"/>
        <pt x="75" y="417" on="1"/>
        <pt x="57" y="465" on="0"/>
        <pt x="63" y="519" on="1"/>
        <pt x="68" y="556" on="0"/>
        <pt x="93" y="612" on="0"/>
        <pt x="127" y="652" on="0"/>
        <pt x="166" y="679" on="0"/>
        <pt x="186" y="687" on="1"/>
        <pt x="233" y="706" on="0"/>
        <pt x="289" y="706" on="1"/>
        <pt x="382" y="710" on="0"/>
        <pt x="491" y="683" on="0"/>
        <pt x="546" y="639" on="0"/>
        <pt x="559" y="586" on="0"/>
        <pt x="557" y="564" on="1"/>
        <pt x="554" y="539" on="0"/>
        <pt x="530" y="504" on="0"/>
        <pt x="494" y="480" on="0"/>
        <pt x="449" y="465" on="0"/>
        <pt x="426" y="462" on="1"/>
        <pt x="372" y="453" on="0"/>
      </contour>
    </TTGlyph>
    <TTGlyph name="Scaron" xMin="35" yMin="-8" xMax="591" yMax="937">
      <contour>
        <pt x="306" y="460" on="1"/>
        <pt x="395" y="448" on="0"/>
        <pt x="506" y="397" on="0"/>
        <pt x="567" y="334" on="0"/>
        <pt x="590" y="267" on="0"/>
        <pt x="591" y="239" on="1"/>
        <pt x="591" y="182" on="0"/>
        <pt x="558" y="101" on="0"/>
        <pt x="505" y="46" on="0"/>
        <pt x="438" y="14" on="0"/>
        <pt x="369" y="-3" on="0"/>
        <pt x="303" y="-8" on="0"/>
        <pt x="279" y="-8" on="1"/>
        <pt x="204" y="-8" on="0"/>
        <pt x="110" y="21" on="0"/>
        <pt x="57" y="65" on="0"/>
        <pt x="36" y="116" on="0"/>
        <pt x="35" y="138" on="1"/>
        <pt x="35" y="181" on="0"/>
        <pt x="68" y="236" on="0"/>
        <pt x="119" y="267" on="0"/>
        <pt x="181" y="278" on="0"/>
        <pt x="210" y="278" on="1"/>
        <pt x="234" y="278" on="0"/>
        <pt x="261" y="275" on="1"/>
        <pt x="196" y="290" on="0"/>
        <pt x="118" y="343" on="0"/>
        <pt x="75" y="404" on="0"/>
        <pt x="61" y="467" on="0"/>
        <pt x="61" y="492" on="1"/>
        <pt x="61" y="562" on="0"/>
        <pt x="113" y="647" on="0"/>
        <pt x="186" y="692" on="0"/>
        <pt x="263" y="706" on="0"/>
        <pt x="289" y="706" on="1"/>
        <pt x="299" y="706" on="0"/>
        <pt x="318" y="707" on="0"/>
        <pt x="328" y="707" on="1"/>
        <pt x="402" y="707" on="0"/>
        <pt x="492" y="682" on="0"/>
        <pt x="541" y="643" on="0"/>
        <pt x="557" y="598" on="0"/>
        <pt x="557" y="577" on="1"/>
        <pt x="557" y="539" on="0"/>
        <pt x="518" y="492" on="0"/>
        <pt x="459" y="466" on="0"/>
        <pt x="391" y="457" on="0"/>
        <pt x="361" y="457" on="1"/>
        <pt x="334" y="457" on="0"/>
      </contour>
      <contour>
        <pt x="472" y="843" on="1"/>
        <pt x="471" y="842" on="0"/>
        <pt x="445" y="812" on="0"/>
        <pt x="403" y="778" on="0"/>
        <pt x="349" y="749" on="0"/>
        <pt x="320" y="749" on="1"/>
        <pt x="292" y="749" on="0"/>
        <pt x="239" y="778" on="0"/>
        <pt x="198" y="813" on="0"/>
        <pt x="173" y="844" on="0"/>
        <pt x="172" y="846" on="1"/>
        <pt x="161" y="860" on="0"/>
        <pt x="161" y="878" on="1"/>
        <pt x="161" y="900" on="0"/>
        <pt x="194" y="936" on="0"/>
        <pt x="220" y="936" on="1"/>
        <pt x="247" y="936" on="0"/>
        <pt x="265" y="911" on="1"/>
        <pt x="266" y="910" on="0"/>
        <pt x="275" y="900" on="0"/>
        <pt x="289" y="885" on="0"/>
        <pt x="309" y="869" on="0"/>
        <pt x="320" y="863" on="1"/>
        <pt x="341" y="876" on="0"/>
        <pt x="370" y="903" on="0"/>
        <pt x="393" y="924" on="0"/>
        <pt x="414" y="937" on="0"/>
        <pt x="428" y="937" on="1"/>
        <pt x="437" y="937" on="0"/>
        <pt x="457" y="928" on="0"/>
        <pt x="474" y="912" on="0"/>
        <pt x="485" y="891" on="0"/>
        <pt x="485" y="878" on="1"/>
        <pt x="485" y="859" on="0"/>
      </contour>
    </TTGlyph>
    <TTGlyph name="T" xMin="20" yMin="-11" xMax="696" yMax="717">
      <contour>
        <pt x="223" y="415" on="1"/>
        <pt x="166" y="411" on="0"/>
        <pt x="121" y="423" on="1"/>
        <pt x="102" y="428" on="0"/>
        <pt x="66" y="447" on="0"/>
        <pt x="37" y="476" on="0"/>
        <pt x="20" y="518" on="0"/>
        <pt x="20" y="547" on="1"/>
        <pt x="20" y="597" on="0"/>
        <pt x="61" y="656" on="0"/>
        <pt x="86" y="671" on="1"/>
        <pt x="115" y="689" on="0"/>
        <pt x="152" y="695" on="1"/>
        <pt x="232" y="712" on="0"/>
        <pt x="384" y="717" on="0"/>
        <pt x="445" y="713" on="1"/>
        <pt x="515" y="709" on="0"/>
        <pt x="580" y="698" on="1"/>
        <pt x="626" y="688" on="0"/>
        <pt x="673" y="646" on="0"/>
        <pt x="684" y="624" on="1"/>
        <pt x="696" y="598" on="0"/>
        <pt x="696" y="569" on="1"/>
        <pt x="695" y="537" on="0"/>
        <pt x="678" y="491" on="0"/>
        <pt x="651" y="458" on="0"/>
        <pt x="617" y="438" on="0"/>
        <pt x="600" y="432" on="1"/>
        <pt x="560" y="419" on="0"/>
        <pt x="509" y="423" on="1"/>
        <pt x="522" y="347" on="0"/>
        <pt x="525" y="230" on="0"/>
        <pt x="522" y="189" on="1"/>
        <pt x="518" y="141" on="0"/>
        <pt x="509" y="107" on="1"/>
        <pt x="499" y="59" on="0"/>
        <pt x="454" y="13" on="0"/>
        <pt x="431" y="2" on="1"/>
        <pt x="404" y="-10" on="0"/>
        <pt x="373" y="-10" on="1"/>
        <pt x="338" y="-11" on="0"/>
        <pt x="308" y="0" on="1"/>
        <pt x="282" y="10" on="0"/>
        <pt x="234" y="58" on="0"/>
        <pt x="223" y="107" on="1"/>
        <pt x="212" y="158" on="0"/>
        <pt x="209" y="267" on="0"/>
        <pt x="212" y="312" on="1"/>
        <pt x="216" y="365" on="0"/>
      </contour>
    </TTGlyph>
    <TTGlyph name="Thorn" xMin="26" yMin="-19" xMax="667" yMax="757">
      <contour>
        <pt x="665" y="370" on="1"/>
        <pt x="667" y="323" on="0"/>
        <pt x="644" y="255" on="0"/>
        <pt x="603" y="207" on="0"/>
        <pt x="550" y="177" on="0"/>
        <pt x="522" y="168" on="1"/>
        <pt x="456" y="147" on="0"/>
        <pt x="371" y="152" on="1"/>
        <pt x="377" y="120" on="0"/>
        <pt x="374" y="71" on="0"/>
        <pt x="360" y="35" on="0"/>
        <pt x="337" y="11" on="0"/>
        <pt x="324" y="3" on="1"/>
        <pt x="293" y="-15" on="0"/>
        <pt x="250" y="-17" on="1"/>
        <pt x="197" y="-19" on="0"/>
        <pt x="127" y="15" on="0"/>
        <pt x="106" y="37" on="1"/>
        <pt x="81" y="63" on="0"/>
        <pt x="67" y="96" on="1"/>
        <pt x="53" y="136" on="0"/>
        <pt x="36" y="205" on="0"/>
        <pt x="28" y="270" on="0"/>
        <pt x="26" y="334" on="0"/>
        <pt x="26" y="367" on="1"/>
        <pt x="26" y="400" on="0"/>
        <pt x="29" y="460" on="0"/>
        <pt x="38" y="522" on="0"/>
        <pt x="52" y="588" on="0"/>
        <pt x="64" y="627" on="1"/>
        <pt x="77" y="666" on="0"/>
        <pt x="102" y="695" on="1"/>
        <pt x="123" y="720" on="0"/>
        <pt x="193" y="757" on="0"/>
        <pt x="247" y="752" on="1"/>
        <pt x="290" y="748" on="0"/>
        <pt x="322" y="730" on="1"/>
        <pt x="335" y="722" on="0"/>
        <pt x="359" y="698" on="0"/>
        <pt x="374" y="663" on="0"/>
        <pt x="378" y="617" on="0"/>
        <pt x="372" y="587" on="1"/>
        <pt x="428" y="585" on="0"/>
        <pt x="512" y="565" on="0"/>
        <pt x="574" y="533" on="0"/>
        <pt x="616" y="495" on="0"/>
        <pt x="630" y="475" on="1"/>
        <pt x="662" y="428" on="0"/>
      </contour>
      <contour>
        <pt x="386" y="401" on="1"/>
        <pt x="369" y="401" on="0"/>
        <pt x="344" y="375" on="0"/>
        <pt x="346" y="359" on="1"/>
        <pt x="348" y="338" on="0"/>
        <pt x="369" y="322" on="0"/>
        <pt x="386" y="322" on="1"/>
        <pt x="403" y="322" on="0"/>
        <pt x="425" y="342" on="0"/>
        <pt x="425" y="359" on="1"/>
        <pt x="425" y="375" on="0"/>
        <pt x="405" y="401" on="0"/>
      </contour>
    </TTGlyph>
    <TTGlyph name="U" xMin="39" yMin="-15" xMax="740" yMax="713">
      <contour>
        <pt x="215" y="711" on="1"/>
        <pt x="251" y="709" on="0"/>
        <pt x="279" y="692" on="1"/>
        <pt x="303" y="678" on="0"/>
        <pt x="344" y="616" on="0"/>
        <pt x="344" y="559" on="1"/>
        <pt x="344" y="516" on="0"/>
        <pt x="342" y="439" on="0"/>
        <pt x="348" y="380" on="0"/>
        <pt x="365" y="345" on="0"/>
        <pt x="383" y="345" on="1"/>
        <pt x="401" y="345" on="0"/>
        <pt x="418" y="380" on="0"/>
        <pt x="424" y="439" on="0"/>
        <pt x="422" y="516" on="0"/>
        <pt x="421" y="559" on="1"/>
        <pt x="420" y="587" on="0"/>
        <pt x="431" y="630" on="0"/>
        <pt x="451" y="662" on="0"/>
        <pt x="476" y="683" on="0"/>
        <pt x="489" y="689" on="1"/>
        <pt x="520" y="704" on="0"/>
        <pt x="560" y="704" on="1"/>
        <pt x="611" y="707" on="0"/>
        <pt x="674" y="673" on="0"/>
        <pt x="692" y="652" on="1"/>
        <pt x="712" y="626" on="0"/>
        <pt x="722" y="594" on="1"/>
        <pt x="739" y="518" on="0"/>
        <pt x="740" y="377" on="0"/>
        <pt x="733" y="322" on="1"/>
        <pt x="725" y="258" on="0"/>
        <pt x="710" y="201" on="1"/>
        <pt x="689" y="140" on="0"/>
        <pt x="648" y="92" on="1"/>
        <pt x="630" y="72" on="0"/>
        <pt x="583" y="33" on="0"/>
        <pt x="520" y="3" on="0"/>
        <pt x="441" y="-15" on="0"/>
        <pt x="393" y="-15" on="1"/>
        <pt x="352" y="-15" on="0"/>
        <pt x="285" y="-2" on="0"/>
        <pt x="229" y="18" on="0"/>
        <pt x="185" y="44" on="0"/>
        <pt x="168" y="57" on="1"/>
        <pt x="128" y="88" on="0"/>
        <pt x="105" y="127" on="1"/>
        <pt x="86" y="159" on="0"/>
        <pt x="62" y="230" on="0"/>
        <pt x="47" y="303" on="0"/>
        <pt x="40" y="374" on="0"/>
        <pt x="40" y="407" on="1"/>
        <pt x="39" y="484" on="0"/>
        <pt x="50" y="559" on="1"/>
        <pt x="62" y="622" on="0"/>
        <pt x="116" y="685" on="0"/>
        <pt x="144" y="698" on="1"/>
        <pt x="177" y="713" on="0"/>
      </contour>
    </TTGlyph>
    <TTGlyph name="Uacute" xMin="39" yMin="-15" xMax="740" yMax="950">
      <contour>
        <pt x="215" y="711" on="1"/>
        <pt x="251" y="709" on="0"/>
        <pt x="279" y="692" on="1"/>
        <pt x="303" y="678" on="0"/>
        <pt x="344" y="616" on="0"/>
        <pt x="344" y="559" on="1"/>
        <pt x="344" y="516" on="0"/>
        <pt x="342" y="439" on="0"/>
        <pt x="348" y="380" on="0"/>
        <pt x="365" y="345" on="0"/>
        <pt x="383" y="345" on="1"/>
        <pt x="401" y="345" on="0"/>
        <pt x="418" y="380" on="0"/>
        <pt x="424" y="439" on="0"/>
        <pt x="422" y="516" on="0"/>
        <pt x="421" y="559" on="1"/>
        <pt x="420" y="587" on="0"/>
        <pt x="431" y="630" on="0"/>
        <pt x="451" y="662" on="0"/>
        <pt x="476" y="683" on="0"/>
        <pt x="489" y="689" on="1"/>
        <pt x="520" y="704" on="0"/>
        <pt x="560" y="704" on="1"/>
        <pt x="611" y="707" on="0"/>
        <pt x="674" y="673" on="0"/>
        <pt x="692" y="652" on="1"/>
        <pt x="712" y="626" on="0"/>
        <pt x="722" y="594" on="1"/>
        <pt x="739" y="518" on="0"/>
        <pt x="740" y="377" on="0"/>
        <pt x="733" y="322" on="1"/>
        <pt x="725" y="258" on="0"/>
        <pt x="710" y="201" on="1"/>
        <pt x="689" y="140" on="0"/>
        <pt x="648" y="92" on="1"/>
        <pt x="630" y="72" on="0"/>
        <pt x="583" y="33" on="0"/>
        <pt x="520" y="3" on="0"/>
        <pt x="441" y="-15" on="0"/>
        <pt x="393" y="-15" on="1"/>
        <pt x="352" y="-15" on="0"/>
        <pt x="285" y="-2" on="0"/>
        <pt x="229" y="18" on="0"/>
        <pt x="185" y="44" on="0"/>
        <pt x="168" y="57" on="1"/>
        <pt x="128" y="88" on="0"/>
        <pt x="105" y="127" on="1"/>
        <pt x="86" y="159" on="0"/>
        <pt x="62" y="230" on="0"/>
        <pt x="47" y="303" on="0"/>
        <pt x="40" y="374" on="0"/>
        <pt x="40" y="407" on="1"/>
        <pt x="39" y="484" on="0"/>
        <pt x="50" y="559" on="1"/>
        <pt x="62" y="622" on="0"/>
        <pt x="116" y="685" on="0"/>
        <pt x="144" y="698" on="1"/>
        <pt x="177" y="713" on="0"/>
      </contour>
      <contour>
        <pt x="287" y="853" on="1"/>
        <pt x="295" y="863" on="0"/>
        <pt x="326" y="890" on="0"/>
        <pt x="362" y="915" on="0"/>
        <pt x="401" y="936" on="0"/>
        <pt x="417" y="941" on="1"/>
        <pt x="439" y="948" on="0"/>
        <pt x="472" y="950" on="0"/>
        <pt x="495" y="943" on="0"/>
        <pt x="512" y="930" on="0"/>
        <pt x="520" y="923" on="1"/>
        <pt x="528" y="915" on="0"/>
        <pt x="542" y="889" on="0"/>
        <pt x="545" y="859" on="0"/>
        <pt x="533" y="826" on="0"/>
        <pt x="514" y="810" on="1"/>
        <pt x="493" y="791" on="0"/>
        <pt x="437" y="768" on="0"/>
        <pt x="411" y="760" on="1"/>
        <pt x="381" y="751" on="0"/>
        <pt x="351" y="746" on="1"/>
        <pt x="335" y="742" on="0"/>
        <pt x="320" y="744" on="1"/>
        <pt x="307" y="746" on="0"/>
        <pt x="281" y="758" on="0"/>
        <pt x="273" y="775" on="1"/>
        <pt x="265" y="790" on="0"/>
        <pt x="267" y="818" on="0"/>
        <pt x="272" y="829" on="1"/>
        <pt x="277" y="841" on="0"/>
      </contour>
    </TTGlyph>
    <TTGlyph name="Ucircumflex" xMin="39" yMin="-15" xMax="740" yMax="925">
      <contour>
        <pt x="215" y="711" on="1"/>
        <pt x="251" y="709" on="0"/>
        <pt x="279" y="692" on="1"/>
        <pt x="303" y="678" on="0"/>
        <pt x="344" y="616" on="0"/>
        <pt x="344" y="559" on="1"/>
        <pt x="344" y="516" on="0"/>
        <pt x="342" y="439" on="0"/>
        <pt x="348" y="380" on="0"/>
        <pt x="365" y="345" on="0"/>
        <pt x="383" y="345" on="1"/>
        <pt x="401" y="345" on="0"/>
        <pt x="418" y="380" on="0"/>
        <pt x="424" y="439" on="0"/>
        <pt x="422" y="516" on="0"/>
        <pt x="421" y="559" on="1"/>
        <pt x="420" y="587" on="0"/>
        <pt x="431" y="630" on="0"/>
        <pt x="451" y="662" on="0"/>
        <pt x="476" y="683" on="0"/>
        <pt x="489" y="689" on="1"/>
        <pt x="520" y="704" on="0"/>
        <pt x="560" y="704" on="1"/>
        <pt x="611" y="707" on="0"/>
        <pt x="674" y="673" on="0"/>
        <pt x="692" y="652" on="1"/>
        <pt x="712" y="626" on="0"/>
        <pt x="722" y="594" on="1"/>
        <pt x="739" y="518" on="0"/>
        <pt x="740" y="377" on="0"/>
        <pt x="733" y="322" on="1"/>
        <pt x="725" y="258" on="0"/>
        <pt x="710" y="201" on="1"/>
        <pt x="689" y="140" on="0"/>
        <pt x="648" y="92" on="1"/>
        <pt x="630" y="72" on="0"/>
        <pt x="583" y="33" on="0"/>
        <pt x="520" y="3" on="0"/>
        <pt x="441" y="-15" on="0"/>
        <pt x="393" y="-15" on="1"/>
        <pt x="352" y="-15" on="0"/>
        <pt x="285" y="-2" on="0"/>
        <pt x="229" y="18" on="0"/>
        <pt x="185" y="44" on="0"/>
        <pt x="168" y="57" on="1"/>
        <pt x="128" y="88" on="0"/>
        <pt x="105" y="127" on="1"/>
        <pt x="86" y="159" on="0"/>
        <pt x="62" y="230" on="0"/>
        <pt x="47" y="303" on="0"/>
        <pt x="40" y="374" on="0"/>
        <pt x="40" y="407" on="1"/>
        <pt x="39" y="484" on="0"/>
        <pt x="50" y="559" on="1"/>
        <pt x="62" y="622" on="0"/>
        <pt x="116" y="685" on="0"/>
        <pt x="144" y="698" on="1"/>
        <pt x="177" y="713" on="0"/>
      </contour>
      <contour>
        <pt x="237" y="831" on="1"/>
        <pt x="238" y="832" on="0"/>
        <pt x="264" y="862" on="0"/>
        <pt x="306" y="896" on="0"/>
        <pt x="360" y="925" on="0"/>
        <pt x="389" y="925" on="1"/>
        <pt x="417" y="925" on="0"/>
        <pt x="469" y="896" on="0"/>
        <pt x="511" y="860" on="0"/>
        <pt x="536" y="829" on="0"/>
        <pt x="537" y="828" on="1"/>
        <pt x="551" y="809" on="0"/>
        <pt x="543" y="763" on="0"/>
        <pt x="523" y="749" on="1"/>
        <pt x="503" y="735" on="0"/>
        <pt x="457" y="743" on="0"/>
        <pt x="443" y="763" on="1"/>
        <pt x="441" y="764" on="0"/>
        <pt x="412" y="798" on="0"/>
        <pt x="389" y="811" on="1"/>
        <pt x="375" y="802" on="0"/>
        <pt x="351" y="784" on="0"/>
        <pt x="343" y="776" on="1"/>
        <pt x="333" y="767" on="0"/>
        <pt x="326" y="760" on="1"/>
        <pt x="315" y="748" on="0"/>
        <pt x="303" y="742" on="1"/>
        <pt x="292" y="737" on="0"/>
        <pt x="263" y="737" on="0"/>
        <pt x="246" y="751" on="1"/>
        <pt x="227" y="766" on="0"/>
        <pt x="222" y="813" on="0"/>
      </contour>
    </TTGlyph>
    <TTGlyph name="Udieresis" xMin="39" yMin="-15" xMax="740" yMax="917">
      <contour>
        <pt x="215" y="711" on="1"/>
        <pt x="251" y="709" on="0"/>
        <pt x="279" y="692" on="1"/>
        <pt x="303" y="678" on="0"/>
        <pt x="344" y="616" on="0"/>
        <pt x="344" y="559" on="1"/>
        <pt x="344" y="516" on="0"/>
        <pt x="342" y="439" on="0"/>
        <pt x="348" y="380" on="0"/>
        <pt x="365" y="345" on="0"/>
        <pt x="383" y="345" on="1"/>
        <pt x="401" y="345" on="0"/>
        <pt x="418" y="380" on="0"/>
        <pt x="424" y="439" on="0"/>
        <pt x="422" y="516" on="0"/>
        <pt x="421" y="559" on="1"/>
        <pt x="420" y="587" on="0"/>
        <pt x="431" y="630" on="0"/>
        <pt x="451" y="662" on="0"/>
        <pt x="476" y="683" on="0"/>
        <pt x="489" y="689" on="1"/>
        <pt x="520" y="704" on="0"/>
        <pt x="560" y="704" on="1"/>
        <pt x="611" y="707" on="0"/>
        <pt x="674" y="673" on="0"/>
        <pt x="692" y="652" on="1"/>
        <pt x="712" y="626" on="0"/>
        <pt x="722" y="594" on="1"/>
        <pt x="739" y="518" on="0"/>
        <pt x="740" y="377" on="0"/>
        <pt x="733" y="322" on="1"/>
        <pt x="725" y="258" on="0"/>
        <pt x="710" y="201" on="1"/>
        <pt x="689" y="140" on="0"/>
        <pt x="648" y="92" on="1"/>
        <pt x="630" y="72" on="0"/>
        <pt x="583" y="33" on="0"/>
        <pt x="520" y="3" on="0"/>
        <pt x="441" y="-15" on="0"/>
        <pt x="393" y="-15" on="1"/>
        <pt x="352" y="-15" on="0"/>
        <pt x="285" y="-2" on="0"/>
        <pt x="229" y="18" on="0"/>
        <pt x="185" y="44" on="0"/>
        <pt x="168" y="57" on="1"/>
        <pt x="128" y="88" on="0"/>
        <pt x="105" y="127" on="1"/>
        <pt x="86" y="159" on="0"/>
        <pt x="62" y="230" on="0"/>
        <pt x="47" y="303" on="0"/>
        <pt x="40" y="374" on="0"/>
        <pt x="40" y="407" on="1"/>
        <pt x="39" y="484" on="0"/>
        <pt x="50" y="559" on="1"/>
        <pt x="62" y="622" on="0"/>
        <pt x="116" y="685" on="0"/>
        <pt x="144" y="698" on="1"/>
        <pt x="177" y="713" on="0"/>
      </contour>
      <contour>
        <pt x="369" y="840" on="1"/>
        <pt x="369" y="808" on="0"/>
        <pt x="330" y="762" on="0"/>
        <pt x="292" y="762" on="1"/>
        <pt x="254" y="762" on="0"/>
        <pt x="215" y="808" on="0"/>
        <pt x="215" y="840" on="1"/>
        <pt x="215" y="872" on="0"/>
        <pt x="254" y="917" on="0"/>
        <pt x="292" y="917" on="1"/>
        <pt x="330" y="917" on="0"/>
        <pt x="369" y="872" on="0"/>
      </contour>
      <contour>
        <pt x="552" y="840" on="1"/>
        <pt x="552" y="808" on="0"/>
        <pt x="513" y="762" on="0"/>
        <pt x="475" y="762" on="1"/>
        <pt x="437" y="762" on="0"/>
        <pt x="398" y="808" on="0"/>
        <pt x="398" y="840" on="1"/>
        <pt x="398" y="872" on="0"/>
        <pt x="437" y="917" on="0"/>
        <pt x="475" y="917" on="1"/>
        <pt x="513" y="917" on="0"/>
        <pt x="552" y="872" on="0"/>
      </contour>
    </TTGlyph>
    <TTGlyph name="Ugrave" xMin="39" yMin="-15" xMax="740" yMax="945">
      <contour>
        <pt x="215" y="711" on="1"/>
        <pt x="251" y="709" on="0"/>
        <pt x="279" y="692" on="1"/>
        <pt x="303" y="678" on="0"/>
        <pt x="344" y="616" on="0"/>
        <pt x="344" y="559" on="1"/>
        <pt x="344" y="516" on="0"/>
        <pt x="342" y="439" on="0"/>
        <pt x="348" y="380" on="0"/>
        <pt x="365" y="345" on="0"/>
        <pt x="383" y="345" on="1"/>
        <pt x="401" y="345" on="0"/>
        <pt x="418" y="380" on="0"/>
        <pt x="424" y="439" on="0"/>
        <pt x="422" y="516" on="0"/>
        <pt x="421" y="559" on="1"/>
        <pt x="420" y="587" on="0"/>
        <pt x="431" y="630" on="0"/>
        <pt x="451" y="662" on="0"/>
        <pt x="476" y="683" on="0"/>
        <pt x="489" y="689" on="1"/>
        <pt x="520" y="704" on="0"/>
        <pt x="560" y="704" on="1"/>
        <pt x="611" y="707" on="0"/>
        <pt x="674" y="673" on="0"/>
        <pt x="692" y="652" on="1"/>
        <pt x="712" y="626" on="0"/>
        <pt x="722" y="594" on="1"/>
        <pt x="739" y="518" on="0"/>
        <pt x="740" y="377" on="0"/>
        <pt x="733" y="322" on="1"/>
        <pt x="725" y="258" on="0"/>
        <pt x="710" y="201" on="1"/>
        <pt x="689" y="140" on="0"/>
        <pt x="648" y="92" on="1"/>
        <pt x="630" y="72" on="0"/>
        <pt x="583" y="33" on="0"/>
        <pt x="520" y="3" on="0"/>
        <pt x="441" y="-15" on="0"/>
        <pt x="393" y="-15" on="1"/>
        <pt x="352" y="-15" on="0"/>
        <pt x="285" y="-2" on="0"/>
        <pt x="229" y="18" on="0"/>
        <pt x="185" y="44" on="0"/>
        <pt x="168" y="57" on="1"/>
        <pt x="128" y="88" on="0"/>
        <pt x="105" y="127" on="1"/>
        <pt x="86" y="159" on="0"/>
        <pt x="62" y="230" on="0"/>
        <pt x="47" y="303" on="0"/>
        <pt x="40" y="374" on="0"/>
        <pt x="40" y="407" on="1"/>
        <pt x="39" y="484" on="0"/>
        <pt x="50" y="559" on="1"/>
        <pt x="62" y="622" on="0"/>
        <pt x="116" y="685" on="0"/>
        <pt x="144" y="698" on="1"/>
        <pt x="177" y="713" on="0"/>
      </contour>
      <contour>
        <pt x="339" y="936" on="1"/>
        <pt x="355" y="931" on="0"/>
        <pt x="394" y="910" on="0"/>
        <pt x="430" y="885" on="0"/>
        <pt x="461" y="858" on="0"/>
        <pt x="469" y="848" on="1"/>
        <pt x="478" y="836" on="0"/>
        <pt x="483" y="824" on="1"/>
        <pt x="488" y="813" on="0"/>
        <pt x="491" y="785" on="0"/>
        <pt x="483" y="770" on="1"/>
        <pt x="475" y="753" on="0"/>
        <pt x="449" y="741" on="0"/>
        <pt x="436" y="739" on="1"/>
        <pt x="421" y="737" on="0"/>
        <pt x="405" y="741" on="1"/>
        <pt x="374" y="746" on="0"/>
        <pt x="344" y="755" on="1"/>
        <pt x="318" y="763" on="0"/>
        <pt x="263" y="786" on="0"/>
        <pt x="242" y="805" on="1"/>
        <pt x="223" y="821" on="0"/>
        <pt x="211" y="854" on="0"/>
        <pt x="214" y="884" on="0"/>
        <pt x="228" y="910" on="0"/>
        <pt x="236" y="918" on="1"/>
        <pt x="243" y="925" on="0"/>
        <pt x="261" y="938" on="0"/>
        <pt x="284" y="945" on="0"/>
        <pt x="316" y="943" on="0"/>
      </contour>
    </TTGlyph>
    <TTGlyph name="V" xMin="27" yMin="-5" xMax="786" yMax="724">
      <contour>
        <pt x="419" y="424" on="1"/>
        <pt x="432" y="517" on="0"/>
        <pt x="464" y="587" on="1"/>
        <pt x="477" y="617" on="0"/>
        <pt x="515" y="670" on="0"/>
        <pt x="566" y="708" on="0"/>
        <pt x="630" y="724" on="0"/>
        <pt x="671" y="715" on="1"/>
        <pt x="710" y="706" on="0"/>
        <pt x="757" y="665" on="0"/>
        <pt x="781" y="609" on="0"/>
        <pt x="786" y="542" on="0"/>
        <pt x="783" y="509" on="1"/>
        <pt x="776" y="431" on="0"/>
        <pt x="741" y="337" on="1"/>
        <pt x="706" y="241" on="0"/>
        <pt x="658" y="166" on="1"/>
        <pt x="638" y="134" on="0"/>
        <pt x="587" y="72" on="0"/>
        <pt x="527" y="24" on="0"/>
        <pt x="458" y="-5" on="0"/>
        <pt x="419" y="-5" on="1"/>
        <pt x="363" y="-5" on="0"/>
        <pt x="271" y="38" on="0"/>
        <pt x="197" y="108" on="0"/>
        <pt x="141" y="194" on="0"/>
        <pt x="99" y="279" on="0"/>
        <pt x="71" y="355" on="0"/>
        <pt x="63" y="380" on="1"/>
        <pt x="55" y="404" on="0"/>
        <pt x="36" y="468" on="0"/>
        <pt x="27" y="536" on="0"/>
        <pt x="32" y="604" on="0"/>
        <pt x="61" y="662" on="0"/>
        <pt x="120" y="704" on="0"/>
        <pt x="169" y="713" on="1"/>
        <pt x="206" y="719" on="0"/>
        <pt x="267" y="702" on="0"/>
        <pt x="317" y="664" on="0"/>
        <pt x="355" y="611" on="0"/>
        <pt x="369" y="582" on="1"/>
        <pt x="402" y="514" on="0"/>
      </contour>
    </TTGlyph>
    <TTGlyph name="W" xMin="29" yMin="-10" xMax="965" yMax="714">
      <contour>
        <pt x="686" y="-8" on="1"/>
        <pt x="640" y="-8" on="0"/>
        <pt x="577" y="21" on="0"/>
        <pt x="535" y="65" on="0"/>
        <pt x="513" y="118" on="0"/>
        <pt x="502" y="165" on="0"/>
        <pt x="500" y="200" on="0"/>
        <pt x="500" y="204" on="1"/>
        <pt x="499" y="197" on="0"/>
        <pt x="492" y="160" on="0"/>
        <pt x="476" y="113" on="0"/>
        <pt x="449" y="61" on="0"/>
        <pt x="406" y="18" on="0"/>
        <pt x="346" y="-10" on="0"/>
        <pt x="305" y="-10" on="1"/>
        <pt x="254" y="-10" on="0"/>
        <pt x="179" y="37" on="0"/>
        <pt x="154" y="66" on="1"/>
        <pt x="125" y="99" on="0"/>
        <pt x="104" y="143" on="1"/>
        <pt x="76" y="205" on="0"/>
        <pt x="47" y="331" on="0"/>
        <pt x="40" y="382" on="1"/>
        <pt x="32" y="442" on="0"/>
        <pt x="31" y="497" on="1"/>
        <pt x="29" y="538" on="0"/>
        <pt x="40" y="600" on="0"/>
        <pt x="61" y="646" on="0"/>
        <pt x="89" y="677" on="0"/>
        <pt x="104" y="687" on="1"/>
        <pt x="139" y="711" on="0"/>
        <pt x="185" y="714" on="1"/>
        <pt x="230" y="714" on="0"/>
        <pt x="296" y="679" on="0"/>
        <pt x="342" y="622" on="0"/>
        <pt x="370" y="553" on="0"/>
        <pt x="385" y="485" on="0"/>
        <pt x="391" y="426" on="0"/>
        <pt x="392" y="408" on="1"/>
        <pt x="393" y="460" on="0"/>
        <pt x="425" y="514" on="0"/>
        <pt x="444" y="526" on="1"/>
        <pt x="466" y="540" on="0"/>
        <pt x="494" y="540" on="1"/>
        <pt x="516" y="540" on="0"/>
        <pt x="549" y="526" on="0"/>
        <pt x="573" y="505" on="0"/>
        <pt x="590" y="478" on="0"/>
        <pt x="595" y="464" on="1"/>
        <pt x="606" y="431" on="0"/>
        <pt x="607" y="389" on="1"/>
        <pt x="607" y="450" on="0"/>
        <pt x="622" y="542" on="0"/>
        <pt x="647" y="611" on="0"/>
        <pt x="679" y="658" on="0"/>
        <pt x="696" y="673" on="1"/>
        <pt x="736" y="709" on="0"/>
        <pt x="786" y="714" on="1"/>
        <pt x="820" y="714" on="0"/>
        <pt x="872" y="696" on="0"/>
        <pt x="910" y="666" on="0"/>
        <pt x="936" y="628" on="0"/>
        <pt x="944" y="607" on="1"/>
        <pt x="963" y="559" on="0"/>
        <pt x="965" y="497" on="1"/>
        <pt x="965" y="415" on="0"/>
        <pt x="943" y="283" on="0"/>
        <pt x="929" y="235" on="1"/>
        <pt x="913" y="180" on="0"/>
        <pt x="893" y="136" on="1"/>
        <pt x="880" y="107" on="0"/>
        <pt x="849" y="65" on="0"/>
        <pt x="815" y="34" on="0"/>
        <pt x="780" y="13" on="0"/>
        <pt x="764" y="7" on="1"/>
        <pt x="726" y="-8" on="0"/>
      </contour>
    </TTGlyph>
    <TTGlyph name="X" xMin="17" yMin="-17" xMax="764" yMax="726">
      <contour>
        <pt x="402" y="539" on="1"/>
        <pt x="438" y="619" on="0"/>
        <pt x="485" y="667" on="1"/>
        <pt x="505" y="687" on="0"/>
        <pt x="553" y="718" on="0"/>
        <pt x="608" y="726" on="0"/>
        <pt x="670" y="707" on="0"/>
        <pt x="704" y="677" on="1"/>
        <pt x="731" y="653" on="0"/>
        <pt x="755" y="600" on="0"/>
        <pt x="756" y="545" on="0"/>
        <pt x="739" y="491" on="0"/>
        <pt x="726" y="467" on="1"/>
        <pt x="695" y="410" on="0"/>
        <pt x="638" y="353" on="1"/>
        <pt x="699" y="304" on="0"/>
        <pt x="732" y="251" on="1"/>
        <pt x="746" y="228" on="0"/>
        <pt x="764" y="177" on="0"/>
        <pt x="762" y="122" on="0"/>
        <pt x="737" y="64" on="0"/>
        <pt x="707" y="36" on="1"/>
        <pt x="667" y="-2" on="0"/>
        <pt x="592" y="-17" on="0"/>
        <pt x="524" y="6" on="0"/>
        <pt x="466" y="57" on="0"/>
        <pt x="422" y="112" on="0"/>
        <pt x="394" y="161" on="0"/>
        <pt x="390" y="172" on="1"/>
        <pt x="353" y="90" on="0"/>
        <pt x="307" y="42" on="1"/>
        <pt x="287" y="21" on="0"/>
        <pt x="241" y="-9" on="0"/>
        <pt x="187" y="-17" on="0"/>
        <pt x="127" y="4" on="0"/>
        <pt x="94" y="35" on="1"/>
        <pt x="63" y="64" on="0"/>
        <pt x="37" y="123" on="0"/>
        <pt x="35" y="180" on="0"/>
        <pt x="54" y="233" on="0"/>
        <pt x="69" y="256" on="1"/>
        <pt x="103" y="311" on="0"/>
        <pt x="168" y="361" on="1"/>
        <pt x="94" y="410" on="0"/>
        <pt x="55" y="464" on="1"/>
        <pt x="38" y="487" on="0"/>
        <pt x="17" y="539" on="0"/>
        <pt x="19" y="595" on="0"/>
        <pt x="50" y="652" on="0"/>
        <pt x="86" y="681" on="1"/>
        <pt x="119" y="707" on="0"/>
        <pt x="181" y="723" on="0"/>
        <pt x="238" y="712" on="0"/>
        <pt x="289" y="682" on="0"/>
        <pt x="310" y="662" on="1"/>
        <pt x="360" y="615" on="0"/>
      </contour>
    </TTGlyph>
    <TTGlyph name="Y" xMin="18" yMin="-3" xMax="724" yMax="733">
      <contour>
        <pt x="390" y="547" on="1"/>
        <pt x="411" y="623" on="0"/>
        <pt x="476" y="698" on="0"/>
        <pt x="508" y="712" on="1"/>
        <pt x="545" y="729" on="0"/>
        <pt x="585" y="724" on="1"/>
        <pt x="617" y="720" on="0"/>
        <pt x="662" y="700" on="0"/>
        <pt x="692" y="673" on="0"/>
        <pt x="709" y="641" on="0"/>
        <pt x="714" y="625" on="1"/>
        <pt x="724" y="587" on="0"/>
        <pt x="716" y="541" on="1"/>
        <pt x="703" y="486" on="0"/>
        <pt x="643" y="405" on="0"/>
        <pt x="612" y="379" on="1"/>
        <pt x="576" y="348" on="0"/>
        <pt x="534" y="327" on="1"/>
        <pt x="554" y="264" on="0"/>
        <pt x="550" y="164" on="0"/>
        <pt x="541" y="129" on="1"/>
        <pt x="530" y="88" on="0"/>
        <pt x="510" y="56" on="1"/>
        <pt x="487" y="24" on="0"/>
        <pt x="429" y="-3" on="0"/>
        <pt x="390" y="-3" on="1"/>
        <pt x="358" y="-3" on="0"/>
        <pt x="311" y="11" on="0"/>
        <pt x="296" y="20" on="1"/>
        <pt x="278" y="30" on="0"/>
        <pt x="266" y="43" on="1"/>
        <pt x="250" y="61" on="0"/>
        <pt x="229" y="103" on="0"/>
        <pt x="217" y="149" on="0"/>
        <pt x="213" y="196" on="0"/>
        <pt x="213" y="217" on="1"/>
        <pt x="213" y="267" on="0"/>
        <pt x="224" y="320" on="1"/>
        <pt x="173" y="342" on="0"/>
        <pt x="131" y="375" on="1"/>
        <pt x="113" y="389" on="0"/>
        <pt x="78" y="424" on="0"/>
        <pt x="48" y="466" on="0"/>
        <pt x="27" y="515" on="0"/>
        <pt x="23" y="543" on="1"/>
        <pt x="18" y="576" on="0"/>
        <pt x="26" y="627" on="0"/>
        <pt x="44" y="666" on="0"/>
        <pt x="69" y="694" on="0"/>
        <pt x="83" y="703" on="1"/>
        <pt x="116" y="725" on="0"/>
        <pt x="160" y="731" on="1"/>
        <pt x="193" y="733" on="0"/>
        <pt x="249" y="719" on="0"/>
        <pt x="294" y="694" on="0"/>
        <pt x="329" y="661" on="0"/>
        <pt x="342" y="643" on="1"/>
        <pt x="373" y="602" on="0"/>
      </contour>
    </TTGlyph>
    <TTGlyph name="Yacute" xMin="18" yMin="-3" xMax="724" yMax="950">
      <contour>
        <pt x="390" y="547" on="1"/>
        <pt x="411" y="623" on="0"/>
        <pt x="476" y="698" on="0"/>
        <pt x="508" y="712" on="1"/>
        <pt x="545" y="729" on="0"/>
        <pt x="585" y="724" on="1"/>
        <pt x="617" y="720" on="0"/>
        <pt x="662" y="700" on="0"/>
        <pt x="692" y="673" on="0"/>
        <pt x="709" y="641" on="0"/>
        <pt x="714" y="625" on="1"/>
        <pt x="724" y="587" on="0"/>
        <pt x="716" y="541" on="1"/>
        <pt x="703" y="486" on="0"/>
        <pt x="643" y="405" on="0"/>
        <pt x="612" y="379" on="1"/>
        <pt x="576" y="348" on="0"/>
        <pt x="534" y="327" on="1"/>
        <pt x="554" y="264" on="0"/>
        <pt x="550" y="164" on="0"/>
        <pt x="541" y="129" on="1"/>
        <pt x="530" y="88" on="0"/>
        <pt x="510" y="56" on="1"/>
        <pt x="487" y="24" on="0"/>
        <pt x="429" y="-3" on="0"/>
        <pt x="390" y="-3" on="1"/>
        <pt x="358" y="-3" on="0"/>
        <pt x="311" y="11" on="0"/>
        <pt x="296" y="20" on="1"/>
        <pt x="278" y="30" on="0"/>
        <pt x="266" y="43" on="1"/>
        <pt x="250" y="61" on="0"/>
        <pt x="229" y="103" on="0"/>
        <pt x="217" y="149" on="0"/>
        <pt x="213" y="196" on="0"/>
        <pt x="213" y="217" on="1"/>
        <pt x="213" y="267" on="0"/>
        <pt x="224" y="320" on="1"/>
        <pt x="173" y="342" on="0"/>
        <pt x="131" y="375" on="1"/>
        <pt x="113" y="389" on="0"/>
        <pt x="78" y="424" on="0"/>
        <pt x="48" y="466" on="0"/>
        <pt x="27" y="515" on="0"/>
        <pt x="23" y="543" on="1"/>
        <pt x="18" y="576" on="0"/>
        <pt x="26" y="627" on="0"/>
        <pt x="44" y="666" on="0"/>
        <pt x="69" y="694" on="0"/>
        <pt x="83" y="703" on="1"/>
        <pt x="116" y="725" on="0"/>
        <pt x="160" y="731" on="1"/>
        <pt x="193" y="733" on="0"/>
        <pt x="249" y="719" on="0"/>
        <pt x="294" y="694" on="0"/>
        <pt x="329" y="661" on="0"/>
        <pt x="342" y="643" on="1"/>
        <pt x="373" y="602" on="0"/>
      </contour>
      <contour>
        <pt x="320" y="853" on="1"/>
        <pt x="328" y="863" on="0"/>
        <pt x="359" y="890" on="0"/>
        <pt x="395" y="915" on="0"/>
        <pt x="434" y="936" on="0"/>
        <pt x="450" y="941" on="1"/>
        <pt x="472" y="948" on="0"/>
        <pt x="505" y="950" on="0"/>
        <pt x="528" y="943" on="0"/>
        <pt x="545" y="930" on="0"/>
        <pt x="553" y="923" on="1"/>
        <pt x="561" y="915" on="0"/>
        <pt x="575" y="889" on="0"/>
        <pt x="578" y="859" on="0"/>
        <pt x="566" y="826" on="0"/>
        <pt x="547" y="810" on="1"/>
        <pt x="526" y="791" on="0"/>
        <pt x="470" y="768" on="0"/>
        <pt x="444" y="760" on="1"/>
        <pt x="414" y="751" on="0"/>
        <pt x="384" y="746" on="1"/>
        <pt x="368" y="742" on="0"/>
        <pt x="353" y="744" on="1"/>
        <pt x="340" y="746" on="0"/>
        <pt x="314" y="758" on="0"/>
        <pt x="306" y="775" on="1"/>
        <pt x="298" y="790" on="0"/>
        <pt x="300" y="818" on="0"/>
        <pt x="305" y="829" on="1"/>
        <pt x="310" y="841" on="0"/>
      </contour>
    </TTGlyph>
    <TTGlyph name="Ydieresis" xMin="18" yMin="-3" xMax="724" yMax="931">
      <contour>
        <pt x="390" y="547" on="1"/>
        <pt x="411" y="623" on="0"/>
        <pt x="476" y="698" on="0"/>
        <pt x="508" y="712" on="1"/>
        <pt x="545" y="729" on="0"/>
        <pt x="585" y="724" on="1"/>
        <pt x="617" y="720" on="0"/>
        <pt x="662" y="700" on="0"/>
        <pt x="692" y="673" on="0"/>
        <pt x="709" y="641" on="0"/>
        <pt x="714" y="625" on="1"/>
        <pt x="724" y="587" on="0"/>
        <pt x="716" y="541" on="1"/>
        <pt x="703" y="486" on="0"/>
        <pt x="643" y="405" on="0"/>
        <pt x="612" y="379" on="1"/>
        <pt x="576" y="348" on="0"/>
        <pt x="534" y="327" on="1"/>
        <pt x="554" y="264" on="0"/>
        <pt x="550" y="164" on="0"/>
        <pt x="541" y="129" on="1"/>
        <pt x="530" y="88" on="0"/>
        <pt x="510" y="56" on="1"/>
        <pt x="487" y="24" on="0"/>
        <pt x="429" y="-3" on="0"/>
        <pt x="390" y="-3" on="1"/>
        <pt x="358" y="-3" on="0"/>
        <pt x="311" y="11" on="0"/>
        <pt x="296" y="20" on="1"/>
        <pt x="278" y="30" on="0"/>
        <pt x="266" y="43" on="1"/>
        <pt x="250" y="61" on="0"/>
        <pt x="229" y="103" on="0"/>
        <pt x="217" y="149" on="0"/>
        <pt x="213" y="196" on="0"/>
        <pt x="213" y="217" on="1"/>
        <pt x="213" y="267" on="0"/>
        <pt x="224" y="320" on="1"/>
        <pt x="173" y="342" on="0"/>
        <pt x="131" y="375" on="1"/>
        <pt x="113" y="389" on="0"/>
        <pt x="78" y="424" on="0"/>
        <pt x="48" y="466" on="0"/>
        <pt x="27" y="515" on="0"/>
        <pt x="23" y="543" on="1"/>
        <pt x="18" y="576" on="0"/>
        <pt x="26" y="627" on="0"/>
        <pt x="44" y="666" on="0"/>
        <pt x="69" y="694" on="0"/>
        <pt x="83" y="703" on="1"/>
        <pt x="116" y="725" on="0"/>
        <pt x="160" y="731" on="1"/>
        <pt x="193" y="733" on="0"/>
        <pt x="249" y="719" on="0"/>
        <pt x="294" y="694" on="0"/>
        <pt x="329" y="661" on="0"/>
        <pt x="342" y="643" on="1"/>
        <pt x="373" y="602" on="0"/>
      </contour>
      <contour>
        <pt x="377" y="854" on="1"/>
        <pt x="377" y="822" on="0"/>
        <pt x="338" y="776" on="0"/>
        <pt x="300" y="776" on="1"/>
        <pt x="262" y="776" on="0"/>
        <pt x="223" y="822" on="0"/>
        <pt x="223" y="854" on="1"/>
        <pt x="223" y="886" on="0"/>
        <pt x="262" y="931" on="0"/>
        <pt x="300" y="931" on="1"/>
        <pt x="338" y="931" on="0"/>
        <pt x="377" y="886" on="0"/>
      </contour>
      <contour>
        <pt x="560" y="854" on="1"/>
        <pt x="560" y="822" on="0"/>
        <pt x="521" y="776" on="0"/>
        <pt x="483" y="776" on="1"/>
        <pt x="445" y="776" on="0"/>
        <pt x="406" y="822" on="0"/>
        <pt x="406" y="854" on="1"/>
        <pt x="406" y="886" on="0"/>
        <pt x="445" y="931" on="0"/>
        <pt x="483" y="931" on="1"/>
        <pt x="521" y="931" on="0"/>
        <pt x="560" y="886" on="0"/>
      </contour>
    </TTGlyph>
    <TTGlyph name="Z" xMin="36" yMin="-19" xMax="695" yMax="702">
      <contour>
        <pt x="244" y="392" on="1"/>
        <pt x="186" y="390" on="0"/>
        <pt x="140" y="405" on="1"/>
        <pt x="120" y="411" on="0"/>
        <pt x="83" y="432" on="0"/>
        <pt x="54" y="464" on="0"/>
        <pt x="36" y="510" on="0"/>
        <pt x="36" y="541" on="1"/>
        <pt x="36" y="587" on="0"/>
        <pt x="69" y="623" on="1"/>
        <pt x="83" y="638" on="0"/>
        <pt x="127" y="667" on="0"/>
        <pt x="194" y="690" on="0"/>
        <pt x="286" y="702" on="0"/>
        <pt x="348" y="701" on="1"/>
        <pt x="430" y="699" on="0"/>
        <pt x="539" y="680" on="0"/>
        <pt x="602" y="643" on="0"/>
        <pt x="624" y="588" on="0"/>
        <pt x="619" y="552" on="1"/>
        <pt x="610" y="512" on="0"/>
        <pt x="589" y="469" on="1"/>
        <pt x="571" y="431" on="0"/>
        <pt x="506" y="338" on="0"/>
        <pt x="452" y="289" on="1"/>
        <pt x="519" y="296" on="0"/>
        <pt x="573" y="285" on="1"/>
        <pt x="596" y="280" on="0"/>
        <pt x="640" y="262" on="0"/>
        <pt x="674" y="230" on="0"/>
        <pt x="695" y="184" on="0"/>
        <pt x="695" y="152" on="1"/>
        <pt x="695" y="88" on="0"/>
        <pt x="637" y="18" on="0"/>
        <pt x="546" y="-14" on="0"/>
        <pt x="435" y="-19" on="0"/>
        <pt x="383" y="-19" on="1"/>
        <pt x="331" y="-19" on="0"/>
        <pt x="231" y="-17" on="0"/>
        <pt x="147" y="3" on="0"/>
        <pt x="85" y="48" on="0"/>
        <pt x="70" y="92" on="1"/>
        <pt x="60" y="121" on="0"/>
        <pt x="64" y="178" on="0"/>
        <pt x="85" y="231" on="0"/>
        <pt x="118" y="279" on="0"/>
        <pt x="137" y="300" on="1"/>
        <pt x="181" y="348" on="0"/>
      </contour>
    </TTGlyph>
    <TTGlyph name="Zcaron" xMin="36" yMin="-19" xMax="695" yMax="925">
      <contour>
        <pt x="244" y="392" on="1"/>
        <pt x="232" y="392" on="1"/>
        <pt x="203" y="392" on="0"/>
        <pt x="135" y="403" on="0"/>
        <pt x="76" y="434" on="0"/>
        <pt x="36" y="493" on="0"/>
        <pt x="36" y="541" on="1"/>
        <pt x="36" y="564" on="0"/>
        <pt x="58" y="620" on="0"/>
        <pt x="122" y="668" on="0"/>
        <pt x="237" y="701" on="0"/>
        <pt x="331" y="701" on="1"/>
        <pt x="410" y="701" on="0"/>
        <pt x="521" y="685" on="0"/>
        <pt x="590" y="653" on="0"/>
        <pt x="621" y="606" on="0"/>
        <pt x="621" y="575" on="1"/>
        <pt x="621" y="550" on="0"/>
        <pt x="602" y="497" on="0"/>
        <pt x="589" y="469" on="1"/>
        <pt x="571" y="431" on="0"/>
        <pt x="506" y="338" on="0"/>
        <pt x="452" y="289" on="1"/>
        <pt x="477" y="292" on="0"/>
        <pt x="501" y="292" on="1"/>
        <pt x="530" y="292" on="0"/>
        <pt x="598" y="282" on="0"/>
        <pt x="656" y="252" on="0"/>
        <pt x="695" y="197" on="0"/>
        <pt x="695" y="152" on="1"/>
        <pt x="695" y="83" on="0"/>
        <pt x="628" y="12" on="0"/>
        <pt x="525" y="-18" on="0"/>
        <pt x="404" y="-19" on="0"/>
        <pt x="350" y="-19" on="1"/>
        <pt x="302" y="-19" on="0"/>
        <pt x="213" y="-14" on="0"/>
        <pt x="139" y="7" on="0"/>
        <pt x="84" y="52" on="0"/>
        <pt x="70" y="92" on="1"/>
        <pt x="65" y="104" on="0"/>
        <pt x="62" y="128" on="0"/>
        <pt x="62" y="140" on="1"/>
        <pt x="62" y="179" on="0"/>
        <pt x="94" y="250" on="0"/>
        <pt x="145" y="313" on="0"/>
        <pt x="210" y="369" on="0"/>
      </contour>
      <contour>
        <pt x="507" y="831" on="1"/>
        <pt x="506" y="830" on="0"/>
        <pt x="480" y="800" on="0"/>
        <pt x="438" y="766" on="0"/>
        <pt x="384" y="737" on="0"/>
        <pt x="355" y="737" on="1"/>
        <pt x="327" y="737" on="0"/>
        <pt x="274" y="766" on="0"/>
        <pt x="234" y="802" on="0"/>
        <pt x="208" y="833" on="0"/>
        <pt x="207" y="834" on="1"/>
        <pt x="196" y="848" on="0"/>
        <pt x="196" y="866" on="1"/>
        <pt x="196" y="888" on="0"/>
        <pt x="229" y="924" on="0"/>
        <pt x="255" y="924" on="1"/>
        <pt x="284" y="924" on="0"/>
        <pt x="300" y="899" on="1"/>
        <pt x="301" y="898" on="0"/>
        <pt x="310" y="888" on="0"/>
        <pt x="324" y="873" on="0"/>
        <pt x="344" y="857" on="0"/>
        <pt x="355" y="851" on="1"/>
        <pt x="376" y="864" on="0"/>
        <pt x="405" y="891" on="0"/>
        <pt x="428" y="912" on="0"/>
        <pt x="449" y="925" on="0"/>
        <pt x="463" y="925" on="1"/>
        <pt x="472" y="925" on="0"/>
        <pt x="492" y="916" on="0"/>
        <pt x="509" y="900" on="0"/>
        <pt x="520" y="879" on="0"/>
        <pt x="520" y="866" on="1"/>
        <pt x="520" y="847" on="0"/>
      </contour>
    </TTGlyph>
    <TTGlyph name="a" xMin="28" yMin="-20" xMax="686" yMax="520">
      <contour>
        <pt x="242" y="513" on="1"/>
        <pt x="295" y="518" on="0"/>
        <pt x="363" y="497" on="0"/>
        <pt x="402" y="467" on="0"/>
        <pt x="418" y="438" on="0"/>
        <pt x="419" y="435" on="1"/>
        <pt x="419" y="436" on="0"/>
        <pt x="430" y="463" on="0"/>
        <pt x="456" y="495" on="0"/>
        <pt x="500" y="520" on="0"/>
        <pt x="533" y="520" on="1"/>
        <pt x="561" y="520" on="0"/>
        <pt x="603" y="498" on="0"/>
        <pt x="635" y="462" on="0"/>
        <pt x="657" y="416" on="0"/>
        <pt x="664" y="392" on="1"/>
        <pt x="681" y="336" on="0"/>
        <pt x="683" y="265" on="1"/>
        <pt x="686" y="208" on="0"/>
        <pt x="676" y="123" on="0"/>
        <pt x="657" y="62" on="0"/>
        <pt x="631" y="21" on="0"/>
        <pt x="617" y="9" on="1"/>
        <pt x="584" y="-20" on="0"/>
        <pt x="540" y="-18" on="1"/>
        <pt x="513" y="-19" on="0"/>
        <pt x="489" y="-9" on="1"/>
        <pt x="469" y="-1" on="0"/>
        <pt x="431" y="38" on="0"/>
        <pt x="426" y="76" on="1"/>
        <pt x="416" y="46" on="0"/>
        <pt x="390" y="25" on="1"/>
        <pt x="368" y="7" on="0"/>
        <pt x="288" y="-19" on="0"/>
        <pt x="222" y="-11" on="1"/>
        <pt x="168" y="-5" on="0"/>
        <pt x="126" y="21" on="1"/>
        <pt x="108" y="32" on="0"/>
        <pt x="73" y="66" on="0"/>
        <pt x="46" y="116" on="0"/>
        <pt x="30" y="182" on="0"/>
        <pt x="30" y="225" on="1"/>
        <pt x="28" y="300" on="0"/>
        <pt x="49" y="361" on="1"/>
        <pt x="58" y="387" on="0"/>
        <pt x="88" y="438" on="0"/>
        <pt x="134" y="480" on="0"/>
        <pt x="198" y="509" on="0"/>
      </contour>
      <contour>
        <pt x="375" y="278" on="1"/>
        <pt x="358" y="278" on="0"/>
        <pt x="333" y="252" on="0"/>
        <pt x="335" y="236" on="1"/>
        <pt x="337" y="215" on="0"/>
        <pt x="358" y="199" on="0"/>
        <pt x="375" y="199" on="1"/>
        <pt x="392" y="199" on="0"/>
        <pt x="414" y="219" on="0"/>
        <pt x="414" y="236" on="1"/>
        <pt x="414" y="252" on="0"/>
        <pt x="394" y="278" on="0"/>
      </contour>
    </TTGlyph>
    <TTGlyph name="aacute" xMin="28" yMin="-20" xMax="686" yMax="764">
      <contour>
        <pt x="419" y="435" on="1"/>
        <pt x="427" y="459" on="0"/>
        <pt x="442" y="477" on="1"/>
        <pt x="455" y="493" on="0"/>
        <pt x="498" y="520" on="0"/>
        <pt x="533" y="520" on="1"/>
        <pt x="561" y="520" on="0"/>
        <pt x="603" y="498" on="0"/>
        <pt x="635" y="462" on="0"/>
        <pt x="657" y="416" on="0"/>
        <pt x="664" y="392" on="1"/>
        <pt x="681" y="336" on="0"/>
        <pt x="683" y="265" on="1"/>
        <pt x="686" y="208" on="0"/>
        <pt x="676" y="123" on="0"/>
        <pt x="657" y="62" on="0"/>
        <pt x="631" y="21" on="0"/>
        <pt x="617" y="9" on="1"/>
        <pt x="584" y="-20" on="0"/>
        <pt x="540" y="-18" on="1"/>
        <pt x="513" y="-19" on="0"/>
        <pt x="489" y="-9" on="1"/>
        <pt x="469" y="-1" on="0"/>
        <pt x="431" y="38" on="0"/>
        <pt x="426" y="76" on="1"/>
        <pt x="416" y="46" on="0"/>
        <pt x="390" y="25" on="1"/>
        <pt x="368" y="7" on="0"/>
        <pt x="288" y="-19" on="0"/>
        <pt x="222" y="-11" on="1"/>
        <pt x="168" y="-5" on="0"/>
        <pt x="126" y="21" on="1"/>
        <pt x="108" y="32" on="0"/>
        <pt x="73" y="66" on="0"/>
        <pt x="46" y="116" on="0"/>
        <pt x="30" y="182" on="0"/>
        <pt x="30" y="225" on="1"/>
        <pt x="28" y="300" on="0"/>
        <pt x="49" y="361" on="1"/>
        <pt x="58" y="387" on="0"/>
        <pt x="88" y="438" on="0"/>
        <pt x="134" y="480" on="0"/>
        <pt x="198" y="509" on="0"/>
        <pt x="242" y="513" on="1"/>
        <pt x="298" y="518" on="0"/>
        <pt x="366" y="495" on="0"/>
        <pt x="386" y="479" on="1"/>
        <pt x="409" y="461" on="0"/>
      </contour>
      <contour>
        <pt x="375" y="278" on="1"/>
        <pt x="358" y="278" on="0"/>
        <pt x="333" y="252" on="0"/>
        <pt x="335" y="236" on="1"/>
        <pt x="337" y="215" on="0"/>
        <pt x="358" y="199" on="0"/>
        <pt x="375" y="199" on="1"/>
        <pt x="392" y="199" on="0"/>
        <pt x="414" y="219" on="0"/>
        <pt x="414" y="236" on="1"/>
        <pt x="414" y="252" on="0"/>
        <pt x="394" y="278" on="0"/>
      </contour>
      <contour>
        <pt x="251" y="667" on="1"/>
        <pt x="259" y="677" on="0"/>
        <pt x="290" y="704" on="0"/>
        <pt x="326" y="729" on="0"/>
        <pt x="365" y="750" on="0"/>
        <pt x="381" y="755" on="1"/>
        <pt x="403" y="762" on="0"/>
        <pt x="436" y="764" on="0"/>
        <pt x="459" y="757" on="0"/>
        <pt x="476" y="744" on="0"/>
        <pt x="484" y="737" on="1"/>
        <pt x="492" y="729" on="0"/>
        <pt x="506" y="703" on="0"/>
        <pt x="509" y="673" on="0"/>
        <pt x="497" y="640" on="0"/>
        <pt x="478" y="624" on="1"/>
        <pt x="457" y="605" on="0"/>
        <pt x="401" y="582" on="0"/>
        <pt x="375" y="574" on="1"/>
        <pt x="345" y="565" on="0"/>
        <pt x="315" y="560" on="1"/>
        <pt x="299" y="556" on="0"/>
        <pt x="284" y="558" on="1"/>
        <pt x="271" y="560" on="0"/>
        <pt x="245" y="572" on="0"/>
        <pt x="237" y="589" on="1"/>
        <pt x="229" y="604" on="0"/>
        <pt x="231" y="632" on="0"/>
        <pt x="236" y="643" on="1"/>
        <pt x="241" y="655" on="0"/>
      </contour>
    </TTGlyph>
    <TTGlyph name="acircumflex" xMin="28" yMin="-20" xMax="686" yMax="749">
      <contour>
        <pt x="419" y="435" on="1"/>
        <pt x="427" y="459" on="0"/>
        <pt x="442" y="477" on="1"/>
        <pt x="455" y="493" on="0"/>
        <pt x="498" y="520" on="0"/>
        <pt x="533" y="520" on="1"/>
        <pt x="561" y="520" on="0"/>
        <pt x="603" y="498" on="0"/>
        <pt x="635" y="462" on="0"/>
        <pt x="657" y="416" on="0"/>
        <pt x="664" y="392" on="1"/>
        <pt x="681" y="336" on="0"/>
        <pt x="683" y="265" on="1"/>
        <pt x="686" y="208" on="0"/>
        <pt x="676" y="123" on="0"/>
        <pt x="657" y="62" on="0"/>
        <pt x="631" y="21" on="0"/>
        <pt x="617" y="9" on="1"/>
        <pt x="584" y="-20" on="0"/>
        <pt x="540" y="-18" on="1"/>
        <pt x="513" y="-19" on="0"/>
        <pt x="489" y="-9" on="1"/>
        <pt x="469" y="-1" on="0"/>
        <pt x="431" y="38" on="0"/>
        <pt x="426" y="76" on="1"/>
        <pt x="416" y="46" on="0"/>
        <pt x="390" y="25" on="1"/>
        <pt x="368" y="7" on="0"/>
        <pt x="288" y="-19" on="0"/>
        <pt x="222" y="-11" on="1"/>
        <pt x="168" y="-5" on="0"/>
        <pt x="126" y="21" on="1"/>
        <pt x="108" y="32" on="0"/>
        <pt x="73" y="66" on="0"/>
        <pt x="46" y="116" on="0"/>
        <pt x="30" y="182" on="0"/>
        <pt x="30" y="225" on="1"/>
        <pt x="28" y="300" on="0"/>
        <pt x="49" y="361" on="1"/>
        <pt x="58" y="387" on="0"/>
        <pt x="88" y="438" on="0"/>
        <pt x="134" y="480" on="0"/>
        <pt x="198" y="509" on="0"/>
        <pt x="242" y="513" on="1"/>
        <pt x="298" y="518" on="0"/>
        <pt x="366" y="495" on="0"/>
        <pt x="386" y="479" on="1"/>
        <pt x="409" y="461" on="0"/>
      </contour>
      <contour>
        <pt x="203" y="655" on="1"/>
        <pt x="204" y="656" on="0"/>
        <pt x="230" y="686" on="0"/>
        <pt x="272" y="720" on="0"/>
        <pt x="326" y="749" on="0"/>
        <pt x="355" y="749" on="1"/>
        <pt x="383" y="749" on="0"/>
        <pt x="435" y="720" on="0"/>
        <pt x="477" y="684" on="0"/>
        <pt x="502" y="653" on="0"/>
        <pt x="503" y="652" on="1"/>
        <pt x="517" y="633" on="0"/>
        <pt x="509" y="587" on="0"/>
        <pt x="489" y="573" on="1"/>
        <pt x="469" y="559" on="0"/>
        <pt x="423" y="567" on="0"/>
        <pt x="409" y="587" on="1"/>
        <pt x="407" y="588" on="0"/>
        <pt x="378" y="622" on="0"/>
        <pt x="355" y="635" on="1"/>
        <pt x="341" y="626" on="0"/>
        <pt x="317" y="608" on="0"/>
        <pt x="309" y="600" on="1"/>
        <pt x="299" y="591" on="0"/>
        <pt x="292" y="584" on="1"/>
        <pt x="281" y="572" on="0"/>
        <pt x="269" y="566" on="1"/>
        <pt x="258" y="561" on="0"/>
        <pt x="229" y="561" on="0"/>
        <pt x="212" y="575" on="1"/>
        <pt x="193" y="590" on="0"/>
        <pt x="188" y="637" on="0"/>
      </contour>
      <contour>
        <pt x="375" y="278" on="1"/>
        <pt x="358" y="278" on="0"/>
        <pt x="333" y="252" on="0"/>
        <pt x="335" y="236" on="1"/>
        <pt x="337" y="215" on="0"/>
        <pt x="358" y="199" on="0"/>
        <pt x="375" y="199" on="1"/>
        <pt x="392" y="199" on="0"/>
        <pt x="414" y="219" on="0"/>
        <pt x="414" y="236" on="1"/>
        <pt x="414" y="252" on="0"/>
        <pt x="394" y="278" on="0"/>
      </contour>
    </TTGlyph>
    <TTGlyph name="acute" xMin="27" yMin="556" xMax="307" yMax="764">
      <contour>
        <pt x="49" y="667" on="1"/>
        <pt x="57" y="677" on="0"/>
        <pt x="88" y="704" on="0"/>
        <pt x="124" y="729" on="0"/>
        <pt x="163" y="750" on="0"/>
        <pt x="179" y="755" on="1"/>
        <pt x="201" y="762" on="0"/>
        <pt x="234" y="764" on="0"/>
        <pt x="257" y="757" on="0"/>
        <pt x="274" y="744" on="0"/>
        <pt x="282" y="737" on="1"/>
        <pt x="290" y="729" on="0"/>
        <pt x="304" y="703" on="0"/>
        <pt x="307" y="673" on="0"/>
        <pt x="295" y="640" on="0"/>
        <pt x="276" y="624" on="1"/>
        <pt x="255" y="605" on="0"/>
        <pt x="199" y="582" on="0"/>
        <pt x="173" y="574" on="1"/>
        <pt x="143" y="565" on="0"/>
        <pt x="113" y="560" on="1"/>
        <pt x="97" y="556" on="0"/>
        <pt x="82" y="558" on="1"/>
        <pt x="69" y="560" on="0"/>
        <pt x="43" y="572" on="0"/>
        <pt x="35" y="589" on="1"/>
        <pt x="27" y="604" on="0"/>
        <pt x="29" y="632" on="0"/>
        <pt x="34" y="643" on="1"/>
        <pt x="39" y="655" on="0"/>
      </contour>
    </TTGlyph>
    <TTGlyph name="adieresis" xMin="28" yMin="-20" xMax="686" yMax="735">
      <contour>
        <pt x="242" y="513" on="1"/>
        <pt x="295" y="518" on="0"/>
        <pt x="363" y="497" on="0"/>
        <pt x="402" y="467" on="0"/>
        <pt x="418" y="438" on="0"/>
        <pt x="419" y="435" on="1"/>
        <pt x="419" y="436" on="0"/>
        <pt x="430" y="463" on="0"/>
        <pt x="456" y="495" on="0"/>
        <pt x="500" y="520" on="0"/>
        <pt x="533" y="520" on="1"/>
        <pt x="561" y="520" on="0"/>
        <pt x="603" y="498" on="0"/>
        <pt x="635" y="462" on="0"/>
        <pt x="657" y="416" on="0"/>
        <pt x="664" y="392" on="1"/>
        <pt x="681" y="336" on="0"/>
        <pt x="683" y="265" on="1"/>
        <pt x="686" y="208" on="0"/>
        <pt x="676" y="123" on="0"/>
        <pt x="657" y="62" on="0"/>
        <pt x="631" y="21" on="0"/>
        <pt x="617" y="9" on="1"/>
        <pt x="584" y="-20" on="0"/>
        <pt x="540" y="-18" on="1"/>
        <pt x="513" y="-19" on="0"/>
        <pt x="489" y="-9" on="1"/>
        <pt x="469" y="-1" on="0"/>
        <pt x="431" y="38" on="0"/>
        <pt x="426" y="76" on="1"/>
        <pt x="416" y="46" on="0"/>
        <pt x="390" y="25" on="1"/>
        <pt x="368" y="7" on="0"/>
        <pt x="288" y="-19" on="0"/>
        <pt x="222" y="-11" on="1"/>
        <pt x="168" y="-5" on="0"/>
        <pt x="126" y="21" on="1"/>
        <pt x="108" y="32" on="0"/>
        <pt x="73" y="66" on="0"/>
        <pt x="46" y="116" on="0"/>
        <pt x="30" y="182" on="0"/>
        <pt x="30" y="225" on="1"/>
        <pt x="28" y="300" on="0"/>
        <pt x="49" y="361" on="1"/>
        <pt x="58" y="387" on="0"/>
        <pt x="88" y="438" on="0"/>
        <pt x="134" y="480" on="0"/>
        <pt x="198" y="509" on="0"/>
      </contour>
      <contour>
        <pt x="543" y="658" on="1"/>
        <pt x="543" y="626" on="0"/>
        <pt x="504" y="580" on="0"/>
        <pt x="466" y="580" on="1"/>
        <pt x="428" y="580" on="0"/>
        <pt x="389" y="626" on="0"/>
        <pt x="389" y="658" on="1"/>
        <pt x="389" y="690" on="0"/>
        <pt x="428" y="735" on="0"/>
        <pt x="466" y="735" on="1"/>
        <pt x="504" y="735" on="0"/>
        <pt x="543" y="690" on="0"/>
      </contour>
      <contour>
        <pt x="360" y="658" on="1"/>
        <pt x="360" y="626" on="0"/>
        <pt x="321" y="580" on="0"/>
        <pt x="283" y="580" on="1"/>
        <pt x="245" y="580" on="0"/>
        <pt x="206" y="626" on="0"/>
        <pt x="206" y="658" on="1"/>
        <pt x="206" y="690" on="0"/>
        <pt x="245" y="735" on="0"/>
        <pt x="283" y="735" on="1"/>
        <pt x="321" y="735" on="0"/>
        <pt x="360" y="690" on="0"/>
      </contour>
      <contour>
        <pt x="375" y="278" on="1"/>
        <pt x="358" y="278" on="0"/>
        <pt x="333" y="252" on="0"/>
        <pt x="335" y="236" on="1"/>
        <pt x="337" y="215" on="0"/>
        <pt x="358" y="199" on="0"/>
        <pt x="375" y="199" on="1"/>
        <pt x="392" y="199" on="0"/>
        <pt x="414" y="219" on="0"/>
        <pt x="414" y="236" on="1"/>
        <pt x="414" y="252" on="0"/>
        <pt x="394" y="278" on="0"/>
      </contour>
    </TTGlyph>
    <TTGlyph name="ae" xMin="37" yMin="-18" xMax="1032" yMax="532">
      <contour>
        <pt x="834" y="206" on="1"/>
        <pt x="863" y="183" on="0"/>
        <pt x="927" y="172" on="0"/>
        <pt x="982" y="164" on="0"/>
        <pt x="1021" y="142" on="0"/>
        <pt x="1026" y="107" on="1"/>
        <pt x="1027" y="87" on="0"/>
        <pt x="1021" y="68" on="1"/>
        <pt x="1015" y="51" on="0"/>
        <pt x="986" y="16" on="0"/>
        <pt x="955" y="4" on="1"/>
        <pt x="911" y="-10" on="0"/>
        <pt x="860" y="-14" on="1"/>
        <pt x="816" y="-18" on="0"/>
        <pt x="704" y="-7" on="0"/>
        <pt x="643" y="18" on="1"/>
        <pt x="639" y="20" on="1"/>
        <pt x="637" y="21" on="0"/>
        <pt x="633" y="23" on="0"/>
        <pt x="630" y="25" on="1"/>
        <pt x="615" y="11" on="0"/>
        <pt x="586" y="-2" on="0"/>
        <pt x="575" y="-4" on="1"/>
        <pt x="562" y="-7" on="0"/>
        <pt x="549" y="-6" on="1"/>
        <pt x="522" y="-7" on="0"/>
        <pt x="498" y="3" on="1"/>
        <pt x="478" y="11" on="0"/>
        <pt x="440" y="50" on="0"/>
        <pt x="435" y="88" on="1"/>
        <pt x="425" y="58" on="0"/>
        <pt x="399" y="37" on="1"/>
        <pt x="377" y="19" on="0"/>
        <pt x="297" y="-7" on="0"/>
        <pt x="231" y="1" on="1"/>
        <pt x="177" y="7" on="0"/>
        <pt x="135" y="33" on="1"/>
        <pt x="117" y="44" on="0"/>
        <pt x="82" y="78" on="0"/>
        <pt x="55" y="128" on="0"/>
        <pt x="39" y="194" on="0"/>
        <pt x="39" y="237" on="1"/>
        <pt x="37" y="312" on="0"/>
        <pt x="58" y="373" on="1"/>
        <pt x="67" y="399" on="0"/>
        <pt x="97" y="450" on="0"/>
        <pt x="143" y="492" on="0"/>
        <pt x="207" y="521" on="0"/>
        <pt x="251" y="525" on="1"/>
        <pt x="304" y="530" on="0"/>
        <pt x="372" y="509" on="0"/>
        <pt x="411" y="479" on="0"/>
        <pt x="427" y="450" on="0"/>
        <pt x="428" y="447" on="1"/>
        <pt x="428" y="448" on="0"/>
        <pt x="439" y="475" on="0"/>
        <pt x="465" y="507" on="0"/>
        <pt x="509" y="532" on="0"/>
        <pt x="542" y="532" on="1"/>
        <pt x="571" y="532" on="0"/>
        <pt x="613" y="510" on="0"/>
        <pt x="629" y="492" on="1"/>
        <pt x="639" y="498" on="0"/>
        <pt x="660" y="508" on="0"/>
        <pt x="672" y="512" on="1"/>
        <pt x="723" y="527" on="0"/>
        <pt x="776" y="528" on="1"/>
        <pt x="798" y="528" on="0"/>
        <pt x="849" y="523" on="0"/>
        <pt x="900" y="508" on="0"/>
        <pt x="952" y="480" on="0"/>
        <pt x="976" y="459" on="1"/>
        <pt x="992" y="443" on="0"/>
        <pt x="1004" y="423" on="1"/>
        <pt x="1015" y="405" on="0"/>
        <pt x="1031" y="354" on="0"/>
        <pt x="1032" y="319" on="1"/>
        <pt x="1032" y="280" on="0"/>
        <pt x="997" y="230" on="0"/>
        <pt x="940" y="204" on="0"/>
        <pt x="869" y="199" on="0"/>
      </contour>
      <contour>
        <pt x="376" y="201" on="1"/>
        <pt x="392" y="201" on="0"/>
        <pt x="414" y="219" on="0"/>
        <pt x="414" y="237" on="1"/>
        <pt x="414" y="257" on="0"/>
        <pt x="392" y="279" on="0"/>
        <pt x="376" y="279" on="1"/>
        <pt x="361" y="279" on="0"/>
        <pt x="339" y="257" on="0"/>
        <pt x="339" y="237" on="1"/>
        <pt x="339" y="219" on="0"/>
        <pt x="361" y="201" on="0"/>
      </contour>
      <contour>
        <pt x="806" y="263" on="1"/>
        <pt x="820" y="263" on="0"/>
        <pt x="838" y="278" on="0"/>
        <pt x="838" y="292" on="1"/>
        <pt x="838" y="305" on="0"/>
        <pt x="823" y="322" on="0"/>
        <pt x="806" y="322" on="1"/>
        <pt x="789" y="322" on="0"/>
        <pt x="775" y="305" on="0"/>
        <pt x="775" y="292" on="1"/>
        <pt x="775" y="276" on="0"/>
        <pt x="792" y="263" on="0"/>
      </contour>
    </TTGlyph>
    <TTGlyph name="agrave" xMin="28" yMin="-20" xMax="686" yMax="766">
      <contour>
        <pt x="242" y="513" on="1"/>
        <pt x="295" y="518" on="0"/>
        <pt x="363" y="497" on="0"/>
        <pt x="402" y="467" on="0"/>
        <pt x="418" y="438" on="0"/>
        <pt x="419" y="435" on="1"/>
        <pt x="419" y="436" on="0"/>
        <pt x="430" y="463" on="0"/>
        <pt x="456" y="495" on="0"/>
        <pt x="500" y="520" on="0"/>
        <pt x="533" y="520" on="1"/>
        <pt x="561" y="520" on="0"/>
        <pt x="603" y="498" on="0"/>
        <pt x="635" y="462" on="0"/>
        <pt x="657" y="416" on="0"/>
        <pt x="664" y="392" on="1"/>
        <pt x="681" y="336" on="0"/>
        <pt x="683" y="265" on="1"/>
        <pt x="686" y="208" on="0"/>
        <pt x="676" y="123" on="0"/>
        <pt x="657" y="62" on="0"/>
        <pt x="631" y="21" on="0"/>
        <pt x="617" y="9" on="1"/>
        <pt x="584" y="-20" on="0"/>
        <pt x="540" y="-18" on="1"/>
        <pt x="513" y="-19" on="0"/>
        <pt x="489" y="-9" on="1"/>
        <pt x="469" y="-1" on="0"/>
        <pt x="431" y="38" on="0"/>
        <pt x="426" y="76" on="1"/>
        <pt x="416" y="46" on="0"/>
        <pt x="390" y="25" on="1"/>
        <pt x="368" y="7" on="0"/>
        <pt x="288" y="-19" on="0"/>
        <pt x="222" y="-11" on="1"/>
        <pt x="168" y="-5" on="0"/>
        <pt x="126" y="21" on="1"/>
        <pt x="108" y="32" on="0"/>
        <pt x="73" y="66" on="0"/>
        <pt x="46" y="116" on="0"/>
        <pt x="30" y="182" on="0"/>
        <pt x="30" y="225" on="1"/>
        <pt x="28" y="300" on="0"/>
        <pt x="49" y="361" on="1"/>
        <pt x="58" y="387" on="0"/>
        <pt x="88" y="438" on="0"/>
        <pt x="134" y="480" on="0"/>
        <pt x="198" y="509" on="0"/>
      </contour>
      <contour>
        <pt x="333" y="757" on="1"/>
        <pt x="349" y="752" on="0"/>
        <pt x="388" y="731" on="0"/>
        <pt x="424" y="706" on="0"/>
        <pt x="455" y="679" on="0"/>
        <pt x="463" y="669" on="1"/>
        <pt x="472" y="657" on="0"/>
        <pt x="477" y="645" on="1"/>
        <pt x="482" y="634" on="0"/>
        <pt x="485" y="606" on="0"/>
        <pt x="477" y="591" on="1"/>
        <pt x="469" y="574" on="0"/>
        <pt x="443" y="562" on="0"/>
        <pt x="430" y="560" on="1"/>
        <pt x="415" y="558" on="0"/>
        <pt x="399" y="562" on="1"/>
        <pt x="368" y="567" on="0"/>
        <pt x="338" y="576" on="1"/>
        <pt x="312" y="584" on="0"/>
        <pt x="257" y="607" on="0"/>
        <pt x="236" y="626" on="1"/>
        <pt x="217" y="642" on="0"/>
        <pt x="205" y="675" on="0"/>
        <pt x="208" y="705" on="0"/>
        <pt x="222" y="731" on="0"/>
        <pt x="230" y="739" on="1"/>
        <pt x="237" y="746" on="0"/>
        <pt x="255" y="759" on="0"/>
        <pt x="278" y="766" on="0"/>
        <pt x="310" y="764" on="0"/>
      </contour>
      <contour>
        <pt x="375" y="278" on="1"/>
        <pt x="358" y="278" on="0"/>
        <pt x="333" y="252" on="0"/>
        <pt x="335" y="236" on="1"/>
        <pt x="337" y="215" on="0"/>
        <pt x="358" y="199" on="0"/>
        <pt x="375" y="199" on="1"/>
        <pt x="392" y="199" on="0"/>
        <pt x="414" y="219" on="0"/>
        <pt x="414" y="236" on="1"/>
        <pt x="414" y="252" on="0"/>
        <pt x="394" y="278" on="0"/>
      </contour>
    </TTGlyph>
    <TTGlyph name="ampersand" xMin="38" yMin="-81" xMax="769" yMax="760">
      <contour>
        <pt x="175" y="467" on="1"/>
        <pt x="155" y="509" on="0"/>
        <pt x="148" y="550" on="1"/>
        <pt x="142" y="585" on="0"/>
        <pt x="154" y="666" on="0"/>
        <pt x="188" y="700" on="1"/>
        <pt x="218" y="730" on="0"/>
        <pt x="292" y="759" on="0"/>
        <pt x="367" y="760" on="0"/>
        <pt x="438" y="733" on="0"/>
        <pt x="464" y="706" on="1"/>
        <pt x="492" y="675" on="0"/>
        <pt x="503" y="637" on="1"/>
        <pt x="513" y="605" on="0"/>
        <pt x="503" y="518" on="0"/>
        <pt x="464" y="467" on="1"/>
        <pt x="484" y="447" on="0"/>
        <pt x="502" y="424" on="1"/>
        <pt x="518" y="404" on="0"/>
        <pt x="554" y="351" on="0"/>
        <pt x="568" y="321" on="1"/>
        <pt x="599" y="350" on="0"/>
        <pt x="631" y="365" on="1"/>
        <pt x="658" y="378" on="0"/>
        <pt x="719" y="377" on="0"/>
        <pt x="745" y="345" on="1"/>
        <pt x="769" y="313" on="0"/>
        <pt x="755" y="248" on="0"/>
        <pt x="716" y="195" on="0"/>
        <pt x="675" y="160" on="0"/>
        <pt x="672" y="158" on="1"/>
        <pt x="674" y="156" on="0"/>
        <pt x="694" y="136" on="0"/>
        <pt x="717" y="102" on="0"/>
        <pt x="737" y="59" on="0"/>
        <pt x="739" y="13" on="0"/>
        <pt x="717" y="-35" on="0"/>
        <pt x="688" y="-57" on="1"/>
        <pt x="668" y="-72" on="0"/>
        <pt x="630" y="-81" on="0"/>
        <pt x="594" y="-77" on="0"/>
        <pt x="562" y="-63" on="0"/>
        <pt x="548" y="-53" on="1"/>
        <pt x="515" y="-30" on="0"/>
        <pt x="488" y="8" on="1"/>
        <pt x="442" y="-24" on="0"/>
        <pt x="389" y="-40" on="1"/>
        <pt x="366" y="-47" on="0"/>
        <pt x="314" y="-55" on="0"/>
        <pt x="255" y="-52" on="0"/>
        <pt x="192" y="-34" on="0"/>
        <pt x="159" y="-16" on="1"/>
        <pt x="116" y="9" on="0"/>
        <pt x="87" y="49" on="1"/>
        <pt x="75" y="66" on="0"/>
        <pt x="53" y="109" on="0"/>
        <pt x="40" y="163" on="0"/>
        <pt x="38" y="227" on="0"/>
        <pt x="46" y="265" on="1"/>
        <pt x="52" y="298" on="0"/>
        <pt x="68" y="332" on="1"/>
        <pt x="82" y="361" on="0"/>
        <pt x="132" y="433" on="0"/>
      </contour>
      <contour>
        <pt x="308" y="258" on="1"/>
        <pt x="285" y="247" on="0"/>
        <pt x="270" y="223" on="0"/>
        <pt x="271" y="213" on="1"/>
        <pt x="272" y="202" on="0"/>
        <pt x="280" y="190" on="1"/>
        <pt x="291" y="175" on="0"/>
        <pt x="316" y="174" on="0"/>
        <pt x="326" y="180" on="1"/>
        <pt x="337" y="186" on="0"/>
        <pt x="349" y="200" on="1"/>
      </contour>
    </TTGlyph>
</ttFont>
